<svg width="1920" height="743" viewBox="0 0 1920 743" fill="none" xmlns="http://www.w3.org/2000/svg">
<path d="M911.714 513.752H875.565L821.342 798.423H971.747L911.714 513.752Z" fill="url(#paint0_linear_2004_2)"/>
<path d="M1045.98 513.752H1009.83L955.609 798.423H1106.01L1045.98 513.752Z" fill="url(#paint1_linear_2004_2)"/>
<path d="M953.149 3.74338C954.209 3.01425 956.331 1.95368 957.789 1.35711C959.247 0.760543 961.169 0.429116 962.097 0.627972C963.025 0.826828 965.213 1.62225 967.069 2.48396C968.991 3.34567 972.305 5.86452 975.089 8.51593C977.674 11.1011 981.718 16.1388 984.17 19.7844C986.557 23.4301 990.468 30.3238 992.854 35.0301C995.174 39.8026 998.157 46.63 999.416 50.2757C1000.68 53.9214 1002.53 60.3511 1005.45 72.1499L1005.85 191.795L1005.85 192.459C1006.18 309.851 1006.18 310.072 1006.51 146.721L1008.76 141.286C1009.96 138.236 1013.07 130.879 1015.59 124.847C1018.11 118.815 1020.56 112.717 1021.03 111.258C1021.49 109.8 1022.62 107.149 1023.61 105.293C1025 102.707 1025.8 101.912 1027.19 101.846C1028.25 101.713 1029.64 101.978 1030.37 102.31C1031.1 102.707 1032.43 104.563 1033.29 106.486C1034.15 108.342 1035.41 111.855 1036.01 114.241C1036.67 116.627 1037.73 119.743 1038.39 121.201C1039.05 122.659 1041.71 128.824 1044.29 134.988C1046.81 141.087 1048.86 146.456 1048.86 146.92C1048.8 147.318 1048.8 150.3 1048.93 159.315H1053.57V163.624C1053.57 166.673 1053.31 168.065 1052.64 168.396C1051.85 168.86 1051.65 183.576 1051.32 372.423L1062.78 384.023C1069.08 390.386 1075.05 396.683 1076.11 397.943C1077.17 399.202 1079.02 402.516 1080.28 405.234C1081.61 407.952 1083.4 412.857 1084.33 416.171C1085.26 419.485 1085.98 423.197 1085.92 424.457C1085.92 425.716 1086.12 428.832 1086.38 431.417C1086.78 434.93 1086.71 436.587 1085.98 438.31C1085.45 439.57 1084.33 441.094 1083.4 441.757C1082.21 442.553 1079.42 443.083 1073.79 443.613C1069.41 443.945 1062.72 444.475 1058.87 444.674C1055.03 444.873 1051.12 445.204 1050.06 445.403C1048.86 445.602 1048.4 445.999 1048.6 446.662C1048.8 447.193 1048.67 448.054 1048.27 448.518C1047.94 448.916 1047.67 451.236 1047.67 453.622C1047.67 456.009 1047.61 458.66 1047.61 459.588C1047.54 460.516 1047.54 462.571 1047.61 464.228V464.229C1047.61 465.886 1047.61 468.736 1047.54 470.525C1047.54 472.381 1047.47 474.568 1047.54 475.496C1047.54 476.424 1048.73 478.678 1050.12 480.468C1051.52 482.324 1053.31 485.704 1054.1 488.091C1054.96 490.477 1055.82 494.255 1056.09 496.575C1056.49 499.956 1056.36 500.884 1055.56 501.348C1055.03 501.679 1052.38 502.011 1049.73 502.011C1047.14 502.011 1044.95 502.209 1044.95 502.541C1044.95 502.806 1045.82 505.259 1046.94 507.976C1048 510.694 1048.86 513.611 1048.93 515.931H1027.39C1010.75 515.931 1005.78 515.732 1005.51 515.135C1005.32 514.671 1006.04 511.755 1007.17 508.639L1007.27 508.363C1008.29 505.365 1009.16 502.798 1009.16 502.541C1009.16 502.209 1006.44 502.011 997.229 502.011V499.558C997.229 498.166 997.693 495.316 998.223 493.261C998.753 491.14 1000.01 488.024 1000.94 486.301C1001.87 484.511 1003.53 481.661 1004.59 479.805C1006.38 476.756 1006.51 476.093 1006.24 471.519C1006.04 468.802 1005.91 466.018 1005.85 465.421V460.251V455.478C1005.85 455.014 1005.98 453.556 1006.18 452.297C1006.44 450.772 1006.31 449.645 1005.71 449.115C1005.25 448.651 1004.12 448.319 1001.74 448.651L1001.87 473.508H995.24C988.678 473.508 988.612 473.508 989.009 475.032C989.208 475.828 989.672 478.546 990.136 480.998C990.932 485.506 990.932 485.572 989.274 486.765C988.346 487.428 985.828 488.29 983.64 488.621C981.453 488.952 976.68 489.151 973.034 489.019L972.786 489.01C969.222 488.88 965.657 488.751 964.815 488.621C963.291 488.422 963.158 488.687 962.429 493.062C962.031 495.647 961.435 498.1 961.236 498.564C960.971 498.961 960.374 499.359 959.91 499.359C959.512 499.426 958.651 498.895 957.988 498.232C957.391 497.569 956.662 495.581 956.397 493.725C956.132 491.935 955.933 489.88 955.999 489.284C956.065 488.621 955.933 488.091 955.601 488.091C955.336 488.091 954.209 488.488 953.149 489.085C951.691 489.814 949.371 490.079 944.532 490.013C940.886 489.947 935.981 489.483 933.595 489.019C931.208 488.488 928.822 487.627 928.292 487.096C927.43 486.235 927.43 485.439 928.093 481.926C928.491 479.672 929.021 477.021 929.618 474.171L916.692 473.839V461.245C916.692 450.374 916.559 448.651 915.698 448.85C915.167 448.982 914.438 449.446 914.173 449.844C913.908 450.308 913.842 451.7 914.04 452.959C914.239 454.219 914.372 455.611 914.372 455.942C914.306 456.274 914.173 458.262 913.974 460.251C913.775 462.239 913.908 464.228 914.239 464.559C914.571 464.891 914.637 465.819 914.306 466.548C914.04 467.277 913.775 469.928 913.709 472.514C913.643 476.756 913.842 477.352 915.631 479.474C916.758 480.733 918.415 483.318 919.343 485.108C920.205 486.964 921.464 490.676 921.995 493.394C922.591 496.111 922.989 499.094 922.856 500.022C922.658 501.613 922.392 501.679 917.222 502.011C914.239 502.21 911.654 502.541 911.455 502.872C911.257 503.137 912.184 505.855 913.51 508.971C915.565 513.611 915.896 514.804 915.167 515.467C914.571 516.063 908.738 516.328 893.492 516.461C874.137 516.593 872.546 516.527 872.148 515.467C871.883 514.737 872.413 512.285 873.408 509.633C874.336 507.048 875.264 504.463 875.529 503.867C875.86 502.806 875.33 502.673 863.664 502.342L863.796 498.564C863.929 496.443 864.592 492.863 865.387 490.61C866.116 488.29 868.038 484.644 872.281 478.479L872.48 470.194C872.612 465.62 872.678 461.311 872.678 460.582C872.678 459.853 872.546 456.738 872.347 453.622C872.082 450.507 871.883 447.391 871.883 446.662C871.817 445.403 870.889 445.27 837.812 442.95L835.956 441.028C834.962 439.901 834.167 438.443 834.167 437.714C834.167 436.985 834.1 435.725 833.968 434.93C833.835 434.068 834.034 432.345 834.299 431.085C834.564 429.826 834.896 426.71 835.095 424.125C835.293 421.54 836.221 416.966 837.149 413.851C838.077 410.736 839.867 405.963 841.193 403.245C843.38 398.871 845.104 396.749 869.298 372.423V270.211C869.298 179.731 869.165 167.932 868.304 167.932C867.508 167.932 867.309 167.004 867.309 163.292C867.309 160.044 867.574 158.652 868.105 158.586C868.569 158.52 869.563 158.453 870.292 158.387C871.485 158.321 871.618 157.724 871.949 152.024C872.214 147.119 872.745 144.732 874.137 141.418C875.131 139.032 876.258 136.513 876.589 135.784C876.921 135.055 877.782 133.132 878.445 131.475C879.174 129.818 880.964 125.576 882.489 122.063C883.947 118.483 885.206 115.368 885.206 115.103C885.206 114.771 885.869 112.915 886.731 110.927C887.526 108.938 888.852 106.154 889.714 104.829C890.907 102.774 891.57 102.31 893.161 102.31C894.287 102.31 895.679 102.84 896.276 103.503C896.873 104.099 898.066 106.154 898.861 107.944C899.723 109.8 900.85 112.915 901.38 114.904C901.91 116.893 904.098 122.726 906.285 127.83C908.406 132.934 911.058 139.164 914.04 146.39L914.372 110.595C914.703 79.375 914.902 74.1385 915.963 69.4985C916.626 66.5819 918.018 61.2128 919.012 57.5671C920.072 53.9214 921.398 49.7454 921.995 48.2872C922.658 46.8289 924.116 43.5146 925.309 40.9958C926.502 38.4769 929.22 33.373 931.275 29.7273C933.396 26.0816 937.108 20.4473 939.56 17.133C942.013 13.8188 945.592 9.77535 947.581 8.11822C949.569 6.46109 952.088 4.47252 953.149 3.74338Z" fill="#464646"/>
<path fill-rule="evenodd" clip-rule="evenodd" d="M960.639 3.54471C961.435 3.54471 962.694 4.20756 963.423 5.06927C964.152 5.8647 965.809 8.5824 967.002 11.1675C968.262 13.7527 970.052 18.6578 970.98 22.1046C971.908 25.5515 973.101 31.1857 973.631 34.5663C974.228 37.8805 974.692 41.0622 974.692 41.4599C974.692 42.1228 971.576 42.3217 961.236 42.3217C953.878 42.3217 944.731 42.5868 940.886 42.8519C937.041 43.1834 932.402 43.6474 930.612 43.9788C928.756 44.3765 927.231 44.5754 927.099 44.4428C927.032 44.3765 927.894 42.1891 929.154 39.6702C930.347 37.1514 932.998 32.18 935.053 28.7332C937.174 25.2863 940.753 20.0498 943.073 17.1332C945.393 14.2167 948.641 10.7698 950.232 9.44411C951.823 8.1184 954.475 6.19612 956.132 5.26813C957.789 4.34013 959.777 3.54471 960.573 3.54471L960.639 3.54471ZM966.804 5.53327C967.135 5.53327 968.858 6.66012 970.582 8.05211C972.372 9.44411 975.023 12.0955 976.481 13.8852C978.006 15.6749 980.591 19.1881 982.314 21.7732C984.038 24.3583 987.485 30.5229 990.07 35.5605C992.589 40.532 994.577 44.7742 994.445 44.9068C994.378 45.1056 993.119 44.9731 991.661 44.6416C990.202 44.3102 987.485 43.9125 985.695 43.6474C983.839 43.4485 981.055 43.1171 976.415 42.5868L975.487 36.82C975.023 33.6383 974.029 28.6669 973.366 25.7503C972.703 22.8338 971.51 18.5252 970.714 16.1389C969.985 13.7527 968.593 10.5047 967.732 8.84754C966.804 7.1904 966.141 5.79841 966.141 5.66584C966.141 5.59956 966.406 5.53327 966.804 5.53327ZM964.616 44.5091C972.04 44.5754 974.824 44.8405 975.023 45.4371C975.222 45.9011 975.553 48.0885 975.752 50.2759C975.951 52.4633 976.282 68.4381 976.481 85.7386C976.68 103.039 976.68 118.086 976.084 121.201L958.717 121.334C949.105 121.4 937.572 121.732 932.998 122.196C928.424 122.593 923.519 123.19 922.061 123.521C920.603 123.853 918.879 124.25 918.216 124.449C917.156 124.847 917.09 123.521 917.09 103.172C917.09 91.174 917.421 78.9112 917.752 75.7958C918.15 72.6804 919.078 67.7752 919.807 64.8587C920.603 61.9421 921.862 57.3022 922.79 54.5845C923.652 51.8668 924.845 49.1491 925.508 48.5525C926.171 47.9559 927.762 47.1605 929.021 46.7628C930.28 46.3651 932.667 45.8348 934.324 45.5696C935.981 45.3045 941.217 44.9068 945.924 44.7079C950.63 44.5091 959.115 44.3765 964.616 44.4428V44.5091ZM976.68 45.3708H979.994C981.85 45.3708 985.695 45.7022 988.479 46.1662C991.992 46.6965 994.113 47.4256 995.041 48.3536C995.837 49.0828 997.03 51.6016 997.825 53.9879C998.621 56.3742 999.814 60.6827 1000.54 63.5993C1001.27 66.5158 1002.27 71.4209 1002.73 74.5364C1003.33 78.5135 1003.53 86.6003 1003.19 124.582L1000.08 123.853C998.355 123.389 992.721 122.66 978.205 121.268L977.873 88.1249C977.674 69.8964 977.343 52.7948 977.144 50.1433L976.68 45.3708ZM1028.25 104.365C1028.71 104.365 1029.51 105.094 1030.04 105.889C1030.5 106.685 1031.56 109.336 1032.36 111.656C1033.09 114.042 1033.69 116.031 1033.55 116.097C1033.49 116.097 1030.97 116.296 1027.92 116.429C1024.6 116.561 1022.48 116.429 1022.48 115.965C1022.48 115.633 1023.08 113.711 1023.88 111.656C1024.6 109.668 1025.73 107.215 1026.33 106.221C1026.86 105.226 1027.72 104.365 1028.25 104.365ZM893.558 105.094C893.89 105.094 894.685 105.757 895.282 106.552C895.878 107.414 896.873 109.668 897.535 111.656C898.198 113.711 898.795 115.7 898.927 116.164C899.126 116.76 897.734 116.959 893.558 116.959C890.244 116.959 887.924 116.694 887.924 116.296C887.924 115.965 888.587 113.976 889.316 111.855C890.111 109.734 891.238 107.414 891.835 106.552C892.431 105.757 893.161 105.094 893.558 105.094ZM1028.78 117.754C1030.64 117.688 1032.62 118.02 1033.42 118.55C1034.15 119.08 1035.28 120.605 1035.87 122.063C1036.47 123.455 1038.79 128.824 1040.91 133.862C1043.03 138.966 1045.09 143.937 1045.35 144.799C1045.68 145.859 1045.68 146.323 1045.29 146.058C1044.95 145.793 1042.57 145.395 1040.05 145.13C1037.46 144.865 1032.09 144.666 1028.12 144.666C1024.07 144.666 1018.51 144.865 1015.66 145.064C1012.41 145.329 1010.55 145.263 1010.55 144.799C1010.55 144.467 1011.88 140.954 1013.53 137.043C1015.19 133.133 1017.51 127.697 1018.64 124.913C1019.77 122.196 1021.03 119.61 1021.36 119.213C1021.69 118.749 1022.75 118.285 1023.68 118.152C1024.67 117.953 1026.92 117.821 1028.78 117.754ZM893.426 118.351C896.011 118.351 898.463 118.55 898.861 118.815C899.193 119.08 899.855 120.074 900.319 120.936C900.717 121.864 901.711 123.985 902.374 125.576C903.103 127.233 905.224 132.271 907.08 136.712C908.936 141.153 910.461 144.998 910.461 145.13C910.461 145.329 908.605 145.263 906.285 144.998C904.031 144.733 897.999 144.467 892.895 144.467C887.791 144.467 881.892 144.733 879.771 144.998C877.716 145.263 875.993 145.329 875.993 145.13C875.993 144.998 877.451 141.352 879.174 137.043C880.964 132.735 883.151 127.498 884.013 125.377C884.875 123.256 886.267 120.804 887.129 119.942C888.454 118.484 889.183 118.351 893.426 118.351ZM960.175 122.461C965.478 122.394 971.245 122.593 976.415 123.256V142.346C976.415 152.819 976.282 161.436 976.084 161.436C975.885 161.436 975.222 160.575 974.625 159.58C974.029 158.586 972.372 156.465 970.98 154.808C969.588 153.217 967.268 151.03 965.809 149.969C963.953 148.643 962.362 148.113 960.507 148.113C958.717 148.113 957.126 148.643 955.535 149.837C954.276 150.765 952.287 152.621 951.16 154.013C950.033 155.338 947.846 158.387 946.255 160.707C944.731 163.094 941.88 168.33 939.958 172.307C937.969 176.351 935.782 181.852 935.053 184.57C934.324 187.354 932.932 193.784 932.004 198.821C931.076 203.925 930.015 212.609 929.684 218.044C929.352 223.546 928.756 229.644 928.358 231.633C928.027 233.688 926.966 239.918 926.038 245.553C925.176 251.253 923.784 259.738 923.055 264.444C922.26 269.217 921.531 273.857 921.398 274.718C921.266 275.646 920.338 281.347 919.41 287.312C918.482 293.344 917.554 298.581 917.421 298.912C917.288 299.31 917.156 260.732 917.09 126.968L919.211 125.974C920.404 125.51 923.784 124.714 926.701 124.317C929.618 123.853 936.18 123.256 941.284 122.991C946.388 122.792 954.872 122.527 960.175 122.461ZM977.277 122.925L979.53 122.991C980.724 122.991 984.966 123.256 989.009 123.654C992.986 123.985 997.825 124.781 999.747 125.311C1001.67 125.841 1003.26 126.57 1003.26 126.902C1003.26 127.3 1003.26 131.608 1003.26 136.513C1003.26 141.485 1003.26 179.4 1003.26 220.894C1003.26 262.389 1003.13 296.128 1003 295.93C1002.86 295.797 1001.47 288.307 1000.01 279.358C998.488 270.476 997.162 262.522 997.03 261.793C996.897 261.063 996.632 259.473 996.367 258.147C996.168 256.887 995.837 254.833 995.638 253.507C995.439 252.247 995.107 250.458 994.975 249.53C994.776 248.668 994.511 246.878 994.312 245.553C994.047 244.293 993.318 239.985 992.589 235.941C991.859 231.964 990.998 223.148 990.666 216.387C990.335 209.692 989.606 201.34 989.076 197.827C988.479 194.38 987.882 190.801 987.684 189.873C987.551 189.011 986.623 185.962 985.695 183.112C984.767 180.262 982.646 175.091 977.94 165.016L977.277 122.925ZM889.846 146.257C892.962 146.191 898.795 146.39 902.772 146.854C906.815 147.251 910.594 147.848 911.256 148.179C912.317 148.776 912.383 150.234 912.383 181.256L906.948 180.792C903.899 180.527 897.138 180.262 891.835 180.262C886.532 180.262 880.434 180.46 874.269 180.924V165.148C874.269 156.465 874.468 148.975 874.733 148.577C874.998 148.179 877.252 147.517 879.705 147.119C882.157 146.787 886.731 146.39 889.846 146.257ZM1029.71 146.522C1033.16 146.589 1037.93 146.854 1040.31 147.119C1042.7 147.384 1045.02 147.981 1045.48 148.378C1046.15 148.975 1046.35 152.886 1046.28 181.587L1043.63 181.123C1042.17 180.858 1037.2 180.46 1032.56 180.262C1027.85 179.996 1021.09 180.129 1017.45 180.527C1013.8 180.858 1010.29 181.322 1009.69 181.587C1008.56 181.919 1008.5 180.858 1008.43 149.107L1010.29 148.312C1011.35 147.848 1014.66 147.251 1017.78 146.986C1020.89 146.655 1026.26 146.456 1029.71 146.522ZM960.241 150.102C960.507 150.102 961.567 150.566 962.628 151.03C963.622 151.56 964.881 152.488 965.412 153.085C966.34 154.079 965.942 154.145 960.507 154.145C957.192 154.145 954.806 153.88 955.204 153.549C955.535 153.283 956.662 152.355 957.723 151.56C958.783 150.765 959.91 150.102 960.241 150.102ZM958.982 157.459C962.694 157.459 966.804 157.592 968.063 157.791C970.118 158.122 970.781 158.785 973.565 163.292C975.288 166.076 977.873 171.18 979.332 174.627C980.856 178.14 981.917 180.991 981.85 181.057C981.718 181.123 980.458 180.924 979 180.593C977.542 180.328 971.576 179.864 965.743 179.599C959.711 179.334 951.691 179.466 947.183 179.864C942.808 180.262 939.163 180.527 939.163 180.46C939.096 180.328 940.356 177.478 942.013 173.964C943.67 170.518 945.128 167.535 945.261 167.336C945.393 167.203 945.725 167.203 945.924 167.336C946.123 167.535 945.46 169.656 944.532 171.976C943.604 174.362 943.007 176.483 943.206 176.616C943.405 176.815 944.532 176.55 945.725 175.953C947.382 175.224 950.63 174.959 960.44 174.959C970.25 174.959 973.498 175.224 975.222 175.953C976.415 176.55 977.542 176.815 977.674 176.616C977.873 176.483 977.277 174.23 976.282 171.644C975.288 169.126 974.161 166.607 973.764 166.143C973.3 165.48 971.974 165.281 969.654 165.48C967.798 165.612 965.743 166.143 965.08 166.673C964.351 167.336 962.495 167.734 960.175 167.734C957.988 167.734 956.198 167.336 955.8 166.872C955.469 166.408 953.281 165.811 950.961 165.546C948.708 165.281 946.852 164.95 946.852 164.883C946.852 164.817 947.581 163.624 948.376 162.232C949.238 160.84 950.497 159.249 951.094 158.586C952.022 157.658 953.48 157.459 958.982 157.459ZM870.292 160.045C871.817 160.045 871.949 160.31 871.949 163.359C871.949 166.474 871.817 166.673 870.292 166.673C868.768 166.673 868.635 166.474 868.635 163.359C868.635 160.31 868.768 160.045 870.292 160.045ZM1050.59 160.045C1052.11 160.045 1052.25 160.31 1052.25 163.359C1052.25 165.48 1051.91 166.806 1051.45 166.938C1050.99 167.071 1050.19 167.071 1049.79 166.938C1049.26 166.806 1048.93 165.48 1048.93 163.359C1048.93 160.31 1049.06 160.045 1050.59 160.045ZM951.425 166.938C953.083 167.137 954.541 167.667 954.607 167.999C954.673 168.396 956.927 168.728 959.91 168.728C963.357 168.728 965.345 168.463 965.876 167.866C966.273 167.402 967.997 166.938 969.654 166.872C972.637 166.739 972.703 166.739 974.029 169.523C974.758 171.048 975.354 172.838 975.354 173.5C975.354 174.296 975.023 174.561 974.228 174.23C973.565 173.964 968.394 173.699 962.76 173.5C957.126 173.368 950.895 173.434 948.973 173.766C945.725 174.296 945.526 174.23 945.791 172.97C945.99 172.241 946.653 170.518 947.249 169.126C948.31 166.607 948.376 166.607 951.425 166.938ZM871.286 167.999C871.684 167.999 871.949 170.783 871.949 174.959C871.949 179.201 871.684 181.919 871.286 181.919C870.889 181.919 870.624 179.201 870.624 174.959C870.624 170.783 870.889 167.999 871.286 167.999ZM1049.59 168.662C1049.99 168.662 1050.26 171.313 1050.26 175.29C1050.26 179.267 1049.99 181.919 1049.59 181.919C1049.2 181.919 1048.93 179.267 1048.93 175.29C1048.93 171.313 1049.2 168.662 1049.59 168.662ZM958.452 180.726C962.826 180.659 969.72 180.924 973.697 181.322C977.741 181.72 981.519 182.316 982.182 182.648C982.911 183.046 983.706 185.167 984.568 189.077C985.297 192.259 986.225 196.965 986.623 199.484C987.021 202.069 987.551 208.3 988.28 222.485L985.629 222.021C984.17 221.822 979.53 221.358 975.354 221.093C971.178 220.762 962.362 220.696 955.8 220.828C949.238 221.027 941.947 221.425 939.56 221.756C937.174 222.088 934.523 222.552 933.595 222.75C931.938 223.082 931.938 223.016 932.136 218.906C932.203 216.652 932.6 212.344 932.998 209.427C933.329 206.511 934.257 201.009 934.987 197.164C935.782 193.386 936.776 188.614 937.307 186.559C937.837 184.57 938.5 182.714 938.765 182.449C939.03 182.184 941.748 181.654 944.863 181.388C947.979 181.057 954.077 180.792 958.452 180.726ZM894.818 182.25C902.109 182.383 909.069 182.78 912.383 183.907V252.513L908.87 252.115C907.014 251.916 900.187 251.717 893.823 251.717C887.46 251.717 880.5 251.916 878.445 252.115C875.065 252.513 874.667 252.446 874.402 251.187C874.269 250.458 874.203 235.08 874.203 216.984C874.269 198.888 874.534 183.775 874.8 183.51C875.131 183.178 876.788 182.714 878.445 182.515C880.169 182.25 887.526 182.118 894.818 182.25ZM1030.37 182.316C1036.4 182.449 1042.37 182.78 1045.95 183.642L1046.28 251.85H1008.5V218.376C1008.43 191.861 1008.63 184.769 1009.29 184.106C1009.76 183.642 1012.28 182.979 1014.79 182.648C1017.38 182.316 1024.34 182.184 1030.37 182.316ZM871.286 183.907C871.75 183.907 871.949 186.028 871.817 189.608C871.684 192.789 871.419 195.441 871.154 195.573C870.822 195.772 870.624 193.187 870.624 189.873C870.624 186.227 870.889 183.907 871.286 183.907ZM871.088 198.092C871.419 198.357 871.618 200.81 871.618 203.461C871.618 206.179 871.419 208.632 871.088 208.897C870.822 209.228 870.624 206.776 870.624 203.461C870.624 200.213 870.822 197.761 871.088 198.092ZM871.088 211.349C871.419 211.615 871.552 214.332 871.419 217.315C871.286 220.298 871.088 222.883 870.889 223.016C870.756 223.214 870.624 220.563 870.624 217.05C870.624 213.603 870.822 211.018 871.088 211.349ZM965.412 223.413C972.902 223.546 980.79 223.944 982.977 224.341C985.165 224.739 987.418 225.468 987.949 226.065C988.81 226.926 989.009 230.44 989.407 267.095L987.882 266.631C987.021 266.366 983.64 265.637 980.326 265.041C976.084 264.245 970.449 263.98 960.44 263.98C950.497 263.98 944.863 264.245 940.555 265.041C937.307 265.637 933.926 266.3 931.606 266.764V226.993L933.131 226.065C933.926 225.601 935.649 224.938 936.909 224.673C938.168 224.408 942.079 224.01 945.526 223.745C948.973 223.413 957.921 223.347 965.412 223.413ZM871.154 225.004C871.419 225.004 871.552 226.926 871.419 229.18C871.353 231.434 871.154 234.218 871.021 235.278C870.955 236.405 870.822 234.549 870.756 231.169C870.69 227.788 870.822 225.004 871.154 225.004ZM871.088 241.907C871.22 243.763 871.22 246.414 871.088 247.873C870.955 249.331 870.889 247.873 870.889 244.558C870.889 241.31 870.955 240.117 871.088 241.907ZM929.087 246.878C929.352 246.878 929.618 258.081 929.618 296.592H926.966C925.442 296.592 924.182 296.99 923.983 297.454C923.851 297.918 923.254 301.431 922.724 305.21C921.928 310.579 920.603 315.285 912.184 338.684L851.533 399.666L847.424 407.952C844.308 414.382 843.579 416.37 844.242 416.768C844.706 417.099 862.603 417.232 884.079 417.099C909.732 416.967 922.989 417.165 922.989 417.563C922.989 417.961 922.459 420.082 921.796 422.203C920.669 425.915 920.47 426.247 918.614 426.313C917.554 426.313 914.77 426.114 912.383 425.849C909.997 425.584 900.783 425.12 891.835 424.921C882.886 424.722 867.11 424.258 856.704 423.86C846.297 423.529 837.746 423.131 837.746 423.065C837.68 422.999 838.144 420.811 838.807 418.226C839.469 415.707 840.795 411.531 841.789 408.946C842.85 406.427 844.64 402.848 845.767 400.992C846.96 399.202 852.793 392.971 858.758 387.138C864.724 381.305 874.667 371.627 880.831 365.595C886.93 359.564 893.558 352.802 895.414 350.615C897.337 348.494 899.922 345.18 901.181 343.324C902.441 341.534 904.827 337.822 906.55 335.038C908.207 332.32 910.594 328.012 911.72 325.427C912.914 322.908 914.902 318.268 916.162 315.152C917.752 311.241 918.879 306.602 920.072 299.575C920.934 294.14 922.856 282.208 924.315 273.061C925.773 263.98 927.364 254.369 927.762 251.717C928.159 249.066 928.756 246.878 929.087 246.878ZM991.992 249.53C992.257 250.458 994.643 263.914 997.229 279.358C1000.08 296.394 1002.6 309.253 1003.53 311.838C1004.39 314.224 1005.71 317.671 1006.51 319.461C1007.3 321.317 1008.43 323.836 1009.03 325.095C1009.62 326.421 1011.75 330.265 1013.73 333.712C1015.72 337.225 1018.84 342.13 1020.76 344.649C1022.62 347.234 1035.14 360.359 1048.53 373.815C1061.92 387.337 1073.59 399.268 1074.38 400.329C1075.25 401.456 1076.7 403.842 1077.57 405.632C1078.49 407.488 1080.09 411.465 1081.01 414.448C1081.94 417.431 1082.74 420.679 1082.74 421.54C1082.74 423.131 1082.54 423.264 1077.96 423.529C1075.31 423.728 1068.49 423.993 1062.85 424.192C1057.22 424.391 1047.67 424.722 1041.64 424.987C1035.61 425.186 1027.26 425.517 1023.08 425.783C1018.84 426.048 1011.68 426.18 999.018 426.18L998.157 422.535C997.693 420.546 997.295 418.558 997.295 418.094C997.229 417.431 1005.71 417.232 1037.33 417.232C1059.4 417.232 1077.43 417.033 1077.43 416.768C1077.43 416.503 1076.57 414.448 1075.58 412.26C1074.52 410.139 1072.79 406.494 1071.8 404.306C1070.14 400.859 1066.17 396.683 1008.83 340.009L1004.06 326.421C1000.41 316.014 999.151 311.374 998.554 306.535C998.157 303.088 997.693 299.443 997.56 298.448C997.229 296.791 996.963 296.592 991.263 296.592L991.329 272.266C991.329 257.086 991.594 248.535 991.992 249.53ZM871.088 254.833C871.22 256.49 871.22 259.34 871.088 261.13C870.955 262.986 870.889 261.66 870.889 258.147C870.889 254.7 870.955 253.242 871.088 254.833ZM896.143 253.838C903.435 253.971 910.063 254.302 912.383 254.833V286.981L895.679 287.047C886.466 287.047 877.782 287.246 873.938 287.975L874.137 271.802C874.203 262.919 874.534 255.363 874.866 255.098C875.131 254.766 877.119 254.302 879.174 254.103C881.229 253.838 888.852 253.706 896.143 253.838ZM1028.71 253.772C1037.46 253.838 1045.02 254.103 1045.48 254.369C1046.08 254.766 1046.28 258.876 1046.28 287.975L1042.83 287.578C1040.91 287.312 1033.35 287.114 1026.06 287.18C1018.77 287.18 1011.81 287.379 1008.5 287.975L1008.83 254.567L1010.82 254.103C1011.94 253.838 1019.96 253.706 1028.71 253.772ZM871.088 268.753C871.22 270.41 871.22 273.26 871.088 275.05C870.955 276.906 870.889 275.58 870.889 272.067C870.889 268.62 870.955 267.162 871.088 268.753ZM959.115 266.234C962.031 266.234 968.129 266.433 972.703 266.83C977.277 267.162 982.182 267.825 983.64 268.222C985.098 268.62 986.954 269.415 989.208 271.073L989.274 348.295L987.816 348.03C986.954 347.831 982.712 347.168 978.337 346.572C972.106 345.776 967.135 345.644 955.137 345.909C946.785 346.108 938.566 346.572 936.909 346.969C935.252 347.367 933.396 347.831 932.799 348.03C931.672 348.295 931.606 346.174 931.606 310.048C931.606 274.453 931.672 271.669 932.733 270.41C933.396 269.681 935.583 268.686 937.572 268.156C939.56 267.692 944.068 267.029 947.515 266.83C950.961 266.565 956.198 266.3 959.115 266.234ZM871.088 283.004C871.22 284.86 871.22 287.511 871.088 288.97C870.955 290.428 870.889 288.97 870.889 285.655C870.889 282.407 870.955 281.214 871.088 283.004ZM896.806 289.036C904.098 289.102 910.594 289.434 911.256 289.632C912.251 289.964 912.383 291.223 912.383 303.552C912.383 316.147 912.251 317.472 910.925 320.654C910.13 322.576 908.141 326.487 906.55 329.404C904.959 332.32 901.977 337.225 899.922 340.341C897.867 343.39 893.161 348.958 882.886 359.497L873.938 359.895V325.294C873.938 298.316 874.137 290.56 874.8 290.163C875.197 289.898 877.385 289.5 879.572 289.235C881.759 288.97 889.515 288.903 896.806 289.036ZM1031.7 289.102C1038.06 289.301 1043.96 289.699 1046.28 290.627V359.563L1042.17 359.166C1038.26 358.768 1037.73 358.503 1034.02 355.122C1031.83 353.134 1028.45 349.687 1026.53 347.433C1024.6 345.18 1021.82 341.534 1020.3 339.346C1018.77 337.225 1015.52 331.458 1008.5 317.804V304.215C1008.5 294.074 1008.7 290.56 1009.36 290.163C1009.76 289.898 1012.41 289.5 1015.13 289.235C1017.84 288.97 1025.33 288.903 1031.7 289.102ZM871.088 295.93C871.22 297.587 871.22 300.437 871.088 302.227C870.955 304.083 870.889 302.757 870.889 299.244C870.889 295.797 870.955 294.339 871.088 295.93ZM929.618 297.918L929.684 404.969L927.298 408.946C925.972 411.134 924.779 413.652 924.315 415.906H884.875C863.2 415.906 845.435 415.707 845.435 415.442C845.435 415.177 847.026 411.796 852.262 400.992L912.914 340.009L915.565 332.718C917.09 328.741 919.277 322.643 920.536 319.129C921.796 315.683 923.188 310.91 923.519 308.524C923.917 306.204 924.447 302.823 924.646 301.1C925.044 298.051 925.11 297.918 929.618 297.918ZM991.263 297.918H993.583C995.041 297.918 996.035 298.316 996.234 298.912C996.433 299.509 996.566 300.901 996.566 302.094C996.566 303.287 997.03 306.469 997.56 309.187C998.024 311.971 1000.41 319.991 1007.17 340.009L1069.15 401.854L1072.33 408.548C1074.05 412.26 1075.31 415.442 1075.18 415.707C1075.05 415.972 1059.01 416.105 1039.52 416.105C1020.1 416.105 1002.47 416.039 996.566 415.906L995.174 412.791C994.445 411.067 993.251 408.88 992.522 407.952C991.263 406.361 991.197 404.903 991.263 352.14V297.918ZM871.088 309.849C871.22 311.507 871.22 314.291 871.088 316.147C870.955 317.936 870.822 316.611 870.822 313.164C870.822 309.717 870.955 308.192 871.088 309.849ZM871.088 323.769C871.22 325.427 871.22 328.211 871.088 330.066C870.955 331.856 870.822 330.531 870.822 327.084C870.822 323.637 870.955 322.112 871.088 323.769ZM871.088 338.021C871.22 339.81 871.22 342.528 871.088 343.986C870.955 345.445 870.822 343.986 870.822 340.672C870.822 337.358 870.955 336.165 871.088 338.021ZM871.088 350.946C871.22 352.604 871.22 355.388 871.088 357.243C870.955 359.033 870.822 357.707 870.822 354.261C870.822 350.814 870.955 349.289 871.088 350.946ZM962.429 348.626C972.504 348.825 980.525 349.223 982.977 349.753C985.231 350.217 987.551 351.079 988.148 351.609C989.274 352.537 989.341 354.526 989.208 401.655L986.756 401.124C985.364 400.859 981.718 400.329 978.669 399.998C975.553 399.666 966.273 399.335 958.12 399.335C949.901 399.401 941.085 399.666 938.566 399.998C935.981 400.329 933.396 400.727 932.733 400.926C931.672 401.323 931.606 399.865 931.606 377.461C931.606 362.878 931.871 353.068 932.269 352.272C932.6 351.543 933.727 350.615 934.721 350.217C935.716 349.82 938.632 349.223 941.217 348.958C943.736 348.626 953.281 348.494 962.429 348.626ZM1039.98 360.823L1042.97 361.287C1044.56 361.552 1046.01 361.751 1046.08 361.817C1046.15 361.883 1046.28 363.143 1046.41 364.667C1046.48 366.258 1046.41 367.451 1046.28 367.451C1046.08 367.385 1044.56 365.927 1042.97 364.071L1039.98 360.823ZM880.765 361.618L874.269 368.313L874.07 365.463C873.938 363.673 874.203 362.414 874.733 362.082C875.197 361.817 876.722 361.618 880.765 361.618ZM871.088 363.938C871.22 364.999 871.22 367.12 871.088 368.578C870.955 370.037 870.822 369.109 870.822 366.59C870.822 364.005 870.955 362.811 871.088 363.938ZM957.259 402.119C966.737 402.052 976.15 402.384 980.127 402.848C983.839 403.312 987.286 404.041 987.882 404.571C988.744 405.234 988.081 405.3 984.303 404.903C981.718 404.571 970.516 404.372 959.446 404.372C948.31 404.372 937.638 404.571 935.716 404.836C933.595 405.168 932.269 405.102 932.335 404.704C932.402 404.372 933.528 403.776 934.854 403.444C936.18 403.047 938.102 402.649 939.229 402.516C940.289 402.384 948.443 402.185 957.259 402.119ZM957.126 406.096C966.605 406.03 977.343 406.295 980.989 406.692C986.822 407.289 987.816 407.62 989.407 409.211C990.467 410.139 991.263 411.2 991.263 411.465C991.263 411.73 988.28 411.995 978.006 411.995L970.449 426.909L971.908 441.492C972.703 449.513 973.233 456.075 973.167 456.141C973.101 456.208 971.444 456.406 969.455 456.473C967.533 456.605 965.809 456.473 965.677 456.208C965.544 455.942 965.279 450.308 965.146 443.613C965.014 436.786 964.417 428.898 963.821 425.385C963.224 422.004 962.362 418.491 961.898 417.563C961.368 416.503 960.573 415.906 959.579 415.906C958.783 415.972 957.656 416.635 957.126 417.431C956.662 418.292 955.734 421.341 955.137 424.258C954.408 427.705 953.944 434.068 953.414 456.075L949.172 456.208C946.785 456.34 944.863 456.208 944.863 456.075C944.863 455.876 945.128 453.556 945.526 450.905C945.924 448.253 946.388 445.204 946.52 444.144C946.653 443.017 947.316 438.509 949.172 426.048L947.183 421.805C946.056 419.486 944.532 416.37 942.212 411.995H935.583C931.606 411.995 928.955 411.73 928.955 411.332C928.955 410.935 929.618 409.94 930.413 409.079C931.407 408.018 933.064 407.355 935.252 407.024C937.041 406.759 938.831 406.494 939.229 406.361C939.56 406.228 947.647 406.096 957.126 406.096ZM927.629 413.984H941.217L946.918 426.247L946.189 432.544C945.725 435.991 944.996 441.227 944.532 444.144C944.068 447.06 943.471 450.839 943.272 452.562C942.941 455.014 942.543 455.876 941.35 456.274C940.555 456.605 938.632 458.793 937.108 461.113C935.649 463.433 933.661 466.681 931.142 471.321L918.68 471.718L919.144 460.582C919.41 454.418 920.139 445.867 920.735 441.492C921.266 437.117 922.591 430.224 923.652 426.247C924.646 422.203 925.972 417.828 926.568 416.436L927.629 413.984ZM979.332 413.984H992.589L993.583 416.304C994.113 417.563 995.041 420.811 995.571 423.463C996.168 426.114 997.096 431.351 997.626 435.195C998.157 439.04 998.819 448.651 999.549 470.923L987.286 471.321L986.424 469.332C986.026 468.272 984.237 465.222 982.447 462.571C980.26 459.19 978.735 457.533 977.343 457.069C976.216 456.738 975.354 456.208 975.354 455.942C975.354 455.677 974.692 449.181 972.504 427.572L979.332 413.984ZM959.446 417.961C959.777 417.961 960.374 419.088 960.772 420.48C961.103 421.805 961.766 425.053 962.164 427.572C962.561 430.157 962.826 438.775 962.826 446.795C962.826 454.816 962.628 464.825 962.429 469.001C962.164 473.177 961.7 480.07 961.368 484.246C960.97 488.422 960.507 492.002 960.308 492.201C960.175 492.399 960.109 482.324 960.241 469.862C960.308 457.334 960.175 447.126 959.91 447.126C959.645 447.126 959.446 449.248 959.446 451.766C959.446 454.352 959.247 456.738 959.115 457.069C958.916 457.467 958.717 466.018 958.651 476.159C958.651 487.295 958.385 493.327 958.054 491.538C957.789 489.881 957.325 484.71 957.06 479.938C956.795 475.232 956.397 467.874 956.198 463.698C955.933 459.522 955.8 450.706 955.867 444.144C955.933 437.581 956.331 429.959 956.728 427.241C957.126 424.523 957.789 421.341 958.187 420.148C958.518 418.955 959.115 417.961 959.446 417.961ZM838.608 426.247C839.271 426.379 848.948 426.711 880.566 427.572V444.144L873.076 443.68C868.966 443.348 859.686 442.685 852.395 442.089C845.104 441.492 838.608 440.763 837.945 440.432C837.348 440.1 836.42 438.708 836.023 437.383C835.426 435.328 835.492 434.002 836.354 430.423C837.282 426.909 837.68 426.048 838.608 426.247ZM1080.68 426.114C1084.06 425.915 1084.06 425.915 1084.79 428.434C1085.26 429.76 1085.52 432.411 1085.52 434.201C1085.45 436.057 1084.92 438.178 1084.39 439.04C1083.86 439.835 1082.8 440.829 1082.07 441.161C1081.34 441.559 1071.87 442.42 1061 443.149C1050.19 443.879 1041.04 444.475 1040.78 444.475C1040.51 444.475 1040.31 440.763 1040.31 427.904L1042.1 427.837C1043.1 427.837 1044.82 427.705 1045.95 427.639C1047.01 427.506 1054.5 427.241 1062.52 426.909C1070.54 426.644 1077.1 426.445 1077.17 426.379C1077.24 426.313 1078.83 426.18 1080.68 426.114ZM903.7 428.368C912.317 428.832 919.41 429.296 919.476 429.362C919.608 429.495 919.078 433.472 917.222 446.795L913.974 446.729C912.184 446.729 909.069 446.53 907.08 446.265C905.026 446.066 899.524 445.536 894.818 445.138C890.045 444.674 886.134 444.343 886.002 444.276C885.935 444.21 885.869 441.028 885.803 437.184C885.737 433.339 885.67 429.76 885.604 429.097C885.538 428.5 886.068 427.904 886.797 427.771C887.46 427.705 895.083 427.97 903.7 428.368ZM883.218 427.904C883.615 427.904 883.881 431.351 883.881 436.852C883.881 442.42 883.615 445.801 883.218 445.801C882.754 445.801 882.555 442.42 882.555 436.852C882.555 431.351 882.754 427.904 883.218 427.904ZM1035.21 428.235L1035.28 436.123C1035.28 440.432 1035.14 444.21 1035.01 444.475C1034.81 444.74 1028.71 445.337 1021.42 445.801C1014.13 446.199 1006.64 446.663 1001.54 446.928L1000.48 438.244C999.946 433.472 999.482 429.495 999.482 429.428C999.482 429.362 1006.38 429.097 1014.79 428.898C1023.15 428.633 1030.17 428.301 1030.31 428.103C1030.5 427.97 1031.63 427.97 1035.21 428.235ZM875.264 448.452H893.161C902.971 448.452 911.124 448.717 911.256 448.982C911.389 449.248 911.389 450.706 911.058 455.081H875.264V448.452ZM1009.16 448.452H1044.95V454.418H1009.16V448.452ZM892.895 457.533C901.977 457.666 909.732 457.732 910.196 457.732C910.726 457.732 911.058 458.859 911.058 464.361H875.595V461.245C875.595 459.522 875.794 457.931 875.993 457.732C876.258 457.533 883.881 457.467 892.895 457.533ZM1009.16 457.069H1044.62L1044.42 464.029L1009.16 464.361V457.069ZM953.878 458.461C953.944 458.66 954.143 462.637 954.673 475.961L952.221 476.425C950.895 476.624 949.304 477.021 948.641 477.22C947.713 477.551 947.515 477.286 947.515 475.828C947.515 474.834 947.846 472.779 948.244 471.321C948.641 469.862 949.371 467.609 949.901 466.349C950.497 465.09 951.558 462.77 952.287 461.113C953.083 459.522 953.745 458.329 953.878 458.461ZM976.68 458.395L979 461.245C980.26 462.77 982.513 466.283 983.905 469.001C985.297 471.718 986.954 475.894 987.485 478.281C988.081 480.667 988.545 482.921 988.611 483.252C988.611 483.65 985.828 483.849 981.121 483.716C975.288 483.583 972.637 483.782 968.726 484.843C965.942 485.572 963.556 486.036 963.423 485.903C963.224 485.705 963.29 485.174 963.556 484.578C963.821 484.047 964.749 483.583 965.544 483.517C966.406 483.517 968.063 483.119 969.389 482.655C970.648 482.191 972.04 481.131 972.438 480.203C973.034 479.01 972.968 477.684 972.305 474.502C971.775 472.182 970.317 467.741 969.057 464.56C967.732 461.378 966.671 458.66 966.737 458.594C966.737 458.461 968.925 458.395 976.68 458.395ZM951.16 459.124L948.641 466.084C946.719 471.387 946.189 473.972 946.189 481.595L948.973 482.589C950.564 483.119 952.552 483.65 953.48 483.716C954.607 483.849 955.137 484.379 955.27 485.439C955.469 486.831 955.336 486.898 952.95 486.235C951.624 485.837 948.244 485.108 945.526 484.511C942.079 483.849 939.096 483.65 935.915 483.981C933.329 484.18 930.811 484.578 930.347 484.843C929.551 485.174 929.485 484.71 929.883 482.258C930.148 480.601 931.142 477.353 932.004 474.966C932.932 472.58 934.854 468.603 936.312 466.018C937.837 463.499 939.494 460.848 940.091 460.251C940.82 459.323 942.079 459.058 951.16 459.124ZM964.881 458.726L966.141 461.046C966.804 462.306 968.262 466.15 969.322 469.531C970.449 472.911 971.377 476.226 971.377 476.955C971.377 478.016 971.112 478.148 970.184 477.75C969.588 477.419 967.93 476.955 964.086 476.292V472.182C964.086 469.862 964.285 465.952 964.484 463.366L964.881 458.726ZM1044.56 466.681V472.182C1044.56 477.154 1044.49 477.618 1043.23 477.684C1042.5 477.75 1034.61 477.75 1025.67 477.75C1016.78 477.684 1009.43 477.618 1009.36 477.485C1009.29 477.419 1009.16 475.033 1009.09 472.315C1009.09 469.597 1009.03 467.145 1009.03 466.88C1009.03 466.614 1017.05 466.482 1044.56 466.681ZM875.529 467.012H910.991V478.281H875.529V467.012ZM953.281 477.684C954.541 477.618 954.74 477.949 954.74 479.938C954.74 481.926 954.541 482.258 953.281 482.258C952.42 482.258 950.829 481.993 949.636 481.595C948.443 481.263 947.382 480.534 947.316 479.938C947.249 479.341 948.045 478.745 949.503 478.347C950.763 478.015 952.42 477.75 953.281 477.684ZM965.279 477.618C965.876 477.618 967.334 477.883 968.527 478.281C969.72 478.678 970.648 479.407 970.648 479.938C970.648 480.468 969.72 481.263 968.527 481.595C967.334 481.993 965.677 482.258 964.881 482.258C963.821 482.258 963.357 481.86 963.357 480.932C963.357 480.203 963.556 479.142 963.754 478.612C963.953 478.082 964.682 477.618 965.279 477.618ZM1026.33 480.269V482.921C1026.33 484.379 1026.06 485.572 1025.67 485.572C1025.33 485.572 1025 486.036 1025 486.566C1025 487.097 1025.33 487.561 1025.67 487.561C1026.06 487.561 1026.33 488.754 1026.33 490.212C1026.33 491.67 1026.06 492.863 1025.67 492.863C1025.33 492.863 1025 493.327 1025 493.858C1025 494.388 1025.33 494.852 1025.67 494.852C1026.06 494.852 1026.33 495.913 1026.33 499.492H999.814L1000.21 497.039C1000.48 495.647 1000.94 493.46 1001.27 492.201C1001.67 490.941 1002.73 488.555 1003.66 486.898C1004.59 485.241 1006.04 483.119 1007.04 482.125C1008.7 480.269 1008.76 480.269 1026.33 480.269ZM1026.99 480.269H1046.54L1048.07 482.457C1048.86 483.65 1050.26 486.367 1051.18 488.555C1052.05 490.742 1053.04 494.123 1053.84 499.558L1026.99 499.492V493.195C1026.99 489.218 1027.26 487.03 1027.65 487.229C1028.05 487.428 1028.32 487.097 1028.32 486.566C1028.32 486.036 1028.05 485.705 1027.65 485.903C1027.26 486.102 1026.99 485.042 1026.99 483.252V480.269ZM873.938 480.932H892.233L892.1 500.155H866.249L866.779 496.377C867.11 494.255 868.105 490.875 868.966 488.886C869.894 486.898 871.419 484.313 872.281 483.119L873.938 480.932ZM913.046 480.932L915.035 483.385C916.095 484.777 917.421 487.229 918.018 488.886C918.548 490.477 919.211 493.593 920.006 499.492L917.355 499.558C915.896 499.625 909.997 499.757 904.23 499.89C898.463 500.022 893.757 499.89 893.757 499.625C893.757 499.359 893.625 498.034 893.426 496.642C893.161 494.653 893.293 494.255 894.155 494.521C894.685 494.719 895.149 494.454 895.149 493.858C895.149 493.261 894.818 492.797 894.42 492.665C894.022 492.598 893.558 491.538 893.426 490.345C893.227 488.886 893.426 488.091 894.155 487.892C894.685 487.693 895.149 487.097 895.149 486.566C895.105 485.903 894.707 485.705 893.956 485.97C893.028 486.301 892.895 486.102 893.293 484.777C893.558 483.915 893.757 482.722 893.757 482.059C893.823 480.998 894.685 480.932 913.046 480.932ZM979 484.313C979.332 484.246 981.585 484.578 983.972 484.975C986.424 485.373 987.949 485.903 987.617 486.235C987.22 486.5 985.43 487.03 983.64 487.362C981.784 487.693 977.741 488.025 974.692 488.157C971.576 488.223 968.262 488.025 967.4 487.693C965.743 487.097 965.809 487.03 968.394 486.235C969.853 485.705 972.637 485.108 974.692 484.843C976.68 484.644 978.602 484.379 979 484.313ZM940.555 485.241C943.471 485.439 947.316 486.036 949.172 486.633C952.088 487.561 952.287 487.759 951.16 488.356C950.299 488.82 946.785 488.953 942.212 488.687C937.837 488.489 933.396 487.958 931.938 487.362C929.419 486.434 929.352 486.367 930.943 485.97C931.805 485.771 933.197 485.439 933.926 485.307C934.655 485.108 937.638 485.108 940.555 485.241ZM1012.61 502.143L1041.31 502.077L1043.43 507.048C1044.62 509.832 1045.62 512.351 1045.62 512.749C1045.62 513.147 1039.78 513.412 1029.51 513.412C1020.69 513.412 1012.34 513.611 1010.95 513.876C1009.09 514.274 1008.43 514.141 1008.43 513.544C1008.43 513.08 1008.89 511.755 1009.43 510.562C1009.89 509.368 1010.82 506.982 1011.48 505.259L1012.61 502.143ZM878.644 502.806H908.075L909.997 507.976C911.124 510.76 912.118 513.346 912.184 513.611C912.251 513.876 903.833 514.075 874.601 514.075L875.926 510.296C876.722 508.175 877.65 505.656 877.981 504.662L878.644 502.806Z" fill="#FEFEFE"/>
<path d="M875.794 158.52C875.728 155.404 875.926 154.609 876.987 154.079C877.65 153.681 878.644 153.35 879.108 153.35C879.506 153.35 880.5 153.615 881.229 154.012C882.356 154.543 882.555 155.338 882.555 162.298H875.926L875.794 158.52Z" fill="#464646"/>
<path d="M1036.87 158.52C1036.8 155.736 1037 154.675 1037.73 154.476C1038.19 154.277 1039.32 154.079 1040.18 154.079C1040.98 154.012 1042.1 154.476 1042.63 155.007C1043.23 155.603 1043.63 157.26 1043.63 162.298H1037L1036.87 158.52Z" fill="#464646"/>
<path d="M951.691 200.942C951.823 197.628 951.889 197.562 954.475 196.7C955.933 196.302 957.457 195.905 957.921 195.838C958.518 195.772 958.651 196.833 958.385 199.617C958.187 201.672 957.921 203.594 957.723 203.925C957.59 204.19 956.132 204.389 951.492 204.389L951.691 200.942Z" fill="#464646"/>
<path d="M962.296 201.738C962.23 201.208 962.031 199.617 961.832 198.291C961.501 196.17 961.633 195.772 962.561 195.772C963.224 195.772 965.014 196.302 966.605 196.965C969.389 198.092 969.455 198.158 969.389 204.389H966.406C964.749 204.389 963.224 204.058 962.959 203.594C962.694 203.13 962.429 202.268 962.296 201.738Z" fill="#464646"/>
<path d="M940.555 203.395C941.483 202.467 943.803 201.009 945.725 200.081C947.581 199.153 949.371 198.424 949.702 198.424C949.967 198.424 950.365 198.888 950.564 199.418C950.829 199.948 950.829 201.406 950.63 202.6C950.365 204.124 949.636 204.986 948.244 205.715C946.785 206.444 946.123 207.306 945.857 208.897C945.526 210.952 945.46 211.018 938.897 211.018V208.035C938.897 205.715 939.295 204.654 940.555 203.395Z" fill="#464646"/>
<path d="M972.372 206.046C970.184 204.853 969.985 204.522 970.118 201.804L970.25 198.954L972.637 199.418C973.962 199.683 975.951 200.346 977.012 200.876C978.072 201.473 979.53 202.401 980.127 202.997C980.79 203.594 981.121 204.257 980.989 204.588C980.79 204.853 980.922 205.185 981.32 205.384C981.718 205.582 981.983 207.041 981.983 211.681H979.332C977.873 211.681 976.216 211.548 975.686 211.349C975.089 211.15 974.692 210.222 974.692 209.228C974.692 207.77 974.161 207.041 972.372 206.046Z" fill="#464646"/>
<path d="M951.359 212.741C951.293 211.548 951.492 210.355 951.823 210.09C952.088 209.825 953.679 209.626 958.12 209.626V214.929H954.806C951.492 214.929 951.492 214.929 951.359 212.741Z" fill="#464646"/>
<path d="M962.76 214.929V212.277V209.626H969.389V214.929H962.76Z" fill="#464646"/>
<path d="M877.119 158.122C877.053 156.73 877.318 155.338 877.583 155.073C877.915 154.808 878.777 154.675 879.572 154.808C880.633 154.94 880.898 155.537 881.097 157.857C881.229 160.575 881.163 160.641 879.241 160.641C877.385 160.641 877.252 160.442 877.119 158.122Z" fill="#FEFEFE"/>
<path d="M1039.32 160.972C1038.52 161.238 1038.33 160.707 1038.33 158.321C1038.33 155.471 1038.39 155.338 1040.31 155.338C1042.17 155.338 1042.3 155.471 1042.3 157.99C1042.3 159.912 1042.04 160.641 1041.31 160.641C1040.78 160.641 1039.85 160.774 1039.32 160.972Z" fill="#FEFEFE"/>
<path d="M952.022 201.075C951.956 199.352 952.287 198.888 954.209 198.092C955.469 197.562 956.662 197.164 956.993 197.098C957.258 197.098 957.457 197.761 957.457 198.623C957.457 199.418 957.325 200.744 957.126 201.605C956.861 202.799 956.33 203.064 954.474 203.064C952.353 203.064 952.154 202.865 952.022 201.075Z" fill="#FEFEFE"/>
<path d="M963.821 202.6C963.688 202.268 963.423 200.943 963.158 199.617C962.893 198.225 962.826 197.098 963.025 197.098C963.29 197.098 964.484 197.562 965.743 198.092C967.665 198.888 968.063 199.418 968.063 201.075C968.063 202.865 967.864 203.064 966.074 203.064C965.014 203.064 963.953 202.865 963.821 202.6Z" fill="#FEFEFE"/>
<path d="M941.217 203.992L944.532 202.202C946.388 201.274 948.177 200.479 948.641 200.412C949.105 200.412 949.371 201.208 949.304 202.202C949.238 203.461 948.641 204.191 947.515 204.655C946.454 205.052 944.996 205.052 941.217 203.992Z" fill="#FEFEFE"/>
<path d="M973.034 204.92C971.841 204.323 971.377 203.528 971.377 202.268C971.377 201.208 971.642 200.412 972.04 200.412C972.438 200.412 974.029 201.009 975.686 201.738C977.343 202.467 978.801 203.329 979 203.727C979.199 204.124 978.271 204.655 977.012 205.052C975.354 205.516 974.228 205.516 973.034 204.92Z" fill="#FEFEFE"/>
<path d="M942.212 210.355C940.555 210.355 940.223 210.09 940.223 208.698C940.223 207.571 940.621 207.041 941.416 207.041C942.013 207.041 943.14 207.372 943.803 207.836C944.465 208.3 944.863 209.096 944.664 209.56C944.399 209.957 943.272 210.355 942.212 210.355Z" fill="#FEFEFE"/>
<path d="M976.216 209.228C976.084 208.764 976.68 208.101 977.542 207.77C978.337 207.372 979.398 207.107 979.862 207.107C980.259 207.041 980.657 207.77 980.657 208.698C980.657 210.156 980.392 210.355 978.536 210.222C977.409 210.09 976.349 209.626 976.216 209.228Z" fill="#FEFEFE"/>
<path d="M955.137 214.332C953.082 214.332 952.817 214.133 952.817 212.675C952.817 211.217 953.082 211.018 955.137 211.018C957.192 211.018 957.457 211.217 957.457 212.675C957.457 214.133 957.192 214.332 955.137 214.332Z" fill="#FEFEFE"/>
<path d="M966.273 214.2C964.351 214.332 964.086 214.133 964.086 212.675C964.086 211.217 964.351 211.018 966.406 211.018C968.394 211.018 968.726 211.217 968.593 212.542C968.461 213.669 967.93 214.067 966.273 214.2Z" fill="#FEFEFE"/>
<path d="M628.667 571.256C633.552 568.813 642.102 565.353 647.801 563.928C653.297 562.299 664.9 560.875 673.246 560.875C681.796 560.875 694.009 562.3 700.727 564.132C707.444 565.964 716.604 570.035 721.083 572.885C725.561 575.938 732.482 582.045 736.349 586.319C740.421 590.798 745.917 598.737 748.563 604.029C752.838 612.375 754.263 613.8 757.723 612.579C759.962 611.764 765.051 610.543 768.919 609.729C772.787 608.915 778.69 608.915 782.15 609.729C785.407 610.543 791.31 614.207 794.771 617.464C798.435 620.925 802.303 627.235 803.524 631.51C804.542 635.581 805.56 641.077 805.56 643.723C805.56 646.166 807.188 648.812 809.02 649.423C811.056 650.034 814.109 651.458 815.738 652.476C817.366 653.494 821.234 655.326 824.287 656.344C827.544 657.565 829.987 659.804 829.987 661.433C829.987 663.061 831.615 665.097 833.447 665.911C835.483 666.725 838.74 668.761 840.775 670.593C842.607 672.222 844.236 675.071 844.236 676.7C844.236 678.735 842.607 678.125 838.74 674.257C835.483 671.407 829.376 667.133 824.898 664.893C820.419 662.451 812.684 660.008 807.595 659.397C802.099 658.379 793.753 658.99 787.239 660.415C781.133 661.84 772.583 665.301 768.308 667.947C764.237 670.39 758.13 675.682 754.67 679.346C751.413 682.807 748.156 687.489 747.545 689.524C746.731 692.374 745.713 692.577 740.828 690.949C737.774 689.728 733.093 689.117 730.243 689.728C727.393 690.338 723.322 692.781 717.011 699.091L713.347 690.542C711.312 685.656 706.63 678.125 702.966 673.646C699.302 669.168 692.381 663.265 687.292 660.619C679.964 656.547 675.485 655.53 663.068 655.733C649.837 655.733 646.173 656.547 636.605 661.84C630.499 665.301 621.542 672.222 616.86 676.903C612.178 681.789 606.886 687.692 605.257 689.931C603.629 692.17 600.372 699.498 598.133 706.216C595.69 713.137 593.858 722.297 594.672 736.75L604.85 731.864C613.603 727.793 617.267 727.183 628.463 728.2C636.198 728.811 644.748 731.05 649.226 733.493C653.501 735.936 656.961 738.175 656.961 738.785C656.961 739.396 651.669 739.193 645.155 738.582C638.641 737.768 629.277 738.175 623.374 739.6C617.471 741.025 608.921 745.096 592.84 757.716L585.716 749.778C581.848 745.503 575.334 741.025 571.466 740.007C567.599 738.785 560.881 737.768 549.075 737.768L551.925 731.254C553.96 726.368 554.367 722.094 552.943 715.376C551.925 709.88 549.075 703.977 545.614 700.516C540.729 695.631 539.915 692.781 539.304 681.178C538.897 672.832 536.861 663.876 534.215 657.769C530.551 649.83 527.905 647.184 520.984 643.927C514.063 640.873 511.009 640.466 505.31 642.095C501.238 643.316 496.149 646.98 493.3 650.848C490.653 654.308 487.804 659.601 486.989 662.451C486.175 665.3 484.75 667.947 484.139 668.557C483.325 669.168 481.9 672.629 480.679 676.293C479.051 682.196 477.422 683.621 468.465 686.471C462.562 688.303 455.438 692.17 452.384 695.02C449.331 697.87 445.26 703.773 439.764 716.394L437.321 710.287C436.099 707.03 435.489 700.923 435.692 697.056C436.099 693.188 437.728 687.692 439.153 684.842C440.781 681.992 443.835 678.328 446.074 676.293C448.517 674.461 449.941 672.425 449.331 671.814C448.72 671.204 445.056 670.186 441.188 669.372C435.692 668.557 432.435 669.372 426.939 673.036C423.072 675.682 417.983 681.585 415.947 685.86C413.911 690.338 412.079 697.87 411.876 702.552C411.672 707.437 411.265 711.305 410.655 711.305C410.044 711.305 408.619 710.287 407.601 709.066C406.38 707.844 399.052 707.234 388.263 707.641C374.625 708.252 369.128 709.473 362.004 713.34C356.915 716.19 352.64 719.651 352.233 721.076C351.826 722.297 353.658 723.926 356.101 724.536C358.747 724.943 366.075 728.2 372.385 731.661C378.899 734.918 384.192 738.582 384.192 739.803C384.192 741.025 378.696 741.839 371.978 741.839C364.65 741.839 355.49 743.467 348.976 745.91C343.276 748.149 338.187 749.981 337.78 749.981C337.577 749.981 336.966 747.946 336.559 745.503C335.948 742.45 332.691 739.396 326.788 736.75C321.903 734.511 314.371 732.679 309.893 732.882C303.786 732.882 300.529 731.457 296.661 727.59C293.811 724.74 289.13 721.279 285.873 719.854C282.819 718.43 277.934 717.412 274.677 717.412C271.624 717.412 266.127 719.244 262.463 721.483C258.596 723.926 254.321 729.218 251.878 734.714C249.436 740.21 248.418 745.706 249.028 748.556C250.25 752.22 250.046 752.627 247.604 750.592C245.975 749.167 238.24 746.521 230.505 744.892C222.566 743.264 213.406 741.839 210.149 741.839C206.688 741.839 202.617 742.857 200.988 743.874C198.342 745.503 198.546 745.91 201.396 745.91C203.431 745.91 207.095 747.131 209.538 748.556C211.981 749.778 216.052 753.238 218.495 756.088C220.937 758.938 222.973 761.381 222.769 761.584C222.566 761.788 217.273 760.566 211.166 758.938C205.06 757.309 192.643 756.088 183.686 756.292C169.437 756.495 165.569 755.681 153.152 749.981C142.567 745.096 135.035 743.06 123.636 742.45C114.679 741.839 103.28 742.449 96.1554 743.874C88.2166 745.706 80.8884 748.963 75.1888 753.442C70.5069 757.106 66.0286 759.752 65.0108 759.141C64.1966 758.531 64.6037 754.256 68.4713 740.821L52.7973 742.042C41.3979 742.857 34.0698 744.689 14.7317 754.46L3.53589 750.999C-4.81004 748.353 -11.3239 747.742 -21.909 748.556C-29.8478 749.167 -40.84 751.61 -46.3361 753.849C-53.4607 756.699 -62.2138 757.92 -75.8522 758.327C-86.4373 758.531 -102.926 757.513 -112.493 756.292C-122.06 755.07 -136.716 752.831 -145.062 751.61C-153.408 750.388 -161.551 748.76 -162.772 748.149C-164.604 747.335 -163.993 744.892 -160.329 739.396C-157.48 735.121 -153.612 731.457 -151.78 731.457C-149.744 731.254 -134.477 731.05 -117.582 730.847C-87.3493 730.644 -86.8474 730.441 -67.8942 722.779L-67.7099 722.704C-57.1248 718.429 -44.3005 713.748 -39.2116 712.119C-34.1226 710.694 -24.1482 709.269 -16.82 709.269C-7.25276 709.269 -0.738861 710.694 6.58928 713.951C12.0854 716.597 18.1922 720.465 19.8206 722.704C21.4491 725.147 24.2989 727.386 25.9274 727.997C27.7594 728.404 31.22 726.165 34.0698 722.704C36.9196 719.447 42.2122 715.58 45.6727 713.951C49.3367 712.526 56.6649 711.305 61.9574 711.305C67.4535 711.305 75.5959 713.137 89.0308 719.447L97.5803 711.712C102.466 707.437 110.812 701.738 116.511 699.091C124.45 695.224 129.946 694.002 140.938 694.002C151.931 694.002 157.223 695.02 164.348 698.684C169.437 701.331 176.358 706.42 180.022 709.88C183.482 713.544 186.739 715.58 187.146 714.358C187.35 713.137 191.421 709.88 195.899 706.827C200.378 703.773 208.927 699.295 214.627 697.056C220.53 694.817 230.708 692.374 237.018 691.763C244.754 691.153 252.285 691.763 259.003 693.799C264.499 695.427 270.606 696.242 272.234 695.427C274.677 694.41 274.88 694.817 273.252 697.056C271.827 699.295 271.827 699.702 273.863 698.684C275.084 697.666 276.305 694.613 276.305 691.56C276.305 688.303 277.323 684.232 278.748 682.4C280.173 680.364 285.058 677.514 289.537 675.886C294.015 674.257 298.493 673.443 299.511 674.257C300.529 675.071 300.529 672.629 299.511 668.557C298.493 664.69 297.883 658.176 297.883 654.308C297.883 650.441 298.493 643.723 299.308 639.652C300.122 635.174 303.786 628.456 307.857 623.774C311.725 619.296 315.389 616.243 315.999 617.261C316.61 618.075 317.424 617.057 318.035 615.225C318.646 613.189 319.867 611.968 321.088 612.579C322.106 613.189 323.124 612.782 323.124 611.561C323.124 610.339 324.549 609.932 326.177 610.543C327.806 611.154 329.231 610.95 329.231 610.136C329.231 609.118 330.859 608.304 332.691 608.1C334.727 607.897 341.241 607.49 347.144 607.083C353.251 606.675 358.543 607.083 358.951 608.1C359.358 608.915 361.393 609.525 363.225 609.525C365.261 609.525 372.385 611.968 379.103 614.818C385.82 617.668 392.538 620.517 394.166 621.332C395.591 622.146 396.609 621.942 396.405 620.721C395.998 619.5 396.813 615.836 398.237 612.579C399.662 609.322 403.123 604.029 406.176 600.772C409.23 597.719 414.929 594.258 418.797 593.037C422.665 591.816 428.568 591.408 432.028 592.019C435.285 592.833 441.596 595.887 445.667 598.94C449.942 601.994 452.588 605.251 451.774 606.065C450.959 607.083 451.977 607.286 453.809 606.675C455.845 606.065 457.88 603.826 458.491 601.994C458.898 599.958 462.155 595.887 465.616 592.833C468.872 589.576 475.183 585.098 479.254 582.655C485.157 579.398 490.653 578.381 502.256 578.177C514.877 577.974 519.559 578.991 528.719 583.47C535.436 586.523 542.561 592.223 546.429 597.108C550.093 601.79 553.146 606.065 553.146 607.083C553.146 607.897 554.367 610.339 555.996 612.579C558.846 616.65 559.049 616.65 563.731 612.172C566.377 609.729 571.67 607.083 575.538 606.675C580.016 605.861 584.291 606.675 586.733 608.507C588.972 610.136 591.619 611.561 592.84 611.561C593.858 611.561 597.115 607.083 599.965 601.179C602.815 595.48 608.311 587.541 612.382 583.47C616.453 579.195 623.781 573.902 628.667 571.256Z" fill="white"/>
<path d="M521.612 644.13C517.133 642.095 512.452 640.263 511.434 640.263C510.212 640.263 506.345 641.688 502.884 643.113C499.424 644.537 494.742 648.405 492.503 651.662C490.264 654.919 487.821 659.804 487.007 662.654C485.989 665.301 484.768 668.15 483.953 668.761C483.139 669.168 481.714 672.832 480.696 676.496C479.068 682.196 477.236 683.824 468.279 686.674C462.58 688.506 455.455 692.374 452.198 695.224C449.145 697.87 445.073 703.977 443.241 708.455L439.577 716.598C436.117 707.03 435.303 701.127 435.71 697.259C436.117 693.188 437.542 687.692 439.17 685.046C440.595 682.196 443.852 678.328 446.091 676.496C448.33 674.664 449.755 672.629 449.348 672.018C448.737 671.407 444.666 670.186 440.392 669.575C433.878 668.557 431.231 669.372 426.142 673.239C422.682 675.886 418 681.585 415.964 686.064C413.725 690.542 411.893 698.074 411.893 702.755C411.69 707.641 411.079 711.509 410.672 711.509C410.061 711.509 408.636 710.491 407.619 709.269C406.194 707.844 399.069 707.437 388.28 707.844C374.642 708.455 368.942 709.676 361.818 713.544C356.932 716.394 352.658 719.651 352.25 721.076C351.843 722.501 353.675 724.129 356.118 724.536C358.561 725.147 365.889 728.404 372.403 731.661C378.917 735.121 384.209 738.785 384.209 740.007C384.209 741.025 378.713 742.042 371.996 742.042C364.667 742.042 355.304 743.671 348.993 746.114C343.09 748.353 338.001 750.185 337.798 750.185C337.594 750.185 336.983 748.149 336.373 745.503C335.762 742.45 332.505 739.6 326.805 736.953C321.92 734.714 314.388 732.882 309.91 732.882C303.803 732.882 300.343 731.661 296.679 727.793C293.829 724.943 288.943 721.483 285.89 720.058C282.837 718.633 277.748 717.615 274.694 717.615C271.641 717.615 266.145 719.447 262.481 721.686C258.613 724.129 254.338 729.422 251.896 734.918C249.249 740.414 248.232 745.91 249.046 748.556C250.064 752.424 249.86 752.831 247.621 750.592C245.992 749.371 238.257 746.724 230.522 745.096C222.583 743.467 213.423 742.042 210.166 742.042C206.705 742.042 202.634 742.857 201.006 744.078C198.36 745.706 198.36 745.91 201.413 746.114C203.449 746.114 206.909 747.131 209.352 748.556C211.794 749.981 215.866 753.442 218.512 756.292C220.955 758.938 222.787 761.584 222.583 761.788C222.38 761.991 217.291 760.77 211.184 759.141C204.873 757.513 192.66 756.292 183.703 756.495C169.251 756.495 165.586 755.884 153.169 749.981C142.584 745.299 134.849 743.264 123.653 742.45C114.697 741.839 103.297 742.653 96.1727 744.078C88.2339 745.91 80.9058 749.167 75.2061 753.442C70.5243 757.309 65.8424 759.752 65.0282 759.345C64.2139 758.734 64.621 754.256 66.046 749.574L68.4887 741.025C41.4153 743.06 34.0872 744.892 25.9448 748.963L14.749 754.663C-4.79266 748.353 -11.3066 747.742 -21.8916 748.76C-29.8305 749.371 -40.8227 751.813 -46.3188 753.849C-53.2398 756.699 -62.4 758.124 -74.8171 758.327C-84.995 758.734 -102.298 757.716 -113.493 756.292C-124.689 754.867 -140.77 752.627 -149.116 750.999C-157.666 749.574 -164.79 748.76 -164.994 749.167C-165.197 749.371 -160.312 751.406 -153.798 753.238C-147.284 755.07 -132.424 758.734 -120.618 761.381C-109.015 764.027 -88.8627 767.691 -75.8349 769.523C-59.143 771.966 -44.2832 772.78 -23.9272 771.966C3.3497 771.151 4.97818 771.355 14.749 776.24C20.2451 778.887 29.4053 782.551 35.105 783.976C40.6011 785.401 49.9648 786.825 55.868 786.825C61.7712 786.825 70.9314 785.401 76.2239 783.569C85.3841 780.515 85.9948 780.515 87.8268 783.976C88.8446 786.011 93.1194 791.304 96.987 795.578C101.058 799.853 107.368 804.332 111.44 805.553C115.307 806.774 122.635 807.589 127.724 807.589C133.831 807.453 141.295 805.078 150.116 800.464L163.347 793.543C198.767 813.695 200.802 814.306 214.237 814.306C225.229 814.102 230.725 813.085 238.461 809.217C243.957 806.367 251.692 800.871 255.356 797.003C259.224 792.932 264.109 786.418 266.348 782.144C270.216 774.612 270.216 774.612 276.73 777.462C280.394 778.887 287.111 780.922 291.59 781.533C296.068 782.347 304.821 781.94 311.335 780.719C317.849 779.701 327.009 776.851 331.691 774.612C336.373 772.373 340.648 770.541 340.851 770.541C341.055 770.541 341.869 773.391 342.683 777.055C343.294 780.719 345.94 787.436 348.383 791.914C351.029 796.393 356.729 802.5 361.003 805.349C365.278 808.403 373.828 812.27 380.138 814.102C386.245 815.934 398.051 817.359 406.601 817.359C414.947 817.156 427.364 815.731 434.081 814.102C440.799 812.27 451.18 807.996 457.491 804.739C463.597 801.278 470.722 796.8 473.165 794.561C477.643 790.897 477.846 790.897 487.414 795.986C495.963 800.668 499.017 801.278 512.452 800.464C520.797 800.057 529.143 799.039 531.179 798.225C534.029 797.207 535.657 798.835 538.507 805.553C540.543 810.438 545.428 817.766 549.092 822.245C552.96 826.52 560.899 833.237 566.802 836.901C572.705 840.769 584.308 846.061 592.857 848.911C603.85 852.575 612.399 854 623.799 854C632.552 854 644.562 852.575 650.872 850.743C656.979 848.911 667.564 844.433 674.281 840.769C680.999 837.105 691.177 829.166 696.876 823.059C702.78 816.952 708.479 808.606 710.108 803.721C712.55 795.986 713.365 795.375 717.029 797.411C719.268 798.428 727.41 799.243 735.349 798.835C746.545 798.225 751.634 796.8 757.741 792.729C762.83 789.472 767.511 783.976 770.361 778.072C772.804 772.78 775.043 765.655 775.043 762.398C775.043 758.938 775.247 756.292 775.45 756.292C775.654 756.088 779.114 757.716 783.185 759.549C788.274 761.991 793.567 762.602 802.524 761.991C809.241 761.381 819.215 758.938 824.915 756.495C830.411 754.052 837.536 749.574 840.589 746.521C843.846 743.467 848.324 735.936 850.564 729.829C853.413 722.501 854.838 713.341 855.042 703.366C855.042 691.763 854.024 685.86 850.971 678.939C848.528 673.85 843.643 666.725 839.775 663.265C836.111 659.804 829.393 654.919 824.915 652.68C820.437 650.441 813.923 647.794 810.666 646.98C805.984 645.962 804.966 646.166 805.984 647.998C806.798 649.219 809.038 650.441 811.073 650.237C813.109 650.237 815.958 651.662 817.791 653.291C819.419 655.123 822.88 656.955 825.322 657.565C827.765 658.176 830.004 659.804 830.004 661.636C830.004 663.265 831.429 665.301 833.465 666.115C835.5 666.929 838.757 668.965 840.589 670.593C842.625 672.425 844.253 675.071 844.253 676.903C844.253 678.939 842.625 678.328 838.554 674.461C835.5 671.407 829.393 667.133 824.915 664.893C820.437 662.654 812.498 660.212 807.613 659.397C802.117 658.583 793.771 659.194 787.257 660.619C780.946 662.044 772.6 665.301 768.326 667.947C764.051 670.593 757.944 675.682 754.687 679.346C751.227 683.01 748.173 687.692 747.563 689.524C746.545 692.578 745.527 692.781 740.845 690.949C737.792 689.931 732.906 689.321 730.26 689.931C727.41 690.542 723.339 692.985 721.1 695.224L717.029 699.295C711.125 685.86 706.647 678.328 702.983 673.85C699.319 669.372 692.194 663.469 687.309 660.619C679.981 656.751 675.503 655.733 663.085 655.733C649.854 655.937 646.19 656.751 636.623 662.044C630.312 665.504 621.559 672.222 616.674 677.107C611.992 681.992 606.903 687.896 605.275 690.135C603.646 692.374 600.389 699.702 597.946 706.42C595.504 713.341 593.875 722.501 594.079 727.793L594.486 736.953C613.621 727.997 617.285 727.386 628.48 728.2C636.216 729.015 644.765 731.05 649.243 733.696C653.518 735.936 656.979 738.378 656.979 738.989C656.979 739.396 651.686 739.396 645.172 738.582C638.455 737.971 629.091 738.378 623.391 739.803C617.285 741.228 608.939 745.299 603.035 749.981L592.857 757.717C581.662 745.707 575.351 741.228 571.484 740.007C567.413 738.989 560.899 737.971 556.624 737.971H549.092C553.978 726.368 554.181 722.297 552.96 715.58C551.942 709.88 548.889 704.18 545.632 700.72C540.746 695.631 539.729 692.985 539.118 681.382C538.711 672.832 536.879 663.876 534.029 657.769C530.772 650.441 527.719 647.184 521.612 644.13Z" fill="#FFC3C2"/>
<path d="M-105.351 731.254C-99.8549 730.847 -103.926 730.44 -114.511 730.44C-125.3 730.44 -129.778 730.847 -124.689 731.254C-119.804 731.661 -111.051 731.661 -105.351 731.254Z" fill="#FFC3C2"/>
<path d="M1291.72 571.256C1286.84 568.813 1278.29 565.353 1272.59 563.928C1267.09 562.299 1255.49 560.875 1247.14 560.875C1238.59 560.875 1226.38 562.3 1219.66 564.132C1212.94 565.964 1203.78 570.035 1199.31 572.885C1194.83 575.938 1187.91 582.045 1184.04 586.319C1179.97 590.798 1174.47 598.737 1171.82 604.029C1167.55 612.375 1166.12 613.8 1162.66 612.579C1160.43 611.764 1155.34 610.543 1151.47 609.729C1147.6 608.915 1141.7 608.915 1138.24 609.729C1134.98 610.543 1129.08 614.207 1125.62 617.464C1121.95 620.925 1118.09 627.235 1116.86 631.51C1115.85 635.581 1114.83 641.077 1114.83 643.723C1114.83 646.166 1113.2 648.812 1111.37 649.423C1109.33 650.034 1106.28 651.458 1104.65 652.476C1103.02 653.494 1099.15 655.326 1096.1 656.344C1092.84 657.565 1090.4 659.804 1090.4 661.433C1090.4 663.061 1088.77 665.097 1086.94 665.911C1084.9 666.725 1081.65 668.761 1079.61 670.593C1077.78 672.222 1076.15 675.071 1076.15 676.7C1076.15 678.735 1077.78 678.125 1081.65 674.257C1084.9 671.407 1091.01 667.133 1095.49 664.893C1099.97 662.451 1107.7 660.008 1112.79 659.397C1118.29 658.379 1126.63 658.99 1133.15 660.415C1139.26 661.84 1147.8 665.301 1152.08 667.947C1156.15 670.39 1162.26 675.682 1165.72 679.346C1168.97 682.807 1172.23 687.489 1172.84 689.524C1173.66 692.374 1174.67 692.577 1179.56 690.949C1182.61 689.728 1187.3 689.117 1190.15 689.728C1192.99 690.338 1197.07 692.781 1203.38 699.091L1207.04 690.542C1209.08 685.656 1213.76 678.125 1217.42 673.646C1221.09 669.168 1228.01 663.265 1233.1 660.619C1240.42 656.547 1244.9 655.53 1257.32 655.733C1270.55 655.733 1274.22 656.547 1283.78 661.84C1289.89 665.301 1298.85 672.222 1303.53 676.903C1308.21 681.789 1313.5 687.692 1315.13 689.931C1316.76 692.17 1320.02 699.498 1322.26 706.216C1324.7 713.137 1326.53 722.297 1325.72 736.75L1315.54 731.864C1306.78 727.793 1303.12 727.183 1291.92 728.2C1284.19 728.811 1275.64 731.05 1271.16 733.493C1266.89 735.936 1263.43 738.175 1263.43 738.785C1263.43 739.396 1268.72 739.193 1275.23 738.582C1281.75 737.768 1291.11 738.175 1297.01 739.6C1302.92 741.025 1311.47 745.096 1327.55 757.716L1334.67 749.778C1338.54 745.503 1345.05 741.025 1348.92 740.007C1352.79 738.785 1359.51 737.768 1371.31 737.768L1368.46 731.254C1366.43 726.368 1366.02 722.094 1367.45 715.376C1368.46 709.88 1371.31 703.977 1374.77 700.516C1379.66 695.631 1380.47 692.781 1381.08 681.178C1381.49 672.832 1383.53 663.876 1386.17 657.769C1389.84 649.83 1392.48 647.184 1399.4 643.927C1406.33 640.873 1409.38 640.466 1415.08 642.095C1419.15 643.316 1424.24 646.98 1427.09 650.848C1429.73 654.308 1432.58 659.601 1433.4 662.451C1434.21 665.3 1435.64 667.947 1436.25 668.557C1437.06 669.168 1438.49 672.629 1439.71 676.293C1441.34 682.196 1442.97 683.621 1451.92 686.471C1457.83 688.303 1464.95 692.17 1468 695.02C1471.06 697.87 1475.13 703.773 1480.62 716.394L1483.07 710.287C1484.29 707.03 1484.9 700.923 1484.7 697.056C1484.29 693.188 1482.66 687.692 1481.23 684.842C1479.61 681.992 1476.55 678.328 1474.31 676.293C1471.87 674.461 1470.45 672.425 1471.06 671.814C1471.67 671.204 1475.33 670.186 1479.2 669.372C1484.7 668.557 1487.95 669.372 1493.45 673.036C1497.32 675.682 1502.41 681.585 1504.44 685.86C1506.48 690.338 1508.31 697.87 1508.51 702.552C1508.72 707.437 1509.12 711.305 1509.73 711.305C1510.34 711.305 1511.77 710.287 1512.79 709.066C1514.01 707.844 1521.34 707.234 1532.12 707.641C1545.76 708.252 1551.26 709.473 1558.38 713.34C1563.47 716.19 1567.75 719.651 1568.15 721.076C1568.56 722.297 1566.73 723.926 1564.29 724.536C1561.64 724.943 1554.31 728.2 1548 731.661C1541.49 734.918 1536.2 738.582 1536.2 739.803C1536.2 741.025 1541.69 741.839 1548.41 741.839C1555.74 741.839 1564.9 743.467 1571.41 745.91C1577.11 748.149 1582.2 749.981 1582.61 749.981C1582.81 749.981 1583.42 747.946 1583.83 745.503C1584.44 742.45 1587.7 739.396 1593.6 736.75C1598.48 734.511 1606.02 732.679 1610.49 732.882C1616.6 732.882 1619.86 731.457 1623.73 727.59C1626.58 724.74 1631.26 721.279 1634.52 719.854C1637.57 718.43 1642.45 717.412 1645.71 717.412C1648.76 717.412 1654.26 719.244 1657.92 721.483C1661.79 723.926 1666.07 729.218 1668.51 734.714C1670.95 740.21 1671.97 745.706 1671.36 748.556C1670.14 752.22 1670.34 752.627 1672.78 750.592C1674.41 749.167 1682.15 746.521 1689.88 744.892C1697.82 743.264 1706.98 741.839 1710.24 741.839C1713.7 741.839 1717.77 742.857 1719.4 743.874C1722.05 745.503 1721.84 745.91 1718.99 745.91C1716.96 745.91 1713.29 747.131 1710.85 748.556C1708.41 749.778 1704.34 753.238 1701.89 756.088C1699.45 758.938 1697.41 761.381 1697.62 761.584C1697.82 761.788 1703.11 760.566 1709.22 758.938C1715.33 757.309 1727.75 756.088 1736.7 756.292C1750.95 756.495 1754.82 755.681 1767.24 749.981C1777.82 745.096 1785.35 743.06 1796.75 742.45C1805.71 741.839 1817.11 742.449 1824.23 743.874C1832.17 745.706 1839.5 748.963 1845.2 753.442C1849.88 757.106 1854.36 759.752 1855.38 759.141C1856.19 758.531 1855.78 754.256 1851.92 740.821L1867.59 742.042C1878.99 742.857 1886.32 744.689 1905.66 754.46L1916.85 750.999C1925.2 748.353 1931.71 747.742 1942.3 748.556C1950.24 749.167 1961.23 751.61 1966.72 753.849C1973.85 756.699 1982.6 757.92 1996.24 758.327C2006.83 758.531 2023.31 757.513 2032.88 756.292C2042.45 755.07 2057.1 752.831 2065.45 751.61C2073.8 750.388 2081.94 748.76 2083.16 748.149C2084.99 747.335 2084.38 744.892 2080.72 739.396C2077.87 735.121 2074 731.457 2072.17 731.457C2070.13 731.254 2054.87 731.05 2037.97 730.847C2007.74 730.644 2007.24 730.441 1988.28 722.779L1988.1 722.704C1977.51 718.429 1964.69 713.748 1959.6 712.119C1954.51 710.694 1944.54 709.269 1937.21 709.269C1927.64 709.269 1921.13 710.694 1913.8 713.951C1908.3 716.597 1902.2 720.465 1900.57 722.704C1898.94 725.147 1896.09 727.386 1894.46 727.997C1892.63 728.404 1889.17 726.165 1886.32 722.704C1883.47 719.447 1878.18 715.58 1874.72 713.951C1871.05 712.526 1863.72 711.305 1858.43 711.305C1852.93 711.305 1844.79 713.137 1831.36 719.447L1822.81 711.712C1817.92 707.437 1809.58 701.738 1803.88 699.091C1795.94 695.224 1790.44 694.002 1779.45 694.002C1768.46 694.002 1763.16 695.02 1756.04 698.684C1750.95 701.331 1744.03 706.42 1740.37 709.88C1736.91 713.544 1733.65 715.58 1733.24 714.358C1733.04 713.137 1728.97 709.88 1724.49 706.827C1720.01 703.773 1711.46 699.295 1705.76 697.056C1699.86 694.817 1689.68 692.374 1683.37 691.763C1675.63 691.153 1668.1 691.763 1661.38 693.799C1655.89 695.427 1649.78 696.242 1648.15 695.427C1645.71 694.41 1645.51 694.817 1647.14 697.056C1648.56 699.295 1648.56 699.702 1646.52 698.684C1645.3 697.666 1644.08 694.613 1644.08 691.56C1644.08 688.303 1643.06 684.232 1641.64 682.4C1640.21 680.364 1635.33 677.514 1630.85 675.886C1626.37 674.257 1621.89 673.443 1620.88 674.257C1619.86 675.071 1619.86 672.629 1620.88 668.557C1621.89 664.69 1622.51 658.176 1622.51 654.308C1622.51 650.441 1621.89 643.723 1621.08 639.652C1620.27 635.174 1616.6 628.456 1612.53 623.774C1608.66 619.296 1605 616.243 1604.39 617.261C1603.78 618.075 1602.96 617.057 1602.35 615.225C1601.74 613.189 1600.52 611.968 1599.3 612.579C1598.28 613.189 1597.26 612.782 1597.26 611.561C1597.26 610.339 1595.84 609.932 1594.21 610.543C1592.58 611.154 1591.16 610.95 1591.16 610.136C1591.16 609.118 1589.53 608.304 1587.7 608.1C1585.66 607.897 1579.15 607.49 1573.24 607.083C1567.14 606.675 1561.84 607.083 1561.44 608.1C1561.03 608.915 1558.99 609.525 1557.16 609.525C1555.13 609.525 1548 611.968 1541.28 614.818C1534.57 617.668 1527.85 620.517 1526.22 621.332C1524.8 622.146 1523.78 621.942 1523.98 620.721C1524.39 619.5 1523.58 615.836 1522.15 612.579C1520.73 609.322 1517.26 604.029 1514.21 600.772C1511.16 597.719 1505.46 594.258 1501.59 593.037C1497.72 591.816 1491.82 591.408 1488.36 592.019C1485.1 592.833 1478.79 595.887 1474.72 598.94C1470.45 601.994 1467.8 605.251 1468.61 606.065C1469.43 607.083 1468.41 607.286 1466.58 606.675C1464.54 606.065 1462.51 603.826 1461.9 601.994C1461.49 599.958 1458.23 595.887 1454.77 592.833C1451.52 589.576 1445.2 585.098 1441.13 582.655C1435.23 579.398 1429.73 578.381 1418.13 578.177C1405.51 577.974 1400.83 578.991 1391.67 583.47C1384.95 586.523 1377.83 592.223 1373.96 597.108C1370.29 601.79 1367.24 606.065 1367.24 607.083C1367.24 607.897 1366.02 610.339 1364.39 612.579C1361.54 616.65 1361.34 616.65 1356.66 612.172C1354.01 609.729 1348.72 607.083 1344.85 606.675C1340.37 605.861 1336.1 606.675 1333.65 608.507C1331.42 610.136 1328.77 611.561 1327.55 611.561C1326.53 611.561 1323.27 607.083 1320.42 601.179C1317.57 595.48 1312.08 587.541 1308.01 583.47C1303.93 579.195 1296.61 573.902 1291.72 571.256Z" fill="white"/>
<path d="M1398.78 644.13C1403.25 642.095 1407.94 640.263 1408.95 640.263C1410.18 640.263 1414.04 641.688 1417.5 643.113C1420.96 644.537 1425.65 648.405 1427.89 651.662C1430.12 654.919 1432.57 659.804 1433.38 662.654C1434.4 665.301 1435.62 668.15 1436.43 668.761C1437.25 669.168 1438.67 672.832 1439.69 676.496C1441.32 682.196 1443.15 683.824 1452.11 686.674C1457.81 688.506 1464.93 692.374 1468.19 695.224C1471.24 697.87 1475.31 703.977 1477.15 708.455L1480.81 716.598C1484.27 707.03 1485.09 701.127 1484.68 697.259C1484.27 693.188 1482.85 687.692 1481.22 685.046C1479.79 682.196 1476.54 678.328 1474.3 676.496C1472.06 674.664 1470.63 672.629 1471.04 672.018C1471.65 671.407 1475.72 670.186 1480 669.575C1486.51 668.557 1489.16 669.372 1494.25 673.239C1497.71 675.886 1502.39 681.585 1504.42 686.064C1506.66 690.542 1508.49 698.074 1508.49 702.755C1508.7 707.641 1509.31 711.509 1509.72 711.509C1510.33 711.509 1511.75 710.491 1512.77 709.269C1514.19 707.844 1521.32 707.437 1532.11 707.844C1545.75 708.455 1551.45 709.676 1558.57 713.544C1563.46 716.394 1567.73 719.651 1568.14 721.076C1568.54 722.501 1566.71 724.129 1564.27 724.536C1561.83 725.147 1554.5 728.404 1547.99 731.661C1541.47 735.121 1536.18 738.785 1536.18 740.007C1536.18 741.025 1541.67 742.042 1548.39 742.042C1555.72 742.042 1565.08 743.671 1571.39 746.114C1577.3 748.353 1582.39 750.185 1582.59 750.185C1582.79 750.185 1583.4 748.149 1584.02 745.503C1584.63 742.45 1587.88 739.6 1593.58 736.953C1598.47 734.714 1606 732.882 1610.48 732.882C1616.58 732.882 1620.05 731.661 1623.71 727.793C1626.56 724.943 1631.44 721.483 1634.5 720.058C1637.55 718.633 1642.64 717.615 1645.69 717.615C1648.75 717.615 1654.24 719.447 1657.91 721.686C1661.77 724.129 1666.05 729.422 1668.49 734.918C1671.14 740.414 1672.16 745.91 1671.34 748.556C1670.32 752.424 1670.53 752.831 1672.77 750.592C1674.4 749.371 1682.13 746.724 1689.87 745.096C1697.8 743.467 1706.96 742.042 1710.22 742.042C1713.68 742.042 1717.75 742.857 1719.38 744.078C1722.03 745.706 1722.03 745.91 1718.97 746.114C1716.94 746.114 1713.48 747.131 1711.04 748.556C1708.59 749.981 1704.52 753.442 1701.88 756.292C1699.43 758.938 1697.6 761.584 1697.8 761.788C1698.01 761.991 1703.1 760.77 1709.2 759.141C1715.51 757.513 1727.73 756.292 1736.68 756.495C1751.14 756.495 1754.8 755.884 1767.22 749.981C1777.8 745.299 1785.54 743.264 1796.73 742.45C1805.69 741.839 1817.09 742.653 1824.22 744.078C1832.15 745.91 1839.48 749.167 1845.18 753.442C1849.86 757.309 1854.55 759.752 1855.36 759.345C1856.17 758.734 1855.77 754.256 1854.34 749.574L1851.9 741.025C1878.97 743.06 1886.3 744.892 1894.44 748.963L1905.64 754.663C1925.18 748.353 1931.69 747.742 1942.28 748.76C1950.22 749.371 1961.21 751.813 1966.71 753.849C1973.63 756.699 1982.79 758.124 1995.2 758.327C2005.38 758.734 2022.69 757.716 2033.88 756.292C2045.08 754.867 2061.16 752.627 2069.5 750.999C2078.05 749.574 2085.18 748.76 2085.38 749.167C2085.59 749.371 2080.7 751.406 2074.19 753.238C2067.67 755.07 2052.81 758.734 2041.01 761.381C2029.4 764.027 2009.25 767.691 1996.22 769.523C1979.53 771.966 1964.67 772.78 1944.32 771.966C1917.04 771.151 1915.41 771.355 1905.64 776.24C1900.14 778.887 1890.98 782.551 1885.28 783.976C1879.79 785.401 1870.42 786.825 1864.52 786.825C1858.62 786.825 1849.46 785.401 1844.16 783.569C1835 780.515 1834.39 780.515 1832.56 783.976C1831.54 786.011 1827.27 791.304 1823.4 795.578C1819.33 799.853 1813.02 804.332 1808.95 805.553C1805.08 806.774 1797.75 807.589 1792.66 807.589C1786.56 807.453 1779.09 805.078 1770.27 800.464L1757.04 793.543C1721.62 813.695 1719.59 814.306 1706.15 814.306C1695.16 814.102 1689.66 813.085 1681.93 809.217C1676.43 806.367 1668.7 800.871 1665.03 797.003C1661.16 792.932 1656.28 786.418 1654.04 782.144C1650.17 774.612 1650.17 774.612 1643.66 777.462C1639.99 778.887 1633.28 780.922 1628.8 781.533C1624.32 782.347 1615.57 781.94 1609.05 780.719C1602.54 779.701 1593.38 776.851 1588.7 774.612C1584.02 772.373 1579.74 770.541 1579.54 770.541C1579.33 770.541 1578.52 773.391 1577.7 777.055C1577.09 780.719 1574.45 787.436 1572.01 791.914C1569.36 796.393 1563.66 802.5 1559.38 805.349C1555.11 808.403 1546.56 812.27 1540.25 814.102C1534.14 815.934 1522.34 817.359 1513.79 817.359C1505.44 817.156 1493.02 815.731 1486.31 814.102C1479.59 812.27 1469.21 807.996 1462.9 804.739C1456.79 801.278 1449.67 796.8 1447.22 794.561C1442.74 790.897 1442.54 790.897 1432.97 795.986C1424.42 800.668 1421.37 801.278 1407.94 800.464C1399.59 800.057 1391.24 799.039 1389.21 798.225C1386.36 797.207 1384.73 798.835 1381.88 805.553C1379.85 810.438 1374.96 817.766 1371.3 822.245C1367.43 826.52 1359.49 833.237 1353.59 836.901C1347.68 840.769 1336.08 846.061 1327.53 848.911C1316.54 852.575 1307.99 854 1296.59 854C1287.84 854 1275.83 852.575 1269.52 850.743C1263.41 848.911 1252.82 844.433 1246.11 840.769C1239.39 837.105 1229.21 829.166 1223.51 823.059C1217.61 816.952 1211.91 808.606 1210.28 803.721C1207.84 795.986 1207.02 795.375 1203.36 797.411C1201.12 798.428 1192.98 799.243 1185.04 798.835C1173.84 798.225 1168.75 796.8 1162.65 792.729C1157.56 789.472 1152.88 783.976 1150.03 778.072C1147.58 772.78 1145.34 765.655 1145.34 762.398C1145.34 758.938 1145.14 756.292 1144.94 756.292C1144.73 756.088 1141.27 757.716 1137.2 759.549C1132.11 761.991 1126.82 762.602 1117.86 761.991C1111.15 761.381 1101.17 758.938 1095.47 756.495C1089.98 754.052 1082.85 749.574 1079.8 746.521C1076.54 743.467 1072.06 735.936 1069.82 729.829C1066.97 722.501 1065.55 713.341 1065.35 703.366C1065.35 691.763 1066.36 685.86 1069.42 678.939C1071.86 673.85 1076.75 666.725 1080.61 663.265C1084.28 659.804 1090.99 654.919 1095.47 652.68C1099.95 650.441 1106.46 647.794 1109.72 646.98C1114.4 645.962 1115.42 646.166 1114.4 647.998C1113.59 649.219 1111.35 650.441 1109.31 650.237C1107.28 650.237 1104.43 651.662 1102.6 653.291C1100.97 655.123 1097.51 656.955 1095.07 657.565C1092.62 658.176 1090.38 659.804 1090.38 661.636C1090.38 663.265 1088.96 665.301 1086.92 666.115C1084.89 666.929 1081.63 668.965 1079.8 670.593C1077.76 672.425 1076.13 675.071 1076.13 676.903C1076.13 678.939 1077.76 678.328 1081.83 674.461C1084.89 671.407 1090.99 667.133 1095.47 664.893C1099.95 662.654 1107.89 660.212 1112.78 659.397C1118.27 658.583 1126.62 659.194 1133.13 660.619C1139.44 662.044 1147.79 665.301 1152.06 667.947C1156.34 670.593 1162.44 675.682 1165.7 679.346C1169.16 683.01 1172.21 687.692 1172.83 689.524C1173.84 692.578 1174.86 692.781 1179.54 690.949C1182.6 689.931 1187.48 689.321 1190.13 689.931C1192.98 690.542 1197.05 692.985 1199.29 695.224L1203.36 699.295C1209.26 685.86 1213.74 678.328 1217.4 673.85C1221.07 669.372 1228.19 663.469 1233.08 660.619C1240.41 656.751 1244.89 655.733 1257.3 655.733C1270.53 655.937 1274.2 656.751 1283.77 662.044C1290.08 665.504 1298.83 672.222 1303.71 677.107C1308.4 681.992 1313.48 687.896 1315.11 690.135C1316.74 692.374 1320 699.702 1322.44 706.42C1324.88 713.341 1326.51 722.501 1326.31 727.793L1325.9 736.953C1306.77 727.997 1303.1 727.386 1291.91 728.2C1284.17 729.015 1275.62 731.05 1271.14 733.696C1266.87 735.936 1263.41 738.378 1263.41 738.989C1263.41 739.396 1268.7 739.396 1275.22 738.582C1281.93 737.971 1291.3 738.378 1297 739.803C1303.1 741.228 1311.45 745.299 1317.35 749.981L1327.53 757.717C1338.73 745.707 1345.04 741.228 1348.9 740.007C1352.98 738.989 1359.49 737.971 1363.76 737.971H1371.3C1366.41 726.368 1366.21 722.297 1367.43 715.58C1368.45 709.88 1371.5 704.18 1374.76 700.72C1379.64 695.631 1380.66 692.985 1381.27 681.382C1381.68 672.832 1383.51 663.876 1386.36 657.769C1389.62 650.441 1392.67 647.184 1398.78 644.13Z" fill="#FFC3C2"/>
<path d="M2025.74 731.254C2020.24 730.847 2024.31 730.44 2034.9 730.44C2045.69 730.44 2050.17 730.847 2045.08 731.254C2040.19 731.661 2031.44 731.661 2025.74 731.254Z" fill="#FFC3C2"/>
<defs>
<linearGradient id="paint0_linear_2004_2" x1="896.544" y1="513.752" x2="896.544" y2="798.423" gradientUnits="userSpaceOnUse">
<stop stop-color="#FB5352"/>
<stop offset="1"/>
</linearGradient>
<linearGradient id="paint1_linear_2004_2" x1="1030.81" y1="513.752" x2="1030.81" y2="798.423" gradientUnits="userSpaceOnUse">
<stop stop-color="#FB5352"/>
<stop offset="1"/>
</linearGradient>
</defs>
</svg>
