<svg width="1920" height="183" viewBox="0 0 1920 183" fill="none" xmlns="http://www.w3.org/2000/svg">
<path d="M628.667 11.2561C633.552 8.8134 642.102 5.35288 647.801 3.92796C653.297 2.29949 664.9 0.874573 673.246 0.874573C681.796 0.874573 694.009 2.2995 700.727 4.13153C707.444 5.96357 716.604 10.0347 721.083 12.8846C725.561 15.938 732.482 22.0447 736.349 26.3195C740.421 30.7978 745.917 38.7366 748.563 44.0292C752.838 52.3751 754.263 53.8 757.723 52.5786C759.962 51.7644 765.051 50.543 768.919 49.7288C772.787 48.9146 778.69 48.9146 782.15 49.7288C785.407 50.543 791.31 54.2071 794.771 57.464C798.435 60.9245 802.303 67.2349 803.524 71.5097C804.542 75.5809 805.56 81.077 805.56 83.7232C805.56 86.166 807.188 88.8122 809.02 89.4229C811.056 90.0336 814.109 91.4585 815.738 92.4763C817.366 93.4941 821.234 95.3261 824.287 96.3439C827.544 97.5652 829.987 99.8044 829.987 101.433C829.987 103.061 831.615 105.097 833.447 105.911C835.483 106.725 838.74 108.761 840.775 110.593C842.607 112.222 844.236 115.071 844.236 116.7C844.236 118.735 842.607 118.125 838.74 114.257C835.483 111.407 829.376 107.133 824.898 104.893C820.419 102.451 812.684 100.008 807.595 99.3973C802.099 98.3795 793.753 98.9902 787.239 100.415C781.133 101.84 772.583 105.301 768.308 107.947C764.237 110.39 758.13 115.682 754.67 119.346C751.413 122.807 748.156 127.489 747.545 129.524C746.731 132.374 745.713 132.577 740.828 130.949C737.774 129.728 733.093 129.117 730.243 129.728C727.393 130.338 723.322 132.781 717.011 139.091L713.347 130.542C711.312 125.656 706.63 118.125 702.966 113.646C699.302 109.168 692.381 103.265 687.292 100.619C679.964 96.5475 675.485 95.5297 663.068 95.7332C649.837 95.7332 646.173 96.5475 636.605 101.84C630.499 105.301 621.542 112.222 616.86 116.903C612.178 121.789 606.886 127.692 605.257 129.931C603.629 132.17 600.372 139.498 598.133 146.216C595.69 153.137 593.858 162.297 594.672 176.75L604.85 171.864C613.603 167.793 617.267 167.183 628.463 168.2C636.198 168.811 644.748 171.05 649.226 173.493C653.501 175.936 656.961 178.175 656.961 178.785C656.961 179.396 651.669 179.193 645.155 178.582C638.641 177.768 629.277 178.175 623.374 179.6C617.471 181.025 608.921 185.096 592.84 197.716L585.716 189.778C581.848 185.503 575.334 181.025 571.466 180.007C567.599 178.785 560.881 177.768 549.075 177.768L551.925 171.254C553.96 166.368 554.367 162.094 552.943 155.376C551.925 149.88 549.075 143.977 545.614 140.516C540.729 135.631 539.915 132.781 539.304 121.178C538.897 112.832 536.861 103.876 534.215 97.7688C530.551 89.83 527.905 87.1837 520.984 83.9268C514.063 80.8734 511.009 80.4663 505.31 82.0947C501.238 83.3161 496.149 86.9802 493.3 90.8478C490.653 94.3083 487.804 99.6008 486.989 102.451C486.175 105.3 484.75 107.947 484.139 108.557C483.325 109.168 481.9 112.629 480.679 116.293C479.051 122.196 477.422 123.621 468.465 126.471C462.562 128.303 455.438 132.17 452.384 135.02C449.331 137.87 445.26 143.773 439.764 156.394L437.321 150.287C436.099 147.03 435.489 140.923 435.692 137.056C436.099 133.188 437.728 127.692 439.153 124.842C440.781 121.992 443.835 118.328 446.074 116.293C448.517 114.461 449.941 112.425 449.331 111.814C448.72 111.204 445.056 110.186 441.188 109.372C435.692 108.557 432.435 109.372 426.939 113.036C423.072 115.682 417.983 121.585 415.947 125.86C413.911 130.338 412.079 137.87 411.876 142.552C411.672 147.437 411.265 151.305 410.655 151.305C410.044 151.305 408.619 150.287 407.601 149.066C406.38 147.844 399.052 147.234 388.263 147.641C374.625 148.252 369.128 149.473 362.004 153.34C356.915 156.19 352.64 159.651 352.233 161.076C351.826 162.297 353.658 163.926 356.101 164.536C358.747 164.943 366.075 168.2 372.385 171.661C378.899 174.918 384.192 178.582 384.192 179.803C384.192 181.025 378.696 181.839 371.978 181.839C364.65 181.839 355.49 183.467 348.976 185.91C343.276 188.149 338.187 189.981 337.78 189.981C337.577 189.981 336.966 187.946 336.559 185.503C335.948 182.45 332.691 179.396 326.788 176.75C321.903 174.511 314.371 172.679 309.893 172.882C303.786 172.882 300.529 171.457 296.661 167.59C293.811 164.74 289.13 161.279 285.873 159.854C282.819 158.43 277.934 157.412 274.677 157.412C271.624 157.412 266.127 159.244 262.463 161.483C258.596 163.926 254.321 169.218 251.878 174.714C249.436 180.21 248.418 185.706 249.028 188.556C250.25 192.22 250.046 192.627 247.604 190.592C245.975 189.167 238.24 186.521 230.505 184.892C222.566 183.264 213.406 181.839 210.149 181.839C206.688 181.839 202.617 182.857 200.988 183.874C198.342 185.503 198.546 185.91 201.396 185.91C203.431 185.91 207.095 187.131 209.538 188.556C211.981 189.778 216.052 193.238 218.495 196.088C220.937 198.938 222.973 201.381 222.769 201.584C222.566 201.788 217.273 200.566 211.166 198.938C205.06 197.309 192.643 196.088 183.686 196.292C169.437 196.495 165.569 195.681 153.152 189.981C142.567 185.096 135.035 183.06 123.636 182.45C114.679 181.839 103.28 182.449 96.1554 183.874C88.2166 185.706 80.8884 188.963 75.1888 193.442C70.5069 197.106 66.0286 199.752 65.0108 199.141C64.1966 198.531 64.6037 194.256 68.4713 180.821L52.7973 182.042C41.3979 182.857 34.0698 184.689 14.7317 194.46L3.53589 190.999C-4.81004 188.353 -11.3239 187.742 -21.909 188.556C-29.8478 189.167 -40.84 191.61 -46.3361 193.849C-53.4607 196.699 -62.2138 197.92 -75.8522 198.327C-86.4373 198.531 -102.926 197.513 -112.493 196.292C-122.06 195.07 -136.716 192.831 -145.062 191.61C-153.408 190.388 -161.551 188.76 -162.772 188.149C-164.604 187.335 -163.993 184.892 -160.329 179.396C-157.48 175.121 -153.612 171.457 -151.78 171.457C-149.744 171.254 -134.477 171.05 -117.582 170.847C-87.3493 170.644 -86.8474 170.441 -67.8942 162.779L-67.7099 162.704C-57.1248 158.429 -44.3005 153.748 -39.2116 152.119C-34.1226 150.694 -24.1482 149.269 -16.82 149.269C-7.25276 149.269 -0.738861 150.694 6.58928 153.951C12.0854 156.597 18.1922 160.465 19.8206 162.704C21.4491 165.147 24.2989 167.386 25.9274 167.997C27.7594 168.404 31.22 166.165 34.0698 162.704C36.9196 159.447 42.2122 155.58 45.6727 153.951C49.3367 152.526 56.6649 151.305 61.9574 151.305C67.4535 151.305 75.5959 153.137 89.0308 159.447L97.5803 151.712C102.466 147.437 110.812 141.738 116.511 139.091C124.45 135.224 129.946 134.002 140.938 134.002C151.931 134.002 157.223 135.02 164.348 138.684C169.437 141.331 176.358 146.42 180.022 149.88C183.482 153.544 186.739 155.58 187.146 154.358C187.35 153.137 191.421 149.88 195.899 146.827C200.378 143.773 208.927 139.295 214.627 137.056C220.53 134.817 230.708 132.374 237.018 131.763C244.754 131.153 252.285 131.763 259.003 133.799C264.499 135.427 270.606 136.242 272.234 135.427C274.677 134.41 274.88 134.817 273.252 137.056C271.827 139.295 271.827 139.702 273.863 138.684C275.084 137.666 276.305 134.613 276.305 131.56C276.305 128.303 277.323 124.232 278.748 122.4C280.173 120.364 285.058 117.514 289.537 115.886C294.015 114.257 298.493 113.443 299.511 114.257C300.529 115.071 300.529 112.629 299.511 108.557C298.493 104.69 297.883 98.1759 297.883 94.3083C297.883 90.4407 298.493 83.7232 299.308 79.6521C300.122 75.1738 303.786 68.4563 307.857 63.7744C311.725 59.2961 315.389 56.2427 315.999 57.2605C316.61 58.0748 317.424 57.057 318.035 55.2249C318.646 53.1893 319.867 51.968 321.088 52.5786C322.106 53.1893 323.124 52.7822 323.124 51.5608C323.124 50.3395 324.549 49.9324 326.177 50.543C327.806 51.1537 329.231 50.9502 329.231 50.136C329.231 49.1182 330.859 48.3039 332.691 48.1004C334.727 47.8968 341.241 47.4897 347.144 47.0826C353.251 46.6754 358.543 47.0826 358.951 48.1004C359.358 48.9146 361.393 49.5252 363.225 49.5252C365.261 49.5252 372.385 51.968 379.103 54.8178C385.82 57.6676 392.538 60.5175 394.166 61.3317C395.591 62.146 396.609 61.9424 396.405 60.721C395.998 59.4996 396.813 55.8356 398.237 52.5786C399.662 49.3217 403.123 44.0292 406.176 40.7722C409.23 37.7188 414.929 34.2583 418.797 33.0369C422.665 31.8156 428.568 31.4084 432.028 32.0191C435.285 32.8334 441.596 35.8868 445.667 38.9402C449.942 41.9936 452.588 45.2505 451.774 46.0648C450.959 47.0826 451.977 47.2861 453.809 46.6754C455.845 46.0647 457.88 43.8256 458.491 41.9936C458.898 39.958 462.155 35.8868 465.616 32.8334C468.872 29.5765 475.183 25.0982 479.254 22.6554C485.157 19.3985 490.653 18.3807 502.256 18.1771C514.877 17.9736 519.559 18.9914 528.719 23.4697C535.436 26.5231 542.561 32.2227 546.429 37.1081C550.093 41.79 553.146 46.0648 553.146 47.0826C553.146 47.8968 554.367 50.3395 555.996 52.5786C558.846 56.6498 559.049 56.6499 563.731 52.1715C566.377 49.7288 571.67 47.0825 575.538 46.6754C580.016 45.8612 584.291 46.6754 586.733 48.5074C588.972 50.1359 591.619 51.5608 592.84 51.5608C593.858 51.5608 597.115 47.0825 599.965 41.1793C602.815 35.4796 608.311 27.5409 612.382 23.4697C616.453 19.1949 623.781 13.9024 628.667 11.2561Z" fill="white"/>
<path d="M521.612 84.1304C517.133 82.0948 512.452 80.2628 511.434 80.2628C510.212 80.2628 506.345 81.6877 502.884 83.1126C499.424 84.5375 494.742 88.4051 492.503 91.6621C490.264 94.919 487.821 99.8045 487.007 102.654C485.989 105.301 484.768 108.15 483.953 108.761C483.139 109.168 481.714 112.832 480.696 116.496C479.068 122.196 477.236 123.824 468.279 126.674C462.58 128.506 455.455 132.374 452.198 135.224C449.145 137.87 445.073 143.977 443.241 148.455L439.577 156.598C436.117 147.03 435.303 141.127 435.71 137.259C436.117 133.188 437.542 127.692 439.17 125.046C440.595 122.196 443.852 118.328 446.091 116.496C448.33 114.664 449.755 112.629 449.348 112.018C448.737 111.407 444.666 110.186 440.392 109.575C433.878 108.557 431.231 109.372 426.142 113.239C422.682 115.886 418 121.585 415.964 126.064C413.725 130.542 411.893 138.074 411.893 142.755C411.69 147.641 411.079 151.509 410.672 151.509C410.061 151.509 408.636 150.491 407.619 149.269C406.194 147.844 399.069 147.437 388.28 147.844C374.642 148.455 368.942 149.676 361.818 153.544C356.932 156.394 352.658 159.651 352.25 161.076C351.843 162.501 353.675 164.129 356.118 164.536C358.561 165.147 365.889 168.404 372.403 171.661C378.917 175.121 384.209 178.785 384.209 180.007C384.209 181.025 378.713 182.042 371.996 182.042C364.667 182.042 355.304 183.671 348.993 186.114C343.09 188.353 338.001 190.185 337.798 190.185C337.594 190.185 336.983 188.149 336.373 185.503C335.762 182.45 332.505 179.6 326.805 176.953C321.92 174.714 314.388 172.882 309.91 172.882C303.803 172.882 300.343 171.661 296.679 167.793C293.829 164.943 288.943 161.483 285.89 160.058C282.837 158.633 277.748 157.615 274.694 157.615C271.641 157.615 266.145 159.447 262.481 161.686C258.613 164.129 254.338 169.422 251.896 174.918C249.249 180.414 248.232 185.91 249.046 188.556C250.064 192.424 249.86 192.831 247.621 190.592C245.992 189.371 238.257 186.724 230.522 185.096C222.583 183.467 213.423 182.042 210.166 182.042C206.705 182.042 202.634 182.857 201.006 184.078C198.36 185.706 198.36 185.91 201.413 186.114C203.449 186.114 206.909 187.131 209.352 188.556C211.794 189.981 215.866 193.442 218.512 196.292C220.955 198.938 222.787 201.584 222.583 201.788C222.38 201.991 217.291 200.77 211.184 199.141C204.873 197.513 192.66 196.292 183.703 196.495C169.251 196.495 165.586 195.884 153.169 189.981C142.584 185.299 134.849 183.264 123.653 182.45C114.697 181.839 103.297 182.653 96.1727 184.078C88.2339 185.91 80.9058 189.167 75.2061 193.442C70.5243 197.309 65.8424 199.752 65.0282 199.345C64.2139 198.734 64.621 194.256 66.046 189.574L68.4887 181.025C41.4153 183.06 34.0872 184.892 25.9448 188.963L14.749 194.663C-4.79266 188.353 -11.3066 187.742 -21.8916 188.76C-29.8305 189.371 -40.8227 191.813 -46.3188 193.849C-53.2398 196.699 -62.4 198.124 -74.8171 198.327C-84.995 198.734 -102.298 197.716 -113.493 196.292C-124.689 194.867 -140.77 192.627 -149.116 190.999C-157.666 189.574 -164.79 188.76 -164.994 189.167C-165.197 189.371 -160.312 191.406 -153.798 193.238C-147.284 195.07 -132.424 198.734 -120.618 201.381C-109.015 204.027 -88.8627 207.691 -75.8349 209.523C-59.143 211.966 -44.2832 212.78 -23.9272 211.966C3.3497 211.151 4.97818 211.355 14.749 216.24C20.2451 218.887 29.4053 222.551 35.105 223.976C40.6011 225.401 49.9648 226.825 55.868 226.825C61.7712 226.825 70.9314 225.401 76.2239 223.569C85.3841 220.515 85.9948 220.515 87.8268 223.976C88.8446 226.011 93.1194 231.304 96.987 235.578C101.058 239.853 107.368 244.332 111.44 245.553C115.307 246.774 122.635 247.589 127.724 247.589C133.831 247.453 141.295 245.078 150.116 240.464L163.347 233.543C198.767 253.695 200.802 254.306 214.237 254.306C225.229 254.102 230.725 253.085 238.461 249.217C243.957 246.367 251.692 240.871 255.356 237.003C259.224 232.932 264.109 226.418 266.348 222.144C270.216 214.612 270.216 214.612 276.73 217.462C280.394 218.887 287.111 220.922 291.59 221.533C296.068 222.347 304.821 221.94 311.335 220.719C317.849 219.701 327.009 216.851 331.691 214.612C336.373 212.373 340.648 210.541 340.851 210.541C341.055 210.541 341.869 213.391 342.683 217.055C343.294 220.719 345.94 227.436 348.383 231.914C351.029 236.393 356.729 242.5 361.003 245.349C365.278 248.403 373.828 252.27 380.138 254.102C386.245 255.934 398.051 257.359 406.601 257.359C414.947 257.156 427.364 255.731 434.081 254.102C440.799 252.27 451.18 247.996 457.491 244.739C463.597 241.278 470.722 236.8 473.165 234.561C477.643 230.897 477.846 230.897 487.414 235.986C495.963 240.668 499.017 241.278 512.452 240.464C520.797 240.057 529.143 239.039 531.179 238.225C534.029 237.207 535.657 238.835 538.507 245.553C540.543 250.438 545.428 257.766 549.092 262.245C552.96 266.52 560.899 273.237 566.802 276.901C572.705 280.769 584.308 286.061 592.857 288.911C603.85 292.575 612.399 294 623.799 294C632.552 294 644.562 292.575 650.872 290.743C656.979 288.911 667.564 284.433 674.281 280.769C680.999 277.105 691.177 269.166 696.876 263.059C702.78 256.952 708.479 248.606 710.108 243.721C712.55 235.986 713.365 235.375 717.029 237.411C719.268 238.428 727.41 239.243 735.349 238.835C746.545 238.225 751.634 236.8 757.741 232.729C762.83 229.472 767.511 223.976 770.361 218.072C772.804 212.78 775.043 205.655 775.043 202.398C775.043 198.938 775.247 196.292 775.45 196.292C775.654 196.088 779.114 197.716 783.185 199.549C788.274 201.991 793.567 202.602 802.524 201.991C809.241 201.381 819.215 198.938 824.915 196.495C830.411 194.052 837.536 189.574 840.589 186.521C843.846 183.467 848.324 175.936 850.564 169.829C853.413 162.501 854.838 153.341 855.042 143.366C855.042 131.763 854.024 125.86 850.971 118.939C848.528 113.85 843.643 106.725 839.775 103.265C836.111 99.8044 829.393 94.919 824.915 92.6799C820.437 90.4407 813.923 87.7944 810.666 86.9802C805.984 85.9624 804.966 86.166 805.984 87.998C806.798 89.2193 809.038 90.4407 811.073 90.2372C813.109 90.2372 815.958 91.6621 817.791 93.2905C819.419 95.1226 822.88 96.9546 825.322 97.5653C827.765 98.176 830.004 99.8045 830.004 101.636C830.004 103.265 831.429 105.301 833.465 106.115C835.5 106.929 838.757 108.965 840.589 110.593C842.625 112.425 844.253 115.071 844.253 116.903C844.253 118.939 842.625 118.328 838.554 114.461C835.5 111.407 829.393 107.133 824.915 104.893C820.437 102.654 812.498 100.212 807.613 99.3973C802.117 98.5831 793.771 99.1938 787.257 100.619C780.946 102.044 772.6 105.301 768.326 107.947C764.051 110.593 757.944 115.682 754.687 119.346C751.227 123.01 748.173 127.692 747.563 129.524C746.545 132.578 745.527 132.781 740.845 130.949C737.792 129.931 732.906 129.321 730.26 129.931C727.41 130.542 723.339 132.985 721.1 135.224L717.029 139.295C711.125 125.86 706.647 118.328 702.983 113.85C699.319 109.372 692.194 103.469 687.309 100.619C679.981 96.7511 675.503 95.7333 663.085 95.7333C649.854 95.9368 646.19 96.7511 636.623 102.044C630.312 105.504 621.559 112.222 616.674 117.107C611.992 121.992 606.903 127.896 605.275 130.135C603.646 132.374 600.389 139.702 597.946 146.42C595.504 153.341 593.875 162.501 594.079 167.793L594.486 176.953C613.621 167.997 617.285 167.386 628.48 168.2C636.216 169.015 644.765 171.05 649.243 173.696C653.518 175.936 656.979 178.378 656.979 178.989C656.979 179.396 651.686 179.396 645.172 178.582C638.455 177.971 629.091 178.378 623.391 179.803C617.285 181.228 608.939 185.299 603.035 189.981L592.857 197.717C581.662 185.707 575.351 181.228 571.484 180.007C567.413 178.989 560.899 177.971 556.624 177.971H549.092C553.978 166.368 554.181 162.297 552.96 155.58C551.942 149.88 548.889 144.18 545.632 140.72C540.746 135.631 539.729 132.985 539.118 121.382C538.711 112.832 536.879 103.876 534.029 97.7689C530.772 90.4407 527.719 87.1838 521.612 84.1304Z" fill="#FFC3C2"/>
<path d="M-105.351 171.254C-99.8549 170.847 -103.926 170.44 -114.511 170.44C-125.3 170.44 -129.778 170.847 -124.689 171.254C-119.804 171.661 -111.051 171.661 -105.351 171.254Z" fill="#FFC3C2"/>
<path d="M1291.72 11.2561C1286.84 8.8134 1278.29 5.35288 1272.59 3.92796C1267.09 2.29949 1255.49 0.874573 1247.14 0.874573C1238.59 0.874573 1226.38 2.2995 1219.66 4.13153C1212.94 5.96357 1203.78 10.0347 1199.31 12.8846C1194.83 15.938 1187.91 22.0447 1184.04 26.3195C1179.97 30.7978 1174.47 38.7366 1171.82 44.0292C1167.55 52.3751 1166.12 53.8 1162.66 52.5786C1160.43 51.7644 1155.34 50.543 1151.47 49.7288C1147.6 48.9146 1141.7 48.9146 1138.24 49.7288C1134.98 50.543 1129.08 54.2071 1125.62 57.464C1121.95 60.9245 1118.09 67.2349 1116.86 71.5097C1115.85 75.5809 1114.83 81.077 1114.83 83.7232C1114.83 86.166 1113.2 88.8122 1111.37 89.4229C1109.33 90.0336 1106.28 91.4585 1104.65 92.4763C1103.02 93.4941 1099.15 95.3261 1096.1 96.3439C1092.84 97.5652 1090.4 99.8044 1090.4 101.433C1090.4 103.061 1088.77 105.097 1086.94 105.911C1084.9 106.725 1081.65 108.761 1079.61 110.593C1077.78 112.222 1076.15 115.071 1076.15 116.7C1076.15 118.735 1077.78 118.125 1081.65 114.257C1084.9 111.407 1091.01 107.133 1095.49 104.893C1099.97 102.451 1107.7 100.008 1112.79 99.3973C1118.29 98.3795 1126.63 98.9902 1133.15 100.415C1139.26 101.84 1147.8 105.301 1152.08 107.947C1156.15 110.39 1162.26 115.682 1165.72 119.346C1168.97 122.807 1172.23 127.489 1172.84 129.524C1173.66 132.374 1174.67 132.577 1179.56 130.949C1182.61 129.728 1187.3 129.117 1190.15 129.728C1192.99 130.338 1197.07 132.781 1203.38 139.091L1207.04 130.542C1209.08 125.656 1213.76 118.125 1217.42 113.646C1221.09 109.168 1228.01 103.265 1233.1 100.619C1240.42 96.5475 1244.9 95.5297 1257.32 95.7332C1270.55 95.7332 1274.22 96.5475 1283.78 101.84C1289.89 105.301 1298.85 112.222 1303.53 116.903C1308.21 121.789 1313.5 127.692 1315.13 129.931C1316.76 132.17 1320.02 139.498 1322.26 146.216C1324.7 153.137 1326.53 162.297 1325.72 176.75L1315.54 171.864C1306.78 167.793 1303.12 167.183 1291.92 168.2C1284.19 168.811 1275.64 171.05 1271.16 173.493C1266.89 175.936 1263.43 178.175 1263.43 178.785C1263.43 179.396 1268.72 179.193 1275.23 178.582C1281.75 177.768 1291.11 178.175 1297.01 179.6C1302.92 181.025 1311.47 185.096 1327.55 197.716L1334.67 189.778C1338.54 185.503 1345.05 181.025 1348.92 180.007C1352.79 178.785 1359.51 177.768 1371.31 177.768L1368.46 171.254C1366.43 166.368 1366.02 162.094 1367.45 155.376C1368.46 149.88 1371.31 143.977 1374.77 140.516C1379.66 135.631 1380.47 132.781 1381.08 121.178C1381.49 112.832 1383.53 103.876 1386.17 97.7688C1389.84 89.83 1392.48 87.1837 1399.4 83.9268C1406.33 80.8734 1409.38 80.4663 1415.08 82.0947C1419.15 83.3161 1424.24 86.9802 1427.09 90.8478C1429.73 94.3083 1432.58 99.6008 1433.4 102.451C1434.21 105.3 1435.64 107.947 1436.25 108.557C1437.06 109.168 1438.49 112.629 1439.71 116.293C1441.34 122.196 1442.97 123.621 1451.92 126.471C1457.83 128.303 1464.95 132.17 1468 135.02C1471.06 137.87 1475.13 143.773 1480.62 156.394L1483.07 150.287C1484.29 147.03 1484.9 140.923 1484.7 137.056C1484.29 133.188 1482.66 127.692 1481.23 124.842C1479.61 121.992 1476.55 118.328 1474.31 116.293C1471.87 114.461 1470.45 112.425 1471.06 111.814C1471.67 111.204 1475.33 110.186 1479.2 109.372C1484.7 108.557 1487.95 109.372 1493.45 113.036C1497.32 115.682 1502.41 121.585 1504.44 125.86C1506.48 130.338 1508.31 137.87 1508.51 142.552C1508.72 147.437 1509.12 151.305 1509.73 151.305C1510.34 151.305 1511.77 150.287 1512.79 149.066C1514.01 147.844 1521.34 147.234 1532.12 147.641C1545.76 148.252 1551.26 149.473 1558.38 153.34C1563.47 156.19 1567.75 159.651 1568.15 161.076C1568.56 162.297 1566.73 163.926 1564.29 164.536C1561.64 164.943 1554.31 168.2 1548 171.661C1541.49 174.918 1536.2 178.582 1536.2 179.803C1536.2 181.025 1541.69 181.839 1548.41 181.839C1555.74 181.839 1564.9 183.467 1571.41 185.91C1577.11 188.149 1582.2 189.981 1582.61 189.981C1582.81 189.981 1583.42 187.946 1583.83 185.503C1584.44 182.45 1587.7 179.396 1593.6 176.75C1598.48 174.511 1606.02 172.679 1610.49 172.882C1616.6 172.882 1619.86 171.457 1623.73 167.59C1626.58 164.74 1631.26 161.279 1634.52 159.854C1637.57 158.43 1642.45 157.412 1645.71 157.412C1648.76 157.412 1654.26 159.244 1657.92 161.483C1661.79 163.926 1666.07 169.218 1668.51 174.714C1670.95 180.21 1671.97 185.706 1671.36 188.556C1670.14 192.22 1670.34 192.627 1672.78 190.592C1674.41 189.167 1682.15 186.521 1689.88 184.892C1697.82 183.264 1706.98 181.839 1710.24 181.839C1713.7 181.839 1717.77 182.857 1719.4 183.874C1722.05 185.503 1721.84 185.91 1718.99 185.91C1716.96 185.91 1713.29 187.131 1710.85 188.556C1708.41 189.778 1704.34 193.238 1701.89 196.088C1699.45 198.938 1697.41 201.381 1697.62 201.584C1697.82 201.788 1703.11 200.566 1709.22 198.938C1715.33 197.309 1727.75 196.088 1736.7 196.292C1750.95 196.495 1754.82 195.681 1767.24 189.981C1777.82 185.096 1785.35 183.06 1796.75 182.45C1805.71 181.839 1817.11 182.449 1824.23 183.874C1832.17 185.706 1839.5 188.963 1845.2 193.442C1849.88 197.106 1854.36 199.752 1855.38 199.141C1856.19 198.531 1855.78 194.256 1851.92 180.821L1867.59 182.042C1878.99 182.857 1886.32 184.689 1905.66 194.46L1916.85 190.999C1925.2 188.353 1931.71 187.742 1942.3 188.556C1950.24 189.167 1961.23 191.61 1966.72 193.849C1973.85 196.699 1982.6 197.92 1996.24 198.327C2006.83 198.531 2023.31 197.513 2032.88 196.292C2042.45 195.07 2057.1 192.831 2065.45 191.61C2073.8 190.388 2081.94 188.76 2083.16 188.149C2084.99 187.335 2084.38 184.892 2080.72 179.396C2077.87 175.121 2074 171.457 2072.17 171.457C2070.13 171.254 2054.87 171.05 2037.97 170.847C2007.74 170.644 2007.24 170.441 1988.28 162.779L1988.1 162.704C1977.51 158.429 1964.69 153.748 1959.6 152.119C1954.51 150.694 1944.54 149.269 1937.21 149.269C1927.64 149.269 1921.13 150.694 1913.8 153.951C1908.3 156.597 1902.2 160.465 1900.57 162.704C1898.94 165.147 1896.09 167.386 1894.46 167.997C1892.63 168.404 1889.17 166.165 1886.32 162.704C1883.47 159.447 1878.18 155.58 1874.72 153.951C1871.05 152.526 1863.72 151.305 1858.43 151.305C1852.93 151.305 1844.79 153.137 1831.36 159.447L1822.81 151.712C1817.92 147.437 1809.58 141.738 1803.88 139.091C1795.94 135.224 1790.44 134.002 1779.45 134.002C1768.46 134.002 1763.16 135.02 1756.04 138.684C1750.95 141.331 1744.03 146.42 1740.37 149.88C1736.91 153.544 1733.65 155.58 1733.24 154.358C1733.04 153.137 1728.97 149.88 1724.49 146.827C1720.01 143.773 1711.46 139.295 1705.76 137.056C1699.86 134.817 1689.68 132.374 1683.37 131.763C1675.63 131.153 1668.1 131.763 1661.38 133.799C1655.89 135.427 1649.78 136.242 1648.15 135.427C1645.71 134.41 1645.51 134.817 1647.14 137.056C1648.56 139.295 1648.56 139.702 1646.52 138.684C1645.3 137.666 1644.08 134.613 1644.08 131.56C1644.08 128.303 1643.06 124.232 1641.64 122.4C1640.21 120.364 1635.33 117.514 1630.85 115.886C1626.37 114.257 1621.89 113.443 1620.88 114.257C1619.86 115.071 1619.86 112.629 1620.88 108.557C1621.89 104.69 1622.51 98.1759 1622.51 94.3083C1622.51 90.4407 1621.89 83.7232 1621.08 79.6521C1620.27 75.1738 1616.6 68.4563 1612.53 63.7744C1608.66 59.2961 1605 56.2427 1604.39 57.2605C1603.78 58.0748 1602.96 57.057 1602.35 55.2249C1601.74 53.1893 1600.52 51.968 1599.3 52.5786C1598.28 53.1893 1597.26 52.7822 1597.26 51.5608C1597.26 50.3395 1595.84 49.9324 1594.21 50.543C1592.58 51.1537 1591.16 50.9502 1591.16 50.136C1591.16 49.1182 1589.53 48.3039 1587.7 48.1004C1585.66 47.8968 1579.15 47.4897 1573.24 47.0826C1567.14 46.6754 1561.84 47.0826 1561.44 48.1004C1561.03 48.9146 1558.99 49.5252 1557.16 49.5252C1555.13 49.5252 1548 51.968 1541.28 54.8178C1534.57 57.6676 1527.85 60.5175 1526.22 61.3317C1524.8 62.146 1523.78 61.9424 1523.98 60.721C1524.39 59.4996 1523.58 55.8356 1522.15 52.5786C1520.73 49.3217 1517.26 44.0292 1514.21 40.7722C1511.16 37.7188 1505.46 34.2583 1501.59 33.0369C1497.72 31.8156 1491.82 31.4084 1488.36 32.0191C1485.1 32.8334 1478.79 35.8868 1474.72 38.9402C1470.45 41.9936 1467.8 45.2505 1468.61 46.0648C1469.43 47.0826 1468.41 47.2861 1466.58 46.6754C1464.54 46.0647 1462.51 43.8256 1461.9 41.9936C1461.49 39.958 1458.23 35.8868 1454.77 32.8334C1451.52 29.5765 1445.2 25.0982 1441.13 22.6554C1435.23 19.3985 1429.73 18.3807 1418.13 18.1771C1405.51 17.9736 1400.83 18.9914 1391.67 23.4697C1384.95 26.5231 1377.83 32.2227 1373.96 37.1081C1370.29 41.79 1367.24 46.0648 1367.24 47.0826C1367.24 47.8968 1366.02 50.3395 1364.39 52.5786C1361.54 56.6498 1361.34 56.6499 1356.66 52.1715C1354.01 49.7288 1348.72 47.0825 1344.85 46.6754C1340.37 45.8612 1336.1 46.6754 1333.65 48.5074C1331.42 50.1359 1328.77 51.5608 1327.55 51.5608C1326.53 51.5608 1323.27 47.0825 1320.42 41.1793C1317.57 35.4796 1312.08 27.5409 1308.01 23.4697C1303.93 19.1949 1296.61 13.9024 1291.72 11.2561Z" fill="white"/>
<path d="M1398.78 84.1304C1403.25 82.0948 1407.94 80.2628 1408.95 80.2628C1410.18 80.2628 1414.04 81.6877 1417.5 83.1126C1420.96 84.5375 1425.65 88.4051 1427.89 91.6621C1430.12 94.919 1432.57 99.8045 1433.38 102.654C1434.4 105.301 1435.62 108.15 1436.43 108.761C1437.25 109.168 1438.67 112.832 1439.69 116.496C1441.32 122.196 1443.15 123.824 1452.11 126.674C1457.81 128.506 1464.93 132.374 1468.19 135.224C1471.24 137.87 1475.31 143.977 1477.15 148.455L1480.81 156.598C1484.27 147.03 1485.09 141.127 1484.68 137.259C1484.27 133.188 1482.85 127.692 1481.22 125.046C1479.79 122.196 1476.54 118.328 1474.3 116.496C1472.06 114.664 1470.63 112.629 1471.04 112.018C1471.65 111.407 1475.72 110.186 1480 109.575C1486.51 108.557 1489.16 109.372 1494.25 113.239C1497.71 115.886 1502.39 121.585 1504.42 126.064C1506.66 130.542 1508.49 138.074 1508.49 142.755C1508.7 147.641 1509.31 151.509 1509.72 151.509C1510.33 151.509 1511.75 150.491 1512.77 149.269C1514.19 147.844 1521.32 147.437 1532.11 147.844C1545.75 148.455 1551.45 149.676 1558.57 153.544C1563.46 156.394 1567.73 159.651 1568.14 161.076C1568.54 162.501 1566.71 164.129 1564.27 164.536C1561.83 165.147 1554.5 168.404 1547.99 171.661C1541.47 175.121 1536.18 178.785 1536.18 180.007C1536.18 181.025 1541.67 182.042 1548.39 182.042C1555.72 182.042 1565.08 183.671 1571.39 186.114C1577.3 188.353 1582.39 190.185 1582.59 190.185C1582.79 190.185 1583.4 188.149 1584.02 185.503C1584.63 182.45 1587.88 179.6 1593.58 176.953C1598.47 174.714 1606 172.882 1610.48 172.882C1616.58 172.882 1620.05 171.661 1623.71 167.793C1626.56 164.943 1631.44 161.483 1634.5 160.058C1637.55 158.633 1642.64 157.615 1645.69 157.615C1648.75 157.615 1654.24 159.447 1657.91 161.686C1661.77 164.129 1666.05 169.422 1668.49 174.918C1671.14 180.414 1672.16 185.91 1671.34 188.556C1670.32 192.424 1670.53 192.831 1672.77 190.592C1674.4 189.371 1682.13 186.724 1689.87 185.096C1697.8 183.467 1706.96 182.042 1710.22 182.042C1713.68 182.042 1717.75 182.857 1719.38 184.078C1722.03 185.706 1722.03 185.91 1718.97 186.114C1716.94 186.114 1713.48 187.131 1711.04 188.556C1708.59 189.981 1704.52 193.442 1701.88 196.292C1699.43 198.938 1697.6 201.584 1697.8 201.788C1698.01 201.991 1703.1 200.77 1709.2 199.141C1715.51 197.513 1727.73 196.292 1736.68 196.495C1751.14 196.495 1754.8 195.884 1767.22 189.981C1777.8 185.299 1785.54 183.264 1796.73 182.45C1805.69 181.839 1817.09 182.653 1824.22 184.078C1832.15 185.91 1839.48 189.167 1845.18 193.442C1849.86 197.309 1854.55 199.752 1855.36 199.345C1856.17 198.734 1855.77 194.256 1854.34 189.574L1851.9 181.025C1878.97 183.06 1886.3 184.892 1894.44 188.963L1905.64 194.663C1925.18 188.353 1931.69 187.742 1942.28 188.76C1950.22 189.371 1961.21 191.813 1966.71 193.849C1973.63 196.699 1982.79 198.124 1995.2 198.327C2005.38 198.734 2022.69 197.716 2033.88 196.292C2045.08 194.867 2061.16 192.627 2069.5 190.999C2078.05 189.574 2085.18 188.76 2085.38 189.167C2085.59 189.371 2080.7 191.406 2074.19 193.238C2067.67 195.07 2052.81 198.734 2041.01 201.381C2029.4 204.027 2009.25 207.691 1996.22 209.523C1979.53 211.966 1964.67 212.78 1944.32 211.966C1917.04 211.151 1915.41 211.355 1905.64 216.24C1900.14 218.887 1890.98 222.551 1885.28 223.976C1879.79 225.401 1870.42 226.825 1864.52 226.825C1858.62 226.825 1849.46 225.401 1844.16 223.569C1835 220.515 1834.39 220.515 1832.56 223.976C1831.54 226.011 1827.27 231.304 1823.4 235.578C1819.33 239.853 1813.02 244.332 1808.95 245.553C1805.08 246.774 1797.75 247.589 1792.66 247.589C1786.56 247.453 1779.09 245.078 1770.27 240.464L1757.04 233.543C1721.62 253.695 1719.59 254.306 1706.15 254.306C1695.16 254.102 1689.66 253.085 1681.93 249.217C1676.43 246.367 1668.7 240.871 1665.03 237.003C1661.16 232.932 1656.28 226.418 1654.04 222.144C1650.17 214.612 1650.17 214.612 1643.66 217.462C1639.99 218.887 1633.28 220.922 1628.8 221.533C1624.32 222.347 1615.57 221.94 1609.05 220.719C1602.54 219.701 1593.38 216.851 1588.7 214.612C1584.02 212.373 1579.74 210.541 1579.54 210.541C1579.33 210.541 1578.52 213.391 1577.7 217.055C1577.09 220.719 1574.45 227.436 1572.01 231.914C1569.36 236.393 1563.66 242.5 1559.38 245.349C1555.11 248.403 1546.56 252.27 1540.25 254.102C1534.14 255.934 1522.34 257.359 1513.79 257.359C1505.44 257.156 1493.02 255.731 1486.31 254.102C1479.59 252.27 1469.21 247.996 1462.9 244.739C1456.79 241.278 1449.67 236.8 1447.22 234.561C1442.74 230.897 1442.54 230.897 1432.97 235.986C1424.42 240.668 1421.37 241.278 1407.94 240.464C1399.59 240.057 1391.24 239.039 1389.21 238.225C1386.36 237.207 1384.73 238.835 1381.88 245.553C1379.85 250.438 1374.96 257.766 1371.3 262.245C1367.43 266.52 1359.49 273.237 1353.59 276.901C1347.68 280.769 1336.08 286.061 1327.53 288.911C1316.54 292.575 1307.99 294 1296.59 294C1287.84 294 1275.83 292.575 1269.52 290.743C1263.41 288.911 1252.82 284.433 1246.11 280.769C1239.39 277.105 1229.21 269.166 1223.51 263.059C1217.61 256.952 1211.91 248.606 1210.28 243.721C1207.84 235.986 1207.02 235.375 1203.36 237.411C1201.12 238.428 1192.98 239.243 1185.04 238.835C1173.84 238.225 1168.75 236.8 1162.65 232.729C1157.56 229.472 1152.88 223.976 1150.03 218.072C1147.58 212.78 1145.34 205.655 1145.34 202.398C1145.34 198.938 1145.14 196.292 1144.94 196.292C1144.73 196.088 1141.27 197.716 1137.2 199.549C1132.11 201.991 1126.82 202.602 1117.86 201.991C1111.15 201.381 1101.17 198.938 1095.47 196.495C1089.98 194.052 1082.85 189.574 1079.8 186.521C1076.54 183.467 1072.06 175.936 1069.82 169.829C1066.97 162.501 1065.55 153.341 1065.35 143.366C1065.35 131.763 1066.36 125.86 1069.42 118.939C1071.86 113.85 1076.75 106.725 1080.61 103.265C1084.28 99.8044 1090.99 94.919 1095.47 92.6799C1099.95 90.4407 1106.46 87.7944 1109.72 86.9802C1114.4 85.9624 1115.42 86.166 1114.4 87.998C1113.59 89.2193 1111.35 90.4407 1109.31 90.2372C1107.28 90.2372 1104.43 91.6621 1102.6 93.2905C1100.97 95.1226 1097.51 96.9546 1095.07 97.5653C1092.62 98.176 1090.38 99.8045 1090.38 101.636C1090.38 103.265 1088.96 105.301 1086.92 106.115C1084.89 106.929 1081.63 108.965 1079.8 110.593C1077.76 112.425 1076.13 115.071 1076.13 116.903C1076.13 118.939 1077.76 118.328 1081.83 114.461C1084.89 111.407 1090.99 107.133 1095.47 104.893C1099.95 102.654 1107.89 100.212 1112.78 99.3973C1118.27 98.5831 1126.62 99.1938 1133.13 100.619C1139.44 102.044 1147.79 105.301 1152.06 107.947C1156.34 110.593 1162.44 115.682 1165.7 119.346C1169.16 123.01 1172.21 127.692 1172.83 129.524C1173.84 132.578 1174.86 132.781 1179.54 130.949C1182.6 129.931 1187.48 129.321 1190.13 129.931C1192.98 130.542 1197.05 132.985 1199.29 135.224L1203.36 139.295C1209.26 125.86 1213.74 118.328 1217.4 113.85C1221.07 109.372 1228.19 103.469 1233.08 100.619C1240.41 96.7511 1244.89 95.7333 1257.3 95.7333C1270.53 95.9368 1274.2 96.7511 1283.77 102.044C1290.08 105.504 1298.83 112.222 1303.71 117.107C1308.4 121.992 1313.48 127.896 1315.11 130.135C1316.74 132.374 1320 139.702 1322.44 146.42C1324.88 153.341 1326.51 162.501 1326.31 167.793L1325.9 176.953C1306.77 167.997 1303.1 167.386 1291.91 168.2C1284.17 169.015 1275.62 171.05 1271.14 173.696C1266.87 175.936 1263.41 178.378 1263.41 178.989C1263.41 179.396 1268.7 179.396 1275.22 178.582C1281.93 177.971 1291.3 178.378 1297 179.803C1303.1 181.228 1311.45 185.299 1317.35 189.981L1327.53 197.717C1338.73 185.707 1345.04 181.228 1348.9 180.007C1352.98 178.989 1359.49 177.971 1363.76 177.971H1371.3C1366.41 166.368 1366.21 162.297 1367.43 155.58C1368.45 149.88 1371.5 144.18 1374.76 140.72C1379.64 135.631 1380.66 132.985 1381.27 121.382C1381.68 112.832 1383.51 103.876 1386.36 97.7689C1389.62 90.4407 1392.67 87.1838 1398.78 84.1304Z" fill="#FFC3C2"/>
<path d="M2025.74 171.254C2020.24 170.847 2024.31 170.44 2034.9 170.44C2045.69 170.44 2050.17 170.847 2045.08 171.254C2040.19 171.661 2031.44 171.661 2025.74 171.254Z" fill="#FFC3C2"/>
</svg>
