<svg width="286" height="743" viewBox="0 0 286 743" fill="none" xmlns="http://www.w3.org/2000/svg">
<path d="M90.714 513.752H54.5653L0.342316 798.423H150.747L90.714 513.752Z" fill="url(#paint0_linear_2_392)"/>
<path d="M224.98 513.752H188.832L134.609 798.423H285.013L224.98 513.752Z" fill="url(#paint1_linear_2_392)"/>
<path d="M132.149 3.74338C133.209 3.01425 135.331 1.95368 136.789 1.35711C138.247 0.760543 140.169 0.429116 141.097 0.627972C142.025 0.826828 144.213 1.62225 146.069 2.48396C147.991 3.34567 151.305 5.86452 154.089 8.51593C156.674 11.1011 160.718 16.1388 163.17 19.7844C165.557 23.4301 169.468 30.3238 171.854 35.0301C174.174 39.8026 177.157 46.63 178.416 50.2757C179.675 53.9214 181.531 60.3511 184.448 72.1499L184.846 191.795L184.848 192.459C185.177 309.851 185.178 310.072 185.509 146.721L187.762 141.286C188.955 138.236 192.071 130.879 194.59 124.847C197.109 118.815 199.561 112.717 200.025 111.258C200.489 109.8 201.616 107.149 202.61 105.293C204.002 102.707 204.798 101.912 206.19 101.846C207.25 101.713 208.642 101.978 209.371 102.31C210.1 102.707 211.426 104.563 212.288 106.486C213.15 108.342 214.409 111.855 215.006 114.241C215.668 116.627 216.729 119.743 217.392 121.201C218.055 122.659 220.706 128.824 223.291 134.988C225.81 141.087 227.865 146.456 227.865 146.92C227.799 147.318 227.799 150.3 227.931 159.315H232.571V163.624C232.571 166.673 232.306 168.065 231.643 168.396C230.848 168.86 230.649 183.576 230.318 372.423L241.785 384.023C248.082 390.386 254.048 396.683 255.108 397.943C256.169 399.202 258.025 402.516 259.284 405.234C260.61 407.952 262.4 412.857 263.328 416.171C264.256 419.485 264.985 423.197 264.918 424.457C264.918 425.716 265.117 428.832 265.382 431.417C265.78 434.93 265.714 436.587 264.985 438.31C264.454 439.57 263.328 441.094 262.4 441.757C261.206 442.553 258.423 443.083 252.788 443.613C248.413 443.945 241.719 444.475 237.874 444.674C234.029 444.873 230.119 445.204 229.058 445.403C227.865 445.602 227.401 445.999 227.6 446.662C227.799 447.193 227.666 448.054 227.268 448.518C226.937 448.916 226.672 451.236 226.672 453.622C226.672 456.009 226.606 458.66 226.606 459.588C226.539 460.516 226.539 462.571 226.606 464.228V464.229C226.606 465.886 226.606 468.736 226.539 470.525C226.539 472.381 226.473 474.568 226.539 475.496C226.539 476.424 227.732 478.678 229.124 480.468C230.516 482.324 232.306 485.704 233.102 488.091C233.963 490.477 234.825 494.255 235.09 496.575C235.488 499.956 235.355 500.884 234.56 501.348C234.029 501.679 231.378 502.011 228.727 502.011C226.142 502.011 223.954 502.209 223.954 502.541C223.954 502.806 224.816 505.259 225.943 507.976C227.003 510.694 227.865 513.611 227.931 515.931H206.388C189.751 515.931 184.779 515.732 184.514 515.135C184.315 514.671 185.045 511.755 186.171 508.639L186.265 508.363C187.286 505.365 188.16 502.798 188.16 502.541C188.16 502.209 185.442 502.011 176.229 502.011V499.558C176.229 498.166 176.693 495.316 177.223 493.261C177.753 491.14 179.013 488.024 179.941 486.301C180.869 484.511 182.526 481.661 183.586 479.805C185.376 476.756 185.509 476.093 185.243 471.519C185.045 468.802 184.912 466.018 184.846 465.421V460.251V455.478C184.846 455.014 184.978 453.556 185.177 452.297C185.442 450.772 185.31 449.645 184.713 449.115C184.249 448.651 183.122 448.319 180.736 448.651L180.869 473.508H174.24C167.678 473.508 167.612 473.508 168.009 475.032C168.208 475.828 168.672 478.546 169.136 480.998C169.932 485.506 169.932 485.572 168.274 486.765C167.346 487.428 164.828 488.29 162.64 488.621C160.453 488.952 155.68 489.151 152.034 489.019L151.786 489.01C148.222 488.88 144.657 488.751 143.815 488.621C142.291 488.422 142.158 488.687 141.429 493.062C141.031 495.647 140.435 498.1 140.236 498.564C139.971 498.961 139.374 499.359 138.91 499.359C138.512 499.426 137.651 498.895 136.988 498.232C136.391 497.569 135.662 495.581 135.397 493.725C135.132 491.935 134.933 489.88 134.999 489.284C135.065 488.621 134.933 488.091 134.601 488.091C134.336 488.091 133.209 488.488 132.149 489.085C130.691 489.814 128.371 490.079 123.532 490.013C119.886 489.947 114.981 489.483 112.595 489.019C110.208 488.488 107.822 487.627 107.292 487.096C106.43 486.235 106.43 485.439 107.093 481.926C107.491 479.672 108.021 477.021 108.618 474.171L95.6919 473.839V461.245C95.6919 450.374 95.5593 448.651 94.6976 448.85C94.1673 448.982 93.4382 449.446 93.1731 449.844C92.9079 450.308 92.8416 451.7 93.0405 452.959C93.2393 454.219 93.3719 455.611 93.3719 455.942C93.3056 456.274 93.1731 458.262 92.9742 460.251C92.7753 462.239 92.9079 464.228 93.2393 464.559C93.5708 464.891 93.6371 465.819 93.3056 466.548C93.0405 467.277 92.7753 469.928 92.7091 472.514C92.6428 476.756 92.8416 477.352 94.6313 479.474C95.7582 480.733 97.4153 483.318 98.3433 485.108C99.205 486.964 100.464 490.676 100.995 493.394C101.591 496.111 101.989 499.094 101.856 500.022C101.658 501.613 101.392 501.679 96.2222 502.011C93.2393 502.21 90.6542 502.541 90.4554 502.872C90.2565 503.137 91.1845 505.855 92.5102 508.971C94.565 513.611 94.8965 514.804 94.1673 515.467C93.5708 516.063 87.7377 516.328 72.492 516.461C53.1367 516.593 51.5458 516.527 51.1481 515.467C50.883 514.737 51.4133 512.285 52.4075 509.633C53.3355 507.048 54.2635 504.463 54.5287 503.867C54.8601 502.806 54.3298 502.673 42.6636 502.342L42.7962 498.564C42.9287 496.443 43.5916 492.863 44.387 490.61C45.1162 488.29 47.0384 484.644 51.2807 478.479L51.4795 470.194C51.6121 465.62 51.6784 461.311 51.6784 460.582C51.6784 459.853 51.5458 456.738 51.347 453.622C51.0818 450.507 50.883 447.391 50.883 446.662C50.8167 445.403 49.8887 445.27 16.8123 442.95L14.9563 441.028C13.962 439.901 13.1666 438.443 13.1666 437.714C13.1666 436.985 13.1003 435.725 12.9677 434.93C12.8352 434.068 13.034 432.345 13.2992 431.085C13.5643 429.826 13.8957 426.71 14.0946 424.125C14.2934 421.54 15.2214 416.966 16.1494 413.851C17.0774 410.736 18.8671 405.963 20.1928 403.245C22.3803 398.871 24.1037 396.749 48.2979 372.423V270.211C48.2979 179.731 48.1653 167.932 47.3036 167.932C46.5081 167.932 46.3093 167.004 46.3093 163.292C46.3093 160.044 46.5744 158.652 47.1047 158.586C47.5687 158.52 48.563 158.453 49.2921 158.387C50.4853 158.321 50.6178 157.724 50.9493 152.024C51.2144 147.119 51.7447 144.732 53.1367 141.418C54.131 139.032 55.2578 136.513 55.5892 135.784C55.9207 135.055 56.7824 133.132 57.4452 131.475C58.1744 129.818 59.9641 125.576 61.4886 122.063C62.9469 118.483 64.2063 115.368 64.2063 115.103C64.2063 114.771 64.8692 112.915 65.7309 110.927C66.5263 108.938 67.852 106.154 68.7137 104.829C69.9069 102.774 70.5697 102.31 72.1606 102.31C73.2874 102.31 74.6794 102.84 75.276 103.503C75.8726 104.099 77.0657 106.154 77.8611 107.944C78.7228 109.8 79.8497 112.915 80.38 114.904C80.9103 116.893 83.0977 122.726 85.2851 127.83C87.4062 132.934 90.0576 139.164 93.0405 146.39L93.3719 110.595C93.7033 79.375 93.9022 74.1385 94.9628 69.4985C95.6256 66.5819 97.0176 61.2128 98.0119 57.5671C99.0725 53.9214 100.398 49.7454 100.995 48.2872C101.658 46.8289 103.116 43.5146 104.309 40.9958C105.502 38.4769 108.22 33.373 110.275 29.7273C112.396 26.0816 116.108 20.4473 118.56 17.133C121.013 13.8188 124.592 9.77535 126.581 8.11822C128.569 6.46109 131.088 4.47252 132.149 3.74338Z" fill="#464646"/>
<path fill-rule="evenodd" clip-rule="evenodd" d="M139.639 3.54471C140.435 3.54471 141.694 4.20756 142.423 5.06927C143.152 5.8647 144.809 8.5824 146.002 11.1675C147.262 13.7527 149.052 18.6578 149.98 22.1046C150.908 25.5515 152.101 31.1857 152.631 34.5663C153.228 37.8805 153.692 41.0622 153.692 41.4599C153.692 42.1228 150.576 42.3217 140.236 42.3217C132.878 42.3217 123.731 42.5868 119.886 42.8519C116.041 43.1834 111.402 43.6474 109.612 43.9788C107.756 44.3765 106.231 44.5754 106.099 44.4428C106.032 44.3765 106.894 42.1891 108.154 39.6702C109.347 37.1514 111.998 32.18 114.053 28.7332C116.174 25.2863 119.753 20.0498 122.073 17.1332C124.393 14.2167 127.641 10.7698 129.232 9.44411C130.823 8.1184 133.475 6.19612 135.132 5.26813C136.789 4.34013 138.777 3.54471 139.573 3.54471L139.639 3.54471ZM145.804 5.53327C146.135 5.53327 147.858 6.66012 149.582 8.05211C151.372 9.44411 154.023 12.0955 155.481 13.8852C157.006 15.6749 159.591 19.1881 161.314 21.7732C163.038 24.3583 166.485 30.5229 169.07 35.5605C171.589 40.532 173.577 44.7742 173.445 44.9068C173.378 45.1056 172.119 44.9731 170.661 44.6416C169.202 44.3102 166.485 43.9125 164.695 43.6474C162.839 43.4485 160.055 43.1171 155.415 42.5868L154.487 36.82C154.023 33.6383 153.029 28.6669 152.366 25.7503C151.703 22.8338 150.51 18.5252 149.714 16.1389C148.985 13.7527 147.593 10.5047 146.732 8.84754C145.804 7.1904 145.141 5.79841 145.141 5.66584C145.141 5.59956 145.406 5.53327 145.804 5.53327ZM143.616 44.5091C151.04 44.5754 153.824 44.8405 154.023 45.4371C154.222 45.9011 154.553 48.0885 154.752 50.2759C154.951 52.4633 155.282 68.4381 155.481 85.7386C155.68 103.039 155.68 118.086 155.084 121.201L137.717 121.334C128.105 121.4 116.572 121.732 111.998 122.196C107.424 122.593 102.519 123.19 101.061 123.521C99.6027 123.853 97.8793 124.25 97.2164 124.449C96.1559 124.847 96.0896 123.521 96.0896 103.172C96.0896 91.174 96.421 78.9112 96.7524 75.7958C97.1501 72.6804 98.0781 67.7752 98.8073 64.8587C99.6027 61.9421 100.862 57.3022 101.79 54.5845C102.652 51.8668 103.845 49.1491 104.508 48.5525C105.171 47.9559 106.762 47.1605 108.021 46.7628C109.28 46.3651 111.667 45.8348 113.324 45.5696C114.981 45.3045 120.217 44.9068 124.924 44.7079C129.63 44.5091 138.115 44.3765 143.616 44.4428V44.5091ZM155.68 45.3708H158.994C160.85 45.3708 164.695 45.7022 167.479 46.1662C170.992 46.6965 173.113 47.4256 174.041 48.3536C174.837 49.0828 176.03 51.6016 176.825 53.9879C177.621 56.3742 178.814 60.6827 179.543 63.5993C180.272 66.5158 181.266 71.4209 181.73 74.5364C182.327 78.5135 182.526 86.6003 182.194 124.582L179.079 123.853C177.355 123.389 171.721 122.66 157.205 121.268L156.873 88.1249C156.674 69.8964 156.343 52.7948 156.144 50.1433L155.68 45.3708ZM207.25 104.365C207.714 104.365 208.51 105.094 209.04 105.889C209.504 106.685 210.564 109.336 211.36 111.656C212.089 114.042 212.686 116.031 212.553 116.097C212.487 116.097 209.968 116.296 206.919 116.429C203.604 116.561 201.483 116.429 201.483 115.965C201.483 115.633 202.08 113.711 202.875 111.656C203.604 109.668 204.731 107.215 205.328 106.221C205.858 105.226 206.72 104.365 207.25 104.365ZM72.5583 105.094C72.8897 105.094 73.6851 105.757 74.2817 106.552C74.8783 107.414 75.8725 109.668 76.5354 111.656C77.1982 113.711 77.7948 115.7 77.9274 116.164C78.1262 116.76 76.7342 116.959 72.5583 116.959C69.244 116.959 66.924 116.694 66.924 116.296C66.924 115.965 67.5869 113.976 68.316 111.855C69.1114 109.734 70.2383 107.414 70.8349 106.552C71.4314 105.757 72.1606 105.094 72.5583 105.094ZM207.78 117.754C209.636 117.688 211.625 118.02 212.42 118.55C213.15 119.08 214.276 120.605 214.873 122.063C215.47 123.455 217.79 128.824 219.911 133.862C222.032 138.966 224.087 143.937 224.352 144.799C224.683 145.859 224.683 146.323 224.286 146.058C223.954 145.793 221.568 145.395 219.049 145.13C216.464 144.865 211.095 144.666 207.118 144.666C203.074 144.666 197.506 144.865 194.656 145.064C191.408 145.329 189.552 145.263 189.552 144.799C189.552 144.467 190.878 140.954 192.535 137.043C194.192 133.133 196.512 127.697 197.639 124.913C198.766 122.196 200.025 119.61 200.356 119.213C200.688 118.749 201.748 118.285 202.676 118.152C203.671 117.953 205.924 117.821 207.78 117.754ZM72.4257 118.351C75.0108 118.351 77.4634 118.55 77.8611 118.815C78.1925 119.08 78.8554 120.074 79.3194 120.936C79.7171 121.864 80.7114 123.985 81.3742 125.576C82.1034 127.233 84.2245 132.271 86.0805 136.712C87.9365 141.153 89.461 144.998 89.461 145.13C89.461 145.329 87.6051 145.263 85.2851 144.998C83.0314 144.733 76.9994 144.467 71.8954 144.467C66.7914 144.467 60.892 144.733 58.7709 144.998C56.7161 145.263 54.9926 145.329 54.9926 145.13C54.9926 144.998 56.4509 141.352 58.1743 137.043C59.9641 132.735 62.1515 127.498 63.0132 125.377C63.8749 123.256 65.2669 120.804 66.1286 119.942C67.4543 118.484 68.1834 118.351 72.4257 118.351ZM139.175 122.461C144.478 122.394 150.245 122.593 155.415 123.256V142.346C155.415 152.819 155.282 161.436 155.084 161.436C154.885 161.436 154.222 160.575 153.625 159.58C153.029 158.586 151.372 156.465 149.98 154.808C148.588 153.217 146.268 151.03 144.809 149.969C142.953 148.643 141.362 148.113 139.507 148.113C137.717 148.113 136.126 148.643 134.535 149.837C133.276 150.765 131.287 152.621 130.16 154.013C129.033 155.338 126.846 158.387 125.255 160.707C123.731 163.094 120.88 168.33 118.958 172.307C116.969 176.351 114.782 181.852 114.053 184.57C113.324 187.354 111.932 193.784 111.004 198.821C110.076 203.925 109.015 212.609 108.684 218.044C108.352 223.546 107.756 229.644 107.358 231.633C107.027 233.688 105.966 239.918 105.038 245.553C104.176 251.253 102.784 259.738 102.055 264.444C101.26 269.217 100.531 273.857 100.398 274.718C100.266 275.646 99.3376 281.347 98.4096 287.312C97.4816 293.344 96.5536 298.581 96.421 298.912C96.2884 299.31 96.1559 260.732 96.0896 126.968L98.2107 125.974C99.4038 125.51 102.784 124.714 105.701 124.317C108.618 123.853 115.18 123.256 120.284 122.991C125.388 122.792 133.872 122.527 139.175 122.461ZM156.277 122.925L158.53 122.991C159.724 122.991 163.966 123.256 168.009 123.654C171.986 123.985 176.825 124.781 178.747 125.311C180.67 125.841 182.261 126.57 182.261 126.902C182.261 127.3 182.261 131.608 182.261 136.513C182.261 141.485 182.261 179.4 182.261 220.894C182.261 262.389 182.128 296.128 181.995 295.93C181.863 295.797 180.471 288.307 179.013 279.358C177.488 270.476 176.162 262.522 176.03 261.793C175.897 261.063 175.632 259.473 175.367 258.147C175.168 256.887 174.837 254.833 174.638 253.507C174.439 252.247 174.107 250.458 173.975 249.53C173.776 248.668 173.511 246.878 173.312 245.553C173.047 244.293 172.318 239.985 171.589 235.941C170.859 231.964 169.998 223.148 169.666 216.387C169.335 209.692 168.606 201.34 168.076 197.827C167.479 194.38 166.882 190.801 166.684 189.873C166.551 189.011 165.623 185.962 164.695 183.112C163.767 180.262 161.646 175.091 156.94 165.016L156.277 122.925ZM68.8463 146.257C71.9617 146.191 77.7948 146.39 81.7719 146.854C85.8153 147.251 89.5936 147.848 90.2565 148.179C91.317 148.776 91.3833 150.234 91.3833 181.256L85.9479 180.792C82.8988 180.527 76.1377 180.262 70.8349 180.262C65.532 180.262 59.4338 180.46 53.2692 180.924V165.148C53.2692 156.465 53.4681 148.975 53.7332 148.577C53.9984 148.179 56.2521 147.517 58.7046 147.119C61.1572 146.787 65.7309 146.39 68.8463 146.257ZM208.708 146.522C212.155 146.589 216.928 146.854 219.314 147.119C221.7 147.384 224.02 147.981 224.484 148.378C225.147 148.975 225.346 152.886 225.28 181.587L222.628 181.123C221.17 180.858 216.199 180.46 211.559 180.262C206.852 179.996 200.091 180.129 196.446 180.527C192.8 180.858 189.287 181.322 188.69 181.587C187.563 181.919 187.497 180.858 187.431 149.107L189.287 148.312C190.347 147.848 193.662 147.251 196.777 146.986C199.892 146.655 205.262 146.456 208.708 146.522ZM139.241 150.102C139.507 150.102 140.567 150.566 141.628 151.03C142.622 151.56 143.881 152.488 144.412 153.085C145.34 154.079 144.942 154.145 139.507 154.145C136.192 154.145 133.806 153.88 134.204 153.549C134.535 153.283 135.662 152.355 136.723 151.56C137.783 150.765 138.91 150.102 139.241 150.102ZM137.982 157.459C141.694 157.459 145.804 157.592 147.063 157.791C149.118 158.122 149.781 158.785 152.565 163.292C154.288 166.076 156.873 171.18 158.332 174.627C159.856 178.14 160.917 180.991 160.85 181.057C160.718 181.123 159.458 180.924 158 180.593C156.542 180.328 150.576 179.864 144.743 179.599C138.711 179.334 130.691 179.466 126.183 179.864C121.808 180.262 118.163 180.527 118.163 180.46C118.096 180.328 119.356 177.478 121.013 173.964C122.67 170.518 124.128 167.535 124.261 167.336C124.393 167.203 124.725 167.203 124.924 167.336C125.123 167.535 124.46 169.656 123.532 171.976C122.604 174.362 122.007 176.483 122.206 176.616C122.405 176.815 123.532 176.55 124.725 175.953C126.382 175.224 129.63 174.959 139.44 174.959C149.25 174.959 152.498 175.224 154.222 175.953C155.415 176.55 156.542 176.815 156.674 176.616C156.873 176.483 156.277 174.23 155.282 171.644C154.288 169.126 153.161 166.607 152.764 166.143C152.3 165.48 150.974 165.281 148.654 165.48C146.798 165.612 144.743 166.143 144.08 166.673C143.351 167.336 141.495 167.734 139.175 167.734C136.988 167.734 135.198 167.336 134.8 166.872C134.469 166.408 132.281 165.811 129.961 165.546C127.708 165.281 125.852 164.95 125.852 164.883C125.852 164.817 126.581 163.624 127.376 162.232C128.238 160.84 129.497 159.249 130.094 158.586C131.022 157.658 132.48 157.459 137.982 157.459ZM49.2921 160.045C50.8167 160.045 50.9492 160.31 50.9492 163.359C50.9492 166.474 50.8167 166.673 49.2921 166.673C47.7675 166.673 47.635 166.474 47.635 163.359C47.635 160.31 47.7675 160.045 49.2921 160.045ZM229.588 160.045C231.113 160.045 231.245 160.31 231.245 163.359C231.245 165.48 230.914 166.806 230.45 166.938C229.986 167.071 229.191 167.071 228.793 166.938C228.263 166.806 227.931 165.48 227.931 163.359C227.931 160.31 228.064 160.045 229.588 160.045ZM130.425 166.938C132.083 167.137 133.541 167.667 133.607 167.999C133.673 168.396 135.927 168.728 138.91 168.728C142.357 168.728 144.345 168.463 144.876 167.866C145.273 167.402 146.997 166.938 148.654 166.872C151.637 166.739 151.703 166.739 153.029 169.523C153.758 171.048 154.354 172.838 154.354 173.5C154.354 174.296 154.023 174.561 153.228 174.23C152.565 173.964 147.394 173.699 141.76 173.5C136.126 173.368 129.895 173.434 127.973 173.766C124.725 174.296 124.526 174.23 124.791 172.97C124.99 172.241 125.653 170.518 126.249 169.126C127.31 166.607 127.376 166.607 130.425 166.938ZM50.2864 167.999C50.6841 167.999 50.9492 170.783 50.9492 174.959C50.9492 179.201 50.6841 181.919 50.2864 181.919C49.8887 181.919 49.6235 179.201 49.6235 174.959C49.6235 170.783 49.8887 167.999 50.2864 167.999ZM228.594 168.662C228.992 168.662 229.257 171.313 229.257 175.29C229.257 179.267 228.992 181.919 228.594 181.919C228.196 181.919 227.931 179.267 227.931 175.29C227.931 171.313 228.196 168.662 228.594 168.662ZM137.452 180.726C141.826 180.659 148.72 180.924 152.697 181.322C156.741 181.72 160.519 182.316 161.182 182.648C161.911 183.046 162.706 185.167 163.568 189.077C164.297 192.259 165.225 196.965 165.623 199.484C166.021 202.069 166.551 208.3 167.28 222.485L164.629 222.021C163.17 221.822 158.53 221.358 154.354 221.093C150.178 220.762 141.362 220.696 134.8 220.828C128.238 221.027 120.947 221.425 118.56 221.756C116.174 222.088 113.523 222.552 112.595 222.75C110.938 223.082 110.938 223.016 111.136 218.906C111.203 216.652 111.6 212.344 111.998 209.427C112.329 206.511 113.257 201.009 113.987 197.164C114.782 193.386 115.776 188.614 116.307 186.559C116.837 184.57 117.5 182.714 117.765 182.449C118.03 182.184 120.748 181.654 123.863 181.388C126.979 181.057 133.077 180.792 137.452 180.726ZM73.8177 182.25C81.1091 182.383 88.069 182.78 91.3833 183.907V252.513L87.8702 252.115C86.0142 251.916 79.1868 251.717 72.8234 251.717C66.46 251.717 59.5001 251.916 57.4452 252.115C54.0647 252.513 53.6669 252.446 53.4018 251.187C53.2692 250.458 53.2029 235.08 53.2029 216.984C53.2692 198.888 53.5344 183.775 53.7995 183.51C54.1309 183.178 55.7881 182.714 57.4452 182.515C59.1686 182.25 66.5263 182.118 73.8177 182.25ZM209.371 182.316C215.403 182.449 221.369 182.78 224.948 183.642L225.28 251.85H187.497V218.376C187.431 191.861 187.63 184.769 188.293 184.106C188.757 183.642 191.275 182.979 193.794 182.648C196.379 182.316 203.339 182.184 209.371 182.316ZM50.2864 183.907C50.7504 183.907 50.9492 186.028 50.8167 189.608C50.6841 192.789 50.419 195.441 50.1538 195.573C49.8224 195.772 49.6235 193.187 49.6235 189.873C49.6235 186.227 49.8887 183.907 50.2864 183.907ZM50.0875 198.092C50.419 198.357 50.6178 200.81 50.6178 203.461C50.6178 206.179 50.419 208.632 50.0875 208.897C49.8224 209.228 49.6235 206.776 49.6235 203.461C49.6235 200.213 49.8224 197.761 50.0875 198.092ZM50.0875 211.349C50.419 211.615 50.5515 214.332 50.419 217.315C50.2864 220.298 50.0875 222.883 49.8887 223.016C49.7561 223.214 49.6235 220.563 49.6235 217.05C49.6235 213.603 49.8224 211.018 50.0875 211.349ZM144.412 223.413C151.902 223.546 159.79 223.944 161.977 224.341C164.165 224.739 166.418 225.468 166.949 226.065C167.81 226.926 168.009 230.44 168.407 267.095L166.882 266.631C166.021 266.366 162.64 265.637 159.326 265.041C155.084 264.245 149.449 263.98 139.44 263.98C129.497 263.98 123.863 264.245 119.555 265.041C116.307 265.637 112.926 266.3 110.606 266.764V226.993L112.131 226.065C112.926 225.601 114.649 224.938 115.909 224.673C117.168 224.408 121.079 224.01 124.526 223.745C127.973 223.413 136.921 223.347 144.412 223.413ZM50.1538 225.004C50.419 225.004 50.5515 226.926 50.419 229.18C50.3527 231.434 50.1538 234.218 50.0212 235.278C49.955 236.405 49.8224 234.549 49.7561 231.169C49.6898 227.788 49.8224 225.004 50.1538 225.004ZM50.0875 241.907C50.2201 243.763 50.2201 246.414 50.0875 247.873C49.955 249.331 49.8887 247.873 49.8887 244.558C49.8887 241.31 49.955 240.117 50.0875 241.907ZM108.087 246.878C108.352 246.878 108.618 258.081 108.618 296.592H105.966C104.442 296.592 103.182 296.99 102.983 297.454C102.851 297.918 102.254 301.431 101.724 305.21C100.928 310.579 99.6027 315.285 91.1845 338.684L30.5333 399.666L26.4236 407.952C23.3082 414.382 22.5791 416.37 23.2419 416.768C23.7059 417.099 41.603 417.232 63.0795 417.099C88.7319 416.967 101.989 417.165 101.989 417.563C101.989 417.961 101.459 420.082 100.796 422.203C99.669 425.915 99.4701 426.247 97.6141 426.313C96.5536 426.313 93.7696 426.114 91.3833 425.849C88.997 425.584 79.7834 425.12 70.8349 424.921C61.8863 424.722 46.1104 424.258 35.7036 423.86C25.2968 423.529 16.746 423.131 16.746 423.065C16.6797 422.999 17.1437 420.811 17.8065 418.226C18.4694 415.707 19.7951 411.531 20.7894 408.946C21.85 406.427 23.6397 402.848 24.7665 400.992C25.9597 399.202 31.7928 392.971 37.7584 387.138C43.7241 381.305 53.6669 371.627 59.8315 365.595C65.9297 359.564 72.5583 352.802 74.4143 350.615C76.3365 348.494 78.9217 345.18 80.1811 343.324C81.4405 341.534 83.8268 337.822 85.5502 335.038C87.2073 332.32 89.5936 328.012 90.7205 325.427C91.9136 322.908 93.9022 318.268 95.1616 315.152C96.7524 311.241 97.8793 306.602 99.0724 299.575C99.9341 294.14 101.856 282.208 103.315 273.061C104.773 263.98 106.364 254.369 106.762 251.717C107.159 249.066 107.756 246.878 108.087 246.878ZM170.992 249.53C171.257 250.458 173.643 263.914 176.229 279.358C179.079 296.394 181.598 309.253 182.526 311.838C183.387 314.224 184.713 317.671 185.509 319.461C186.304 321.317 187.431 323.836 188.027 325.095C188.624 326.421 190.745 330.265 192.734 333.712C194.722 337.225 197.838 342.13 199.76 344.649C201.616 347.234 214.144 360.359 227.533 373.815C240.923 387.337 252.589 399.268 253.385 400.329C254.246 401.456 255.705 403.842 256.566 405.632C257.494 407.488 259.085 411.465 260.013 414.448C260.941 417.431 261.737 420.679 261.737 421.54C261.737 423.131 261.538 423.264 256.964 423.529C254.313 423.728 247.485 423.993 241.851 424.192C236.217 424.391 226.672 424.722 220.64 424.987C214.608 425.186 206.256 425.517 202.08 425.783C197.838 426.048 190.679 426.18 178.018 426.18L177.157 422.535C176.693 420.546 176.295 418.558 176.295 418.094C176.229 417.431 184.713 417.232 216.331 417.232C238.404 417.232 256.434 417.033 256.434 416.768C256.434 416.503 255.572 414.448 254.578 412.26C253.517 410.139 251.794 406.494 250.8 404.306C249.143 400.859 245.165 396.683 187.829 340.009L183.056 326.421C179.41 316.014 178.151 311.374 177.554 306.535C177.157 303.088 176.693 299.443 176.56 298.448C176.229 296.791 175.963 296.592 170.263 296.592L170.329 272.266C170.329 257.086 170.594 248.535 170.992 249.53ZM50.0875 254.833C50.2201 256.49 50.2201 259.34 50.0875 261.13C49.955 262.986 49.8887 261.66 49.8887 258.147C49.8887 254.7 49.955 253.242 50.0875 254.833ZM75.1434 253.838C82.4348 253.971 89.0633 254.302 91.3833 254.833V286.981L74.6794 287.047C65.4657 287.047 56.7824 287.246 52.9378 287.975L53.1367 271.802C53.2029 262.919 53.5344 255.363 53.8658 255.098C54.1309 254.766 56.1195 254.302 58.1743 254.103C60.2292 253.838 67.852 253.706 75.1434 253.838ZM207.714 253.772C216.464 253.838 224.02 254.103 224.484 254.369C225.081 254.766 225.28 258.876 225.28 287.975L221.833 287.578C219.911 287.312 212.354 287.114 205.063 287.18C197.771 287.18 190.811 287.379 187.497 287.975L187.829 254.567L189.817 254.103C190.944 253.838 198.964 253.706 207.714 253.772ZM50.0875 268.753C50.2201 270.41 50.2201 273.26 50.0875 275.05C49.955 276.906 49.8887 275.58 49.8887 272.067C49.8887 268.62 49.955 267.162 50.0875 268.753ZM138.115 266.234C141.031 266.234 147.129 266.433 151.703 266.83C156.277 267.162 161.182 267.825 162.64 268.222C164.098 268.62 165.954 269.415 168.208 271.073L168.274 348.295L166.816 348.03C165.954 347.831 161.712 347.168 157.337 346.572C151.106 345.776 146.135 345.644 134.137 345.909C125.785 346.108 117.566 346.572 115.909 346.969C114.252 347.367 112.396 347.831 111.799 348.03C110.672 348.295 110.606 346.174 110.606 310.048C110.606 274.453 110.672 271.669 111.733 270.41C112.396 269.681 114.583 268.686 116.572 268.156C118.56 267.692 123.068 267.029 126.515 266.83C129.961 266.565 135.198 266.3 138.115 266.234ZM50.0875 283.004C50.2201 284.86 50.2201 287.511 50.0875 288.97C49.955 290.428 49.8887 288.97 49.8887 285.655C49.8887 282.407 49.955 281.214 50.0875 283.004ZM75.8063 289.036C83.0976 289.102 89.5936 289.434 90.2565 289.632C91.2507 289.964 91.3833 291.223 91.3833 303.552C91.3833 316.147 91.2507 317.472 89.925 320.654C89.1296 322.576 87.1411 326.487 85.5502 329.404C83.9594 332.32 80.9765 337.225 78.9217 340.341C76.8668 343.39 72.1606 348.958 61.8863 359.497L52.9378 359.895V325.294C52.9378 298.316 53.1367 290.56 53.7995 290.163C54.1972 289.898 56.3846 289.5 58.5721 289.235C60.7595 288.97 68.5149 288.903 75.8063 289.036ZM210.697 289.102C217.06 289.301 222.96 289.699 225.28 290.627V359.563L221.17 359.166C217.259 358.768 216.729 358.503 213.017 355.122C210.83 353.134 207.449 349.687 205.527 347.433C203.604 345.18 200.82 341.534 199.296 339.346C197.771 337.225 194.523 331.458 187.497 317.804V304.215C187.497 294.074 187.696 290.56 188.359 290.163C188.757 289.898 191.408 289.5 194.126 289.235C196.843 288.97 204.334 288.903 210.697 289.102ZM50.0875 295.93C50.2201 297.587 50.2201 300.437 50.0875 302.227C49.955 304.083 49.8887 302.757 49.8887 299.244C49.8887 295.797 49.955 294.339 50.0875 295.93ZM108.618 297.918L108.684 404.969L106.298 408.946C104.972 411.134 103.779 413.652 103.315 415.906H63.8749C42.1996 415.906 24.4351 415.707 24.4351 415.442C24.4351 415.177 26.0259 411.796 31.2625 400.992L91.9136 340.009L94.565 332.718C96.0896 328.741 98.277 322.643 99.5364 319.129C100.796 315.683 102.188 310.91 102.519 308.524C102.917 306.204 103.447 302.823 103.646 301.1C104.044 298.051 104.11 297.918 108.618 297.918ZM170.263 297.918H172.583C174.041 297.918 175.035 298.316 175.234 298.912C175.433 299.509 175.566 300.901 175.566 302.094C175.566 303.287 176.03 306.469 176.56 309.187C177.024 311.971 179.41 319.991 186.171 340.009L248.148 401.854L251.33 408.548C253.053 412.26 254.313 415.442 254.18 415.707C254.048 415.972 238.007 416.105 218.519 416.105C199.097 416.105 181.465 416.039 175.566 415.906L174.174 412.791C173.445 411.067 172.251 408.88 171.522 407.952C170.263 406.361 170.197 404.903 170.263 352.14V297.918ZM50.0875 309.849C50.2201 311.507 50.2201 314.291 50.0875 316.147C49.955 317.936 49.8224 316.611 49.8224 313.164C49.8224 309.717 49.955 308.192 50.0875 309.849ZM50.0875 323.769C50.2201 325.427 50.2201 328.211 50.0875 330.066C49.955 331.856 49.8224 330.531 49.8224 327.084C49.8224 323.637 49.955 322.112 50.0875 323.769ZM50.0875 338.021C50.2201 339.81 50.2201 342.528 50.0875 343.986C49.955 345.445 49.8224 343.986 49.8224 340.672C49.8224 337.358 49.955 336.165 50.0875 338.021ZM50.0875 350.946C50.2201 352.604 50.2201 355.388 50.0875 357.243C49.955 359.033 49.8224 357.707 49.8224 354.261C49.8224 350.814 49.955 349.289 50.0875 350.946ZM141.429 348.626C151.504 348.825 159.525 349.223 161.977 349.753C164.231 350.217 166.551 351.079 167.148 351.609C168.274 352.537 168.341 354.526 168.208 401.655L165.756 401.124C164.364 400.859 160.718 400.329 157.669 399.998C154.553 399.666 145.273 399.335 137.12 399.335C128.901 399.401 120.085 399.666 117.566 399.998C114.981 400.329 112.396 400.727 111.733 400.926C110.672 401.323 110.606 399.865 110.606 377.461C110.606 362.878 110.871 353.068 111.269 352.272C111.6 351.543 112.727 350.615 113.721 350.217C114.716 349.82 117.632 349.223 120.217 348.958C122.736 348.626 132.281 348.494 141.429 348.626ZM218.983 360.823L221.966 361.287C223.556 361.552 225.015 361.751 225.081 361.817C225.147 361.883 225.28 363.143 225.412 364.667C225.479 366.258 225.412 367.451 225.28 367.451C225.081 367.385 223.556 365.927 221.966 364.071L218.983 360.823ZM59.7652 361.618L53.2692 368.313L53.0704 365.463C52.9378 363.673 53.2029 362.414 53.7332 362.082C54.1972 361.817 55.7218 361.618 59.7652 361.618ZM50.0875 363.938C50.2201 364.999 50.2201 367.12 50.0875 368.578C49.955 370.037 49.8224 369.109 49.8224 366.59C49.8224 364.005 49.955 362.811 50.0875 363.938ZM136.259 402.119C145.737 402.052 155.15 402.384 159.127 402.848C162.839 403.312 166.286 404.041 166.882 404.571C167.744 405.234 167.081 405.3 163.303 404.903C160.718 404.571 149.516 404.372 138.446 404.372C127.31 404.372 116.638 404.571 114.716 404.836C112.595 405.168 111.269 405.102 111.335 404.704C111.402 404.372 112.528 403.776 113.854 403.444C115.18 403.047 117.102 402.649 118.229 402.516C119.289 402.384 127.443 402.185 136.259 402.119ZM136.126 406.096C145.605 406.03 156.343 406.295 159.989 406.692C165.822 407.289 166.816 407.62 168.407 409.211C169.467 410.139 170.263 411.2 170.263 411.465C170.263 411.73 167.28 411.995 157.006 411.995L149.449 426.909L150.908 441.492C151.703 449.513 152.233 456.075 152.167 456.141C152.101 456.208 150.444 456.406 148.455 456.473C146.533 456.605 144.809 456.473 144.677 456.208C144.544 455.942 144.279 450.308 144.146 443.613C144.014 436.786 143.417 428.898 142.821 425.385C142.224 422.004 141.362 418.491 140.898 417.563C140.368 416.503 139.573 415.906 138.579 415.906C137.783 415.972 136.656 416.635 136.126 417.431C135.662 418.292 134.734 421.341 134.137 424.258C133.408 427.705 132.944 434.068 132.414 456.075L128.172 456.208C125.785 456.34 123.863 456.208 123.863 456.075C123.863 455.876 124.128 453.556 124.526 450.905C124.924 448.253 125.388 445.204 125.52 444.144C125.653 443.017 126.316 438.509 128.172 426.048L126.183 421.805C125.056 419.486 123.532 416.37 121.212 411.995H114.583C110.606 411.995 107.955 411.73 107.955 411.332C107.955 410.935 108.618 409.94 109.413 409.079C110.407 408.018 112.064 407.355 114.252 407.024C116.041 406.759 117.831 406.494 118.229 406.361C118.56 406.228 126.647 406.096 136.126 406.096ZM106.629 413.984H120.217L125.918 426.247L125.189 432.544C124.725 435.991 123.996 441.227 123.532 444.144C123.068 447.06 122.471 450.839 122.272 452.562C121.941 455.014 121.543 455.876 120.35 456.274C119.555 456.605 117.632 458.793 116.108 461.113C114.649 463.433 112.661 466.681 110.142 471.321L97.6804 471.718L98.1444 460.582C98.4096 454.418 99.1387 445.867 99.7353 441.492C100.266 437.117 101.591 430.224 102.652 426.247C103.646 422.203 104.972 417.828 105.568 416.436L106.629 413.984ZM158.332 413.984H171.589L172.583 416.304C173.113 417.563 174.041 420.811 174.571 423.463C175.168 426.114 176.096 431.351 176.626 435.195C177.157 439.04 177.819 448.651 178.549 470.923L166.286 471.321L165.424 469.332C165.026 468.272 163.237 465.222 161.447 462.571C159.26 459.19 157.735 457.533 156.343 457.069C155.216 456.738 154.354 456.208 154.354 455.942C154.354 455.677 153.692 449.181 151.504 427.572L158.332 413.984ZM138.446 417.961C138.777 417.961 139.374 419.088 139.772 420.48C140.103 421.805 140.766 425.053 141.164 427.572C141.561 430.157 141.826 438.775 141.826 446.795C141.826 454.816 141.628 464.825 141.429 469.001C141.164 473.177 140.7 480.07 140.368 484.246C139.97 488.422 139.507 492.002 139.308 492.201C139.175 492.399 139.109 482.324 139.241 469.862C139.308 457.334 139.175 447.126 138.91 447.126C138.645 447.126 138.446 449.248 138.446 451.766C138.446 454.352 138.247 456.738 138.115 457.069C137.916 457.467 137.717 466.018 137.651 476.159C137.651 487.295 137.385 493.327 137.054 491.538C136.789 489.881 136.325 484.71 136.06 479.938C135.795 475.232 135.397 467.874 135.198 463.698C134.933 459.522 134.8 450.706 134.867 444.144C134.933 437.581 135.331 429.959 135.728 427.241C136.126 424.523 136.789 421.341 137.187 420.148C137.518 418.955 138.115 417.961 138.446 417.961ZM17.6077 426.247C18.2705 426.379 27.9482 426.711 59.5663 427.572V444.144L52.0761 443.68C47.9664 443.348 38.6864 442.685 31.3951 442.089C24.1037 441.492 17.6077 440.763 16.9448 440.432C16.3483 440.1 15.4203 438.708 15.0226 437.383C14.426 435.328 14.4923 434.002 15.354 430.423C16.282 426.909 16.6797 426.048 17.6077 426.247ZM259.682 426.114C263.062 425.915 263.062 425.915 263.792 428.434C264.256 429.76 264.521 432.411 264.521 434.201C264.454 436.057 263.924 438.178 263.394 439.04C262.864 439.835 261.803 440.829 261.074 441.161C260.345 441.559 250.866 442.42 239.995 443.149C229.191 443.879 220.043 444.475 219.778 444.475C219.513 444.475 219.314 440.763 219.314 427.904L221.104 427.837C222.098 427.837 223.822 427.705 224.948 427.639C226.009 427.506 233.499 427.241 241.52 426.909C249.54 426.644 256.102 426.445 256.169 426.379C256.235 426.313 257.826 426.18 259.682 426.114ZM82.6999 428.368C91.317 428.832 98.4096 429.296 98.4759 429.362C98.6084 429.495 98.0781 433.472 96.2222 446.795L92.9742 446.729C91.1845 446.729 88.069 446.53 86.0805 446.265C84.0256 446.066 78.524 445.536 73.8177 445.138C69.0451 444.674 65.1343 444.343 65.0017 444.276C64.9355 444.21 64.8692 441.028 64.8029 437.184C64.7366 433.339 64.6703 429.76 64.604 429.097C64.5377 428.5 65.068 427.904 65.7972 427.771C66.46 427.705 74.0828 427.97 82.6999 428.368ZM62.2178 427.904C62.6155 427.904 62.8806 431.351 62.8806 436.852C62.8806 442.42 62.6155 445.801 62.2178 445.801C61.7538 445.801 61.5549 442.42 61.5549 436.852C61.5549 431.351 61.7538 427.904 62.2178 427.904ZM214.21 428.235L214.276 436.123C214.276 440.432 214.144 444.21 214.011 444.475C213.812 444.74 207.714 445.337 200.423 445.801C193.131 446.199 185.641 446.663 180.537 446.928L179.477 438.244C178.946 433.472 178.482 429.495 178.482 429.428C178.482 429.362 185.376 429.097 193.794 428.898C202.146 428.633 209.172 428.301 209.305 428.103C209.504 427.97 210.631 427.97 214.21 428.235ZM54.2635 448.452H72.1606C81.9708 448.452 90.1239 448.717 90.2565 448.982C90.389 449.248 90.389 450.706 90.0576 455.081H54.2635V448.452ZM188.16 448.452H223.954V454.418H188.16V448.452ZM71.8954 457.533C80.9765 457.666 88.7319 457.732 89.1959 457.732C89.7262 457.732 90.0576 458.859 90.0576 464.361H54.5949V461.245C54.5949 459.522 54.7938 457.931 54.9926 457.732C55.2578 457.533 62.8806 457.467 71.8954 457.533ZM188.16 457.069H223.623L223.424 464.029L188.16 464.361V457.069ZM132.878 458.461C132.944 458.66 133.143 462.637 133.673 475.961L131.221 476.425C129.895 476.624 128.304 477.021 127.641 477.22C126.713 477.551 126.515 477.286 126.515 475.828C126.515 474.834 126.846 472.779 127.244 471.321C127.641 469.862 128.371 467.609 128.901 466.349C129.497 465.09 130.558 462.77 131.287 461.113C132.083 459.522 132.745 458.329 132.878 458.461ZM155.68 458.395L158 461.245C159.26 462.77 161.513 466.283 162.905 469.001C164.297 471.718 165.954 475.894 166.485 478.281C167.081 480.667 167.545 482.921 167.611 483.252C167.611 483.65 164.828 483.849 160.121 483.716C154.288 483.583 151.637 483.782 147.726 484.843C144.942 485.572 142.556 486.036 142.423 485.903C142.224 485.705 142.29 485.174 142.556 484.578C142.821 484.047 143.749 483.583 144.544 483.517C145.406 483.517 147.063 483.119 148.389 482.655C149.648 482.191 151.04 481.131 151.438 480.203C152.034 479.01 151.968 477.684 151.305 474.502C150.775 472.182 149.317 467.741 148.057 464.56C146.732 461.378 145.671 458.66 145.737 458.594C145.737 458.461 147.925 458.395 155.68 458.395ZM130.16 459.124L127.641 466.084C125.719 471.387 125.189 473.972 125.189 481.595L127.973 482.589C129.564 483.119 131.552 483.65 132.48 483.716C133.607 483.849 134.137 484.379 134.27 485.439C134.469 486.831 134.336 486.898 131.95 486.235C130.624 485.837 127.244 485.108 124.526 484.511C121.079 483.849 118.096 483.65 114.915 483.981C112.329 484.18 109.811 484.578 109.347 484.843C108.551 485.174 108.485 484.71 108.883 482.258C109.148 480.601 110.142 477.353 111.004 474.966C111.932 472.58 113.854 468.603 115.312 466.018C116.837 463.499 118.494 460.848 119.091 460.251C119.82 459.323 121.079 459.058 130.16 459.124ZM143.881 458.726L145.141 461.046C145.804 462.306 147.262 466.15 148.322 469.531C149.449 472.911 150.377 476.226 150.377 476.955C150.377 478.016 150.112 478.148 149.184 477.75C148.588 477.419 146.93 476.955 143.086 476.292V472.182C143.086 469.862 143.285 465.952 143.484 463.366L143.881 458.726ZM223.556 466.681V472.182C223.556 477.154 223.49 477.618 222.231 477.684C221.502 477.75 213.614 477.75 204.665 477.75C195.783 477.684 188.425 477.618 188.359 477.485C188.293 477.419 188.16 475.033 188.094 472.315C188.094 469.597 188.027 467.145 188.027 466.88C188.027 466.614 196.048 466.482 223.556 466.681ZM54.5286 467.012H89.9913V478.281H54.5286V467.012ZM132.281 477.684C133.541 477.618 133.74 477.949 133.74 479.938C133.74 481.926 133.541 482.258 132.281 482.258C131.42 482.258 129.829 481.993 128.636 481.595C127.443 481.263 126.382 480.534 126.316 479.938C126.249 479.341 127.045 478.745 128.503 478.347C129.763 478.015 131.42 477.75 132.281 477.684ZM144.279 477.618C144.876 477.618 146.334 477.883 147.527 478.281C148.72 478.678 149.648 479.407 149.648 479.938C149.648 480.468 148.72 481.263 147.527 481.595C146.334 481.993 144.677 482.258 143.881 482.258C142.821 482.258 142.357 481.86 142.357 480.932C142.357 480.203 142.556 479.142 142.754 478.612C142.953 478.082 143.682 477.618 144.279 477.618ZM205.328 480.269V482.921C205.328 484.379 205.063 485.572 204.665 485.572C204.334 485.572 204.002 486.036 204.002 486.566C204.002 487.097 204.334 487.561 204.665 487.561C205.063 487.561 205.328 488.754 205.328 490.212C205.328 491.67 205.063 492.863 204.665 492.863C204.334 492.863 204.002 493.327 204.002 493.858C204.002 494.388 204.334 494.852 204.665 494.852C205.063 494.852 205.328 495.913 205.328 499.492H178.814L179.211 497.039C179.477 495.647 179.941 493.46 180.272 492.201C180.67 490.941 181.73 488.555 182.658 486.898C183.586 485.241 185.045 483.119 186.039 482.125C187.696 480.269 187.762 480.269 205.328 480.269ZM205.991 480.269H225.545L227.069 482.457C227.865 483.65 229.257 486.367 230.185 488.555C231.047 490.742 232.041 494.123 232.836 499.558L205.991 499.492V493.195C205.991 489.218 206.256 487.03 206.654 487.229C207.051 487.428 207.316 487.097 207.316 486.566C207.316 486.036 207.051 485.705 206.654 485.903C206.256 486.102 205.991 485.042 205.991 483.252V480.269ZM52.9378 480.932H71.2326L71.1 500.155H45.2487L45.779 496.377C46.1104 494.255 47.1047 490.875 47.9664 488.886C48.8944 486.898 50.419 484.313 51.2807 483.119L52.9378 480.932ZM92.0462 480.932L94.0347 483.385C95.0953 484.777 96.421 487.229 97.0176 488.886C97.5479 490.477 98.2107 493.593 99.0061 499.492L96.3547 499.558C94.8964 499.625 88.997 499.757 83.2302 499.89C77.4634 500.022 72.7571 499.89 72.7571 499.625C72.7571 499.359 72.6246 498.034 72.4257 496.642C72.1606 494.653 72.2931 494.255 73.1548 494.521C73.6851 494.719 74.1491 494.454 74.1491 493.858C74.1491 493.261 73.8177 492.797 73.42 492.665C73.0223 492.598 72.5583 491.538 72.4257 490.345C72.2268 488.886 72.4257 488.091 73.1548 487.892C73.6851 487.693 74.1491 487.097 74.1491 486.566C74.1049 485.903 73.7072 485.705 72.956 485.97C72.028 486.301 71.8954 486.102 72.2931 484.777C72.5583 483.915 72.7571 482.722 72.7571 482.059C72.8234 480.998 73.6851 480.932 92.0462 480.932ZM158 484.313C158.332 484.246 160.585 484.578 162.972 484.975C165.424 485.373 166.949 485.903 166.617 486.235C166.22 486.5 164.43 487.03 162.64 487.362C160.784 487.693 156.741 488.025 153.692 488.157C150.576 488.223 147.262 488.025 146.4 487.693C144.743 487.097 144.809 487.03 147.394 486.235C148.853 485.705 151.637 485.108 153.692 484.843C155.68 484.644 157.602 484.379 158 484.313ZM119.555 485.241C122.471 485.439 126.316 486.036 128.172 486.633C131.088 487.561 131.287 487.759 130.16 488.356C129.299 488.82 125.785 488.953 121.212 488.687C116.837 488.489 112.396 487.958 110.938 487.362C108.419 486.434 108.352 486.367 109.943 485.97C110.805 485.771 112.197 485.439 112.926 485.307C113.655 485.108 116.638 485.108 119.555 485.241ZM191.607 502.143L220.308 502.077L222.43 507.048C223.623 509.832 224.617 512.351 224.617 512.749C224.617 513.147 218.784 513.412 208.51 513.412C199.694 513.412 191.342 513.611 189.95 513.876C188.094 514.274 187.431 514.141 187.431 513.544C187.431 513.08 187.895 511.755 188.425 510.562C188.889 509.368 189.817 506.982 190.48 505.259L191.607 502.143ZM57.6441 502.806H87.0748L88.997 507.976C90.1239 510.76 91.1182 513.346 91.1845 513.611C91.2507 513.876 82.8325 514.075 53.6007 514.075L54.9264 510.296C55.7218 508.175 56.6498 505.656 56.9812 504.662L57.6441 502.806Z" fill="#FEFEFE"/>
<path d="M54.7938 158.52C54.7275 155.404 54.9264 154.609 55.9869 154.079C56.6498 153.681 57.6441 153.35 58.1081 153.35C58.5058 153.35 59.5001 153.615 60.2292 154.012C61.3561 154.543 61.5549 155.338 61.5549 162.298H54.9264L54.7938 158.52Z" fill="#464646"/>
<path d="M215.867 158.52C215.801 155.736 216 154.675 216.729 154.476C217.193 154.277 218.32 154.079 219.182 154.079C219.977 154.012 221.104 154.476 221.634 155.007C222.231 155.603 222.628 157.26 222.628 162.298H216L215.867 158.52Z" fill="#464646"/>
<path d="M130.691 200.942C130.823 197.628 130.889 197.562 133.475 196.7C134.933 196.302 136.457 195.905 136.921 195.838C137.518 195.772 137.651 196.833 137.385 199.617C137.187 201.672 136.921 203.594 136.723 203.925C136.59 204.19 135.132 204.389 130.492 204.389L130.691 200.942Z" fill="#464646"/>
<path d="M141.296 201.738C141.23 201.208 141.031 199.617 140.832 198.291C140.501 196.17 140.633 195.772 141.561 195.772C142.224 195.772 144.014 196.302 145.605 196.965C148.389 198.092 148.455 198.158 148.389 204.389H145.406C143.749 204.389 142.224 204.058 141.959 203.594C141.694 203.13 141.429 202.268 141.296 201.738Z" fill="#464646"/>
<path d="M119.555 203.395C120.483 202.467 122.803 201.009 124.725 200.081C126.581 199.153 128.371 198.424 128.702 198.424C128.967 198.424 129.365 198.888 129.564 199.418C129.829 199.948 129.829 201.406 129.63 202.6C129.365 204.124 128.636 204.986 127.244 205.715C125.785 206.444 125.123 207.306 124.857 208.897C124.526 210.952 124.46 211.018 117.897 211.018V208.035C117.897 205.715 118.295 204.654 119.555 203.395Z" fill="#464646"/>
<path d="M151.372 206.046C149.184 204.853 148.985 204.522 149.118 201.804L149.25 198.954L151.637 199.418C152.962 199.683 154.951 200.346 156.012 200.876C157.072 201.473 158.53 202.401 159.127 202.997C159.79 203.594 160.121 204.257 159.989 204.588C159.79 204.853 159.922 205.185 160.32 205.384C160.718 205.582 160.983 207.041 160.983 211.681H158.332C156.873 211.681 155.216 211.548 154.686 211.349C154.089 211.15 153.692 210.222 153.692 209.228C153.692 207.77 153.161 207.041 151.372 206.046Z" fill="#464646"/>
<path d="M130.359 212.741C130.293 211.548 130.492 210.355 130.823 210.09C131.088 209.825 132.679 209.626 137.12 209.626V214.929H133.806C130.492 214.929 130.492 214.929 130.359 212.741Z" fill="#464646"/>
<path d="M141.76 214.929V212.277V209.626H148.389V214.929H141.76Z" fill="#464646"/>
<path d="M56.1194 158.122C56.0532 156.73 56.3183 155.338 56.5834 155.073C56.9149 154.808 57.7766 154.675 58.572 154.808C59.6326 154.94 59.8977 155.537 60.0966 157.857C60.2291 160.575 60.1628 160.641 58.2406 160.641C56.3846 160.641 56.252 160.442 56.1194 158.122Z" fill="#FEFEFE"/>
<path d="M218.32 160.972C217.524 161.238 217.325 160.707 217.325 158.321C217.325 155.471 217.392 155.338 219.314 155.338C221.17 155.338 221.303 155.471 221.303 157.99C221.303 159.912 221.037 160.641 220.308 160.641C219.778 160.641 218.85 160.774 218.32 160.972Z" fill="#FEFEFE"/>
<path d="M131.022 201.075C130.956 199.352 131.287 198.888 133.209 198.092C134.469 197.562 135.662 197.164 135.993 197.098C136.258 197.098 136.457 197.761 136.457 198.623C136.457 199.418 136.325 200.744 136.126 201.605C135.861 202.799 135.33 203.064 133.474 203.064C131.353 203.064 131.154 202.865 131.022 201.075Z" fill="#FEFEFE"/>
<path d="M142.821 202.6C142.688 202.268 142.423 200.943 142.158 199.617C141.893 198.225 141.826 197.098 142.025 197.098C142.29 197.098 143.484 197.562 144.743 198.092C146.665 198.888 147.063 199.418 147.063 201.075C147.063 202.865 146.864 203.064 145.074 203.064C144.014 203.064 142.953 202.865 142.821 202.6Z" fill="#FEFEFE"/>
<path d="M120.217 203.992L123.532 202.202C125.388 201.274 127.177 200.479 127.641 200.412C128.105 200.412 128.371 201.208 128.304 202.202C128.238 203.461 127.641 204.191 126.515 204.655C125.454 205.052 123.996 205.052 120.217 203.992Z" fill="#FEFEFE"/>
<path d="M152.034 204.92C150.841 204.323 150.377 203.528 150.377 202.268C150.377 201.208 150.642 200.412 151.04 200.412C151.438 200.412 153.029 201.009 154.686 201.738C156.343 202.467 157.801 203.329 158 203.727C158.199 204.124 157.271 204.655 156.012 205.052C154.354 205.516 153.228 205.516 152.034 204.92Z" fill="#FEFEFE"/>
<path d="M121.212 210.355C119.555 210.355 119.223 210.09 119.223 208.698C119.223 207.571 119.621 207.041 120.416 207.041C121.013 207.041 122.14 207.372 122.803 207.836C123.465 208.3 123.863 209.096 123.664 209.56C123.399 209.957 122.272 210.355 121.212 210.355Z" fill="#FEFEFE"/>
<path d="M155.216 209.228C155.084 208.764 155.68 208.101 156.542 207.77C157.337 207.372 158.398 207.107 158.862 207.107C159.259 207.041 159.657 207.77 159.657 208.698C159.657 210.156 159.392 210.355 157.536 210.222C156.409 210.09 155.349 209.626 155.216 209.228Z" fill="#FEFEFE"/>
<path d="M134.137 214.332C132.082 214.332 131.817 214.133 131.817 212.675C131.817 211.217 132.082 211.018 134.137 211.018C136.192 211.018 136.457 211.217 136.457 212.675C136.457 214.133 136.192 214.332 134.137 214.332Z" fill="#FEFEFE"/>
<path d="M145.273 214.2C143.351 214.332 143.086 214.133 143.086 212.675C143.086 211.217 143.351 211.018 145.406 211.018C147.394 211.018 147.726 211.217 147.593 212.542C147.461 213.669 146.93 214.067 145.273 214.2Z" fill="#FEFEFE"/>
<defs>
<linearGradient id="paint0_linear_2_392" x1="75.5445" y1="513.752" x2="75.5445" y2="798.423" gradientUnits="userSpaceOnUse">
<stop stop-color="#FB5352"/>
<stop offset="1"/>
</linearGradient>
<linearGradient id="paint1_linear_2_392" x1="209.811" y1="513.752" x2="209.811" y2="798.423" gradientUnits="userSpaceOnUse">
<stop stop-color="#FB5352"/>
<stop offset="1"/>
</linearGradient>
</defs>
</svg>
